<?xml version="1.0" encoding="utf-8"?>
<!-- Generator: Adobe Illustrator 19.1.0, SVG Export Plug-In . SVG Version: 6.00 Build 0)  -->
<!DOCTYPE svg PUBLIC "-//W3C//DTD SVG 1.1//EN" "http://www.w3.org/Graphics/SVG/1.1/DTD/svg11.dtd">
<svg version="1.1" id="Layer_1" xmlns="http://www.w3.org/2000/svg" xmlns:xlink="http://www.w3.org/1999/xlink" x="0px" y="0px"
	 viewBox="0 0 1080 1080" style="enable-background:new 0 0 1080 1080;" xml:space="preserve">
<style type="text/css">
	.st0{fill:#F15C3B;}
	.st1{fill:#F99D20;}
</style>
<g>
	<path class="st0" d="M540.6,18.4c-28,0-51.7,9.8-71.2,29.3c-19.5,19.5-29.3,43.2-29.3,71.2c0,27.4,9.7,50.8,29.3,70.3
		c19.5,19.5,43.2,29.3,71.2,29.3c27.3,0,50.8-9.8,70.3-29.3c19.5-19.5,29.2-42.9,29.2-70.3c0-27.9-9.7-51.7-29.2-71.2
		C591.3,28.1,567.9,18.4,540.6,18.4z"/>
	<path class="st0" d="M540.6,862.9c-27.9,0-51.7,9.8-71.2,29.3c-19.5,19.5-29.3,43.2-29.3,71.2c0,27.4,9.8,50.8,29.3,70.3
		c19.5,19.5,43.2,29.3,71.2,29.3c27.4,0,50.8-9.8,70.3-29.3c19.5-19.5,29.3-42.9,29.3-70.3c0-27.9-9.8-51.7-29.3-71.2
		C591.4,872.7,567.9,862.9,540.6,862.9z"/>
	<path class="st0" d="M1033.1,469.9c-19.5-19.5-43.2-29.3-71.2-29.3c-27.4,0-50.8,9.7-70.3,29.3c-19.5,19.5-29.3,43.2-29.3,71.2
		c0,27.3,9.8,50.8,29.3,70.3c19.5,19.5,42.9,29.2,70.3,29.2c27.9,0,51.7-9.7,71.2-29.2c19.5-19.5,29.3-43,29.3-70.3
		C1062.4,513.1,1052.6,489.4,1033.1,469.9z"/>
	<path class="st0" d="M217.8,541.1c0-27.9-9.8-51.7-29.3-71.2c-19.5-19.5-43.2-29.3-71.2-29.3c-27.4,0-50.8,9.8-70.3,29.3
		c-19.5,19.5-29.3,43.2-29.3,71.2c0,27.4,9.8,50.8,29.3,70.3c19.5,19.5,42.9,29.3,70.3,29.3c27.9,0,51.7-9.8,71.2-29.3
		C208.1,591.9,217.8,568.4,217.8,541.1z"/>
	<path class="st1" d="M838.7,739.2c-27.6,0-51.3,9.9-71,29.6c-19.3,19.3-29,42.8-29,70.4c0,27.6,9.7,51,29,70.4
		c19.8,19.8,43.4,29.6,71,29.6c27.6,0,51.1-9.7,70.4-29c19.8-19.8,29.6-43.4,29.6-71c0-27.6-9.9-51.3-29.6-71
		C889.8,748.9,866.3,739.2,838.7,739.2z"/>
	<path class="st1" d="M241.5,142c-27.6,0-51.3,9.9-71,29.6c-19.3,19.3-29,42.8-29,70.4c0,27.6,9.7,51,29,70.4
		c19.8,19.8,43.4,29.6,71,29.6c27.6,0,51.1-9.7,70.4-29c19.8-19.8,29.6-43.4,29.6-71s-9.9-51.3-29.6-71
		C292.6,151.7,269.1,142,241.5,142z"/>
	<path class="st1" d="M241.5,739.2c-27.6,0-51,9.7-70.4,29c-19.8,19.8-29.6,43.4-29.6,71c0,27.6,9.7,51.1,29,70.4
		c19.8,19.8,43.4,29.6,71,29.6c27.6,0,51.3-9.9,71-29.6c19.3-19.3,29-42.8,29-70.4c0-27.6-9.9-51.3-29.6-71
		C292.6,748.9,269.1,739.2,241.5,739.2z"/>
	<path class="st1" d="M838.7,342.1c27.6,0,51.3-9.9,71-29.6c19.4-19.4,29-42.8,29-70.4c0-27.6-9.9-51.3-29.6-71
		c-19.3-19.3-42.8-29-70.4-29c-27.6,0-51,9.7-70.4,29c-19.8,19.8-29.6,43.4-29.6,71c0,27.6,9.7,51.1,29,70.4
		C787.5,332.2,811.1,342.1,838.7,342.1z"/>
</g>
</svg>
