<?xml version="1.0" encoding="utf-8"?>
<!-- Generator: Adobe Illustrator 19.1.0, SVG Export Plug-In . SVG Version: 6.00 Build 0)  -->
<!DOCTYPE svg PUBLIC "-//W3C//DTD SVG 1.1//EN" "http://www.w3.org/Graphics/SVG/1.1/DTD/svg11.dtd">
<svg version="1.1" id="Layer_1" xmlns="http://www.w3.org/2000/svg" xmlns:xlink="http://www.w3.org/1999/xlink" x="0px" y="0px"
	 viewBox="290 -290 1080 1080" style="enable-background:new 290 -290 1080 1080;" xml:space="preserve">
<style type="text/css">
	.st0{fill:#D3E6EA;}
	.st1{fill:#B0D3DF;}
</style>
<g>
	<path class="st0" d="M830.6-271.6c-28,0-51.7,9.8-71.2,29.3s-29.3,43.2-29.3,71.2c0,27.4,9.7,50.8,29.3,70.3
		c19.5,19.5,43.2,29.3,71.2,29.3c27.3,0,50.8-9.8,70.3-29.3s29.2-42.9,29.2-70.3c0-27.9-9.7-51.7-29.2-71.2
		C881.3-261.9,857.9-271.6,830.6-271.6z"/>
	<path class="st0" d="M830.6,572.9c-27.9,0-51.7,9.8-71.2,29.3s-29.3,43.2-29.3,71.2c0,27.4,9.8,50.8,29.3,70.3
		c19.5,19.5,43.2,29.3,71.2,29.3c27.4,0,50.8-9.8,70.3-29.3s29.3-42.9,29.3-70.3c0-27.9-9.8-51.7-29.3-71.2
		C881.4,582.7,857.9,572.9,830.6,572.9z"/>
	<path class="st0" d="M1323.1,179.9c-19.5-19.5-43.2-29.3-71.2-29.3c-27.4,0-50.8,9.7-70.3,29.3c-19.5,19.5-29.3,43.2-29.3,71.2
		c0,27.3,9.8,50.8,29.3,70.3s42.9,29.2,70.3,29.2c27.9,0,51.7-9.7,71.2-29.2s29.3-43,29.3-70.3
		C1352.4,223.1,1342.6,199.4,1323.1,179.9z"/>
	<path class="st0" d="M507.8,251.1c0-27.9-9.8-51.7-29.3-71.2s-43.2-29.3-71.2-29.3c-27.4,0-50.8,9.8-70.3,29.3
		s-29.3,43.2-29.3,71.2c0,27.4,9.8,50.8,29.3,70.3s42.9,29.3,70.3,29.3c27.9,0,51.7-9.8,71.2-29.3
		C498.1,301.9,507.8,278.4,507.8,251.1z"/>
	<path class="st1" d="M1128.7,449.2c-27.6,0-51.3,9.9-71,29.6c-19.3,19.3-29,42.8-29,70.4c0,27.6,9.7,51,29,70.4
		c19.8,19.8,43.4,29.6,71,29.6c27.6,0,51.1-9.7,70.4-29c19.8-19.8,29.6-43.4,29.6-71s-9.9-51.3-29.6-71
		C1179.8,458.9,1156.3,449.2,1128.7,449.2z"/>
	<path class="st1" d="M531.5-148c-27.6,0-51.3,9.9-71,29.6c-19.3,19.3-29,42.8-29,70.4s9.7,51,29,70.4c19.8,19.8,43.4,29.6,71,29.6
		c27.6,0,51.1-9.7,70.4-29c19.8-19.8,29.6-43.4,29.6-71s-9.9-51.3-29.6-71C582.6-138.3,559.1-148,531.5-148z"/>
	<path class="st1" d="M531.5,449.2c-27.6,0-51,9.7-70.4,29c-19.8,19.8-29.6,43.4-29.6,71s9.7,51.1,29,70.4
		c19.8,19.8,43.4,29.6,71,29.6c27.6,0,51.3-9.9,71-29.6c19.3-19.3,29-42.8,29-70.4c0-27.6-9.9-51.3-29.6-71
		C582.6,458.9,559.1,449.2,531.5,449.2z"/>
	<path class="st1" d="M1128.7,52.1c27.6,0,51.3-9.9,71-29.6c19.4-19.4,29-42.8,29-70.4s-9.9-51.3-29.6-71
		c-19.3-19.3-42.8-29-70.4-29c-27.6,0-51,9.7-70.4,29c-19.8,19.8-29.6,43.4-29.6,71s9.7,51.1,29,70.4
		C1077.5,42.2,1101.1,52.1,1128.7,52.1z"/>
</g>
</svg>
