<?xml version="1.0" encoding="UTF-8" standalone="no"?>
<svg width="75px" height="100px" viewBox="0 0 75 100" version="1.1" xmlns="http://www.w3.org/2000/svg" xmlns:xlink="http://www.w3.org/1999/xlink" xmlns:sketch="http://www.bohemiancoding.com/sketch/ns">
    <!-- Generator: Sketch 3.4.4 (17249) - http://www.bohemiancoding.com/sketch -->
    <title>Castle Icon</title>
    <desc>Created with Sketch.</desc>
    <defs></defs>
    <g id="Page-1" stroke="none" stroke-width="1" fill="none" fill-rule="evenodd" sketch:type="MSPage">
        <g id="Castle-Icon" sketch:type="MSLayerGroup">
            <g id="Flag" transform="translate(35.312446, 0.000000)" sketch:type="MSShapeGroup">
                <rect id="Rectangle-5" fill="#454553" x="0" y="0" width="3.4620045" height="20.772027"></rect>
                <rect id="Rectangle-6" fill="#FF556F" x="0" y="0" width="18.6948243" height="11.7708153"></rect>
                <rect id="Rectangle-6-Copy" fill="#FF556F" x="9.0012117" y="2.7696036" width="15.9252207" height="11.7708153"></rect>
                <path d="M18.6904292,11.8343755 L9.06358864,14.5522519 L9.00695917,11.8091881 L18.6904292,11.8343755 Z" id="Path-3" fill="#CE4358"></path>
            </g>
            <path d="M0.047525285,20.1441523 L8.34261944,20.1269582 L8.34261944,28.4201421 L16.6583767,28.4201421 L16.6583767,20.0836565 L24.9594943,20.0836565 L24.9594943,28.3790076 L33.2848709,28.3790076 L33.2848709,20.1137503 L41.5834041,20.1137503 L41.5834041,28.4131515 L49.8855989,28.4131515 L49.8855989,20.1437846 L58.2320375,20.1437846 L58.2320375,28.4639864 L66.4963436,28.4639864 L66.4963436,20.148677 L74.8307304,20.148677 L74.8307304,41.5471383 L0.0164078218,41.5471383 L0.0164078218,20.855383 L0.047525285,20.1441523 Z" id="Path-1" fill="#B0D3DF" sketch:type="MSShapeGroup"></path>
            <path d="M6.924009,41.544054 L6.924009,99.6579984 L67.9256351,99.6579984 L67.9256351,41.6414332 L6.924009,41.544054 Z" id="Path-2" fill="#B0D3DF" sketch:type="MSShapeGroup"></path>
            <rect id="Rectangle-1" fill="#61789B" sketch:type="MSShapeGroup" x="6.924009" y="41.544054" width="61.0005182" height="4.8468063"></rect>
            <g id="Rectangle-2-+-Rectangle-2-Copy" transform="translate(27.003635, 74.086896)" sketch:type="MSShapeGroup">
                <rect id="Rectangle-2" fill="#718CB5" x="0" y="0" width="20.772027" height="7.6164099"></rect>
                <rect id="Rectangle-2-Copy" fill="#61789B" x="0" y="7.6164099" width="20.772027" height="4.1544054"></rect>
            </g>
            <path d="M45.6700199,61.6236801 C45.3181757,57.3588156 41.7453099,54.0072702 37.3896486,54.0072702 C33.0339873,54.0072702 29.4611215,57.3588156 29.1092773,61.6236801 L29.0808378,61.6236801 L29.0808378,74.0868963 L45.6984594,74.0868963 L45.6984594,61.6236801 L45.6700199,61.6236801 Z" id="Oval-1" fill="#454553" sketch:type="MSShapeGroup"></path>
        </g>
    </g>
</svg>