<?xml version="1.0" encoding="utf-8"?>
<!-- Generator: Adobe Illustrator 20.1.0, SVG Export Plug-In . SVG Version: 6.00 Build 0)  -->
<!DOCTYPE svg PUBLIC "-//W3C//DTD SVG 1.1//EN" "http://www.w3.org/Graphics/SVG/1.1/DTD/svg11.dtd">
<svg version="1.1" id="Layer_1" xmlns="http://www.w3.org/2000/svg" xmlns:xlink="http://www.w3.org/1999/xlink" x="0px" y="0px"
	 viewBox="0 0 542 461" style="enable-background:new 0 0 542 461;" xml:space="preserve">
<style type="text/css">
	.st0{fill:#F2F2EF;}
</style>
<path class="st0" d="M10,178.1c1.1,1.1,0.9,2.4,0.9,3.6c0.1,6.7,0.7,13.3,2.2,19.7c1.2,5,2.6,10,5.2,14.6c3.3,5.7,7.7,10.3,13,14.2
	c3.5,2.6,6.5,5.7,7.3,10.3c0.2,1.2,0.3,2.5,0.4,3.9c3.1,0.5,5,2.6,6.9,4.8c2.2,2.7,4.3,5.3,7.2,7.4c1.8,1.3,3.7,2.2,5.8,2.7
	c1.6,0.4,2.9,0.4,4.5-0.7c2.3-1.6,5.1-1.3,7.6-0.5c3.7,1.2,7.4,2.6,10.9,4.2c7.3,3.4,14.7,6.6,22.5,8.7c7.2,2,14.6,2.8,22,3.1
	c2.7,0.1,5.4,0.2,8-0.7c-0.2-1.5-0.6-3.1-0.6-4.6c0-3.2,1.4-4.9,4.4-5.8c1.4-0.4,2.7-0.8,4.1-1.3c0.2-0.1,0.4-0.3,0.8-0.6
	c-0.6-0.1-1-0.2-1.4-0.2c-11.5,1.3-22.7,0.2-33.5-4.1c-4.6-1.9-8.9-4.7-13.3-7.2c-2.5-1.4-4.9-3.1-7.3-4.6c-5-3.2-7.9-5.6-10.6-11.4
	c-0.1,0-0.3-0.1-0.4,0c-3.6,3.1-7.8,3.2-12,2.2c-7.7-1.8-14.7-4.8-20.5-10.4c-2.6-2.5-4.9-5.3-6.5-8.6c-2.9-5.9-5.4-12-6-18.6
	c-0.2-2-0.2-4,0-6c0.1-1.2,0.8-2.4,1.4-3.7c0,0.1,0-0.1-0.1-0.2c-5.3-7.2-7.1-15.6-8.4-24.2c-0.2-1.3,0-2.7,0-4.1
	c0-0.9,0-1.8-0.1-2.6c-0.3-1.9-0.2-2,1.8-3c1,0.6,1.4,2.2,3.1,2.1c0-0.5,0.1-1.1-0.1-1.5c-2.6-7.2-2.2-14.6-1.1-22.1
	c0.4-2.7,0.7-5.4,1.3-8c0.5-2.6,0.8-2.7,3.4-1.9c0.3,0.1,0.6,0.2,1.1,0.4c0.1-1.9,0.1-3.7,0.3-5.4c0.3-3.2,0.6-6.4,1.1-9.5
	c0.2-1.2,0.7-2.5,1.3-3.6c0.8-1.8,1.6-1.9,3-0.4c0.2,0.2,0.3,0.6,0.4,0.9c1.6-3.3,3-6.3,4.5-9.2c2-3.8,4.8-6.6,9.3-7.4
	c-0.2-0.7-0.3-1.4-0.5-2.1c-0.3-0.9-0.4-1.9,0.2-2.8c0.3-0.4,0.4-0.9,0.5-1.3c0.9-6.3,3.2-12,6.4-17.4c2.7-4.5,5-9.3,7.7-13.8
	c1.8-3.2,3.8-6.3,5.7-9.4c2.2-3.6,5.1-6.6,8.5-9c1-0.8,2.1-1.4,3.1-2.2c1.2-1,2.5-1.7,4.1-1c0.4,0.1,1,0,1.3-0.2
	c1.2-0.8,2.4-1.6,3.5-2.5c1.5-1.4,3.2-2.2,5.1-2.3c2.8-0.2,4.5-2,6-3.9c0.9-1.2,1.9-2,3.3-2.7c1.7-0.8,3.3-1.9,5-2.9
	c2.6-1.6,5.1-3.3,7.8-4.7c1.6-0.9,3.3-1.6,5-2.2c5.8-2,11.5-4.3,17.5-5.9c9.7-2.5,19.6-3.2,29.5-1.8c4.3,0.6,8.4,1.9,12.6,2.9
	c2.3,0.6,4.6,1.4,6.9,2c3.5,0.9,6.5,2.7,9.1,5.2c2.1,2,4.1,4.1,6,6.2c1.3,1.4,1.3,1.8,1.4,3.5c-0.5,0-1.1,0.2-1.6,0.1
	c-4.2-0.9-8.4-2.1-12.6-2.7c-4.8-0.7-9.7-1-14.5-1.5c-0.4,0-0.8,0-1.2,0.1c-2.1,0.8-4.3,1.1-6.7,0.3c-0.8,1.7-1.4,3.3-2.2,4.9
	c-0.6,1.3-1.3,2.7-3.2,2.1c-0.3-0.1-0.7,0.2-1.1,0.3c-1.2,0.3-2.4,0.8-3.7,1c-1.2,0.2-2,0.5-2.5,1.8c-1.1,3.2-3.1,5.3-6.8,5.4
	c-1.6,0.1-2.8,1-3.4,2.7c-0.3,1-0.8,1.9-1.5,2.7c-1,1.2-2.1,2.3-4,2c-1.6-0.2-2.9,0.5-3.8,2c-1.3,2.2-2.9,4.2-4.2,6.4
	c-2.2,3.9-5.2,7.1-9,9.4c-0.5,0.3-0.9,0.6-1.5,1c1.6,1.4,3,2.6,5,3c3.5,0.7,7,1.4,10.6-0.3c1.7-0.8,3.1,0.1,4,1.8
	c0.9,1.8,1.8,3.6,2.9,5.2c1.7,2.4,4,2.8,6.5,1.3c1.7-1.1,3.2-2.3,4.7-3.6c1.5-1.3,2.1-1.4,3.4,0c2,2.1,4.5,3.2,7.3,4
	c1.8,0.5,3.1,0,4.1-1.6c0.8-1.2,1.4-2.5,2.1-3.8c0.9-1.5,1.9-2.7,3.9-2.7c0.7,0,1.4-0.3,2.1-0.2c1.7,0.1,3.5,0.7,4.9,0.2
	c1.5-0.5,3-1.3,4.5-1.9c2.1-0.9,4.1-2.1,5.9-3.5c3.8-2.9,7.1-6.2,9.4-10.5c0.8-1.5,1.9-2.7,2.9-4.2c1,0.6,1,1.5,1.1,2.3
	c0.5,3.3-0.4,6.4-1.3,9.4c-3.6,11.3-9.6,21.1-18.5,29c-0.4,0.4-0.8,0.9-1.3,1c-2.2,0.6-2.8,2.3-3.3,4.3c-0.1,0.5-0.3,0.9-0.5,1.4
	c-3.1,6-6.4,11.8-11.3,16.6c-6.1,5.9-12.8,10.9-20.1,15c-3,1.7-6.1,3.1-9.3,4.4c-5.1,2-10.3,3.8-15.5,5.7c-5,1.8-10.1,3.1-15.6,3.4
	c0.8,11.6-4.7,19.6-15.1,25.1c0.8,0,1.2,0.1,1.5,0.1c0.4-0.1,0.7-0.2,1.2-0.4c1.3,1.7,1.6,3.6,0.5,5.4c-2.5,4.1-5.1,8.2-9.9,10
	c-0.1,0-0.2,0.2-0.3,0.4c0.2,0.1,0.4,0.2,0.7,0.2c2.2,0.1,3.2,1.5,2.2,3.5c-0.8,1.8-1.8,3.5-3.4,4.8c-3.7,3.2-6.9,6.9-7.5,12.1
	c-0.1,0.6-0.1,1.3-0.2,1.9c0,0.2,0.1,0.4,0.1,0.9c0.4-0.3,0.7-0.5,1-0.8c2.7-2.6,5.5-5.1,8.9-6.7c1.8-0.8,3.4-1.8,4.1-3.7
	c0.3-0.7,0.8-1.4,1.3-2c1.3-1.5,2.5-1.4,3.6,0.3c1,1.6,2.4,2.7,4.1,3.5c0.5,0.2,1,0.3,1.7,0.4v-2.6c0.1-0.9,0.1-1.8,0.3-2.6
	c0.6-2.2,2-2.6,3.7-1.2c0.8,0.7,1.5,1.5,2.2,2.2c0.7,0.6,1.4,1.3,2.4,2.2c0.2-1,0.3-1.7,0.4-2.3c0.5-2.6,2.5-3.3,4.5-1.6
	c2.4,2,4.8,4,8,5.1c0.2-1.3,0.2-2.4,0.5-3.5c0.2-0.8,0.5-1.7,1-2.4c0.9-1.2,2.4-1,2.8,0.3c1,3.1,3.7,3.6,6.5,5.3
	c-0.2-2.3-0.2-4.1-0.4-5.9c-0.3-3.7-0.6-7.3,0.7-10.9c0.6-1.6,1.5-2.6,3.4-2.4c1.9,2.7,3.3,3.3,5.8,2.6c0-2.5-0.1-5,0-7.4
	c0.1-3.6,1.3-6.9,2.7-10.1c0.2-0.5,0.6-1,0.9-1.4c1.4-1.6,2.3-1.5,3.6,0.2c1.5,2.2,3.5,3.4,6.2,4c0.1-0.7,0.1-1.3,0.2-1.9
	c0.2-3.5,1.5-6.7,3.6-9.5c0.4-0.6,0.9-1.1,1.5-1.5c1.9-1.5,3.7-1.3,4.9,0.8c1.4,2.6,3.6,2.8,6.2,2.7c0.5-1.7,0.9-3.4,1.5-5.1
	c0.6-1.8,1.3-3.6,2-5.4c0.2-0.6,0.6-1.2,1-1.6c1.1-1.3,2-1.3,3.1,0c1,1.1,1.9,2.3,3.1,3.8l0.4-1.6c0.5-4.5,2.8-8.1,5.5-11.5
	c1-1.2,2.4-1.5,3.8-1.8c0.5-0.1,1.2,0.4,1.5,0.8c0.5,0.6,0.7,1.4,1,2.2c0.4,1,1,1.8,2.3,2.2c0.1-0.3,0.3-0.6,0.3-0.9
	c0.1-4,1.7-7.4,3.7-10.8c0.8-1.4,2-2.2,3.7-2.3c1.3-0.1,1.8,1.1,2.6,1.7c0.4-2,0.7-3.9,1.3-5.7c1.6-4.5,4.7-7.4,9.3-9
	c3.8-1.3,6.7,0.3,9.5,2.4c0.9,0.7,1.7,1.4,2.7,2.3c1.1-1.4,2.4-1.7,4.2-1.4c3.1,0.4,5.8,1.6,8.7,3.2c0.4-1.2,0.8-2.3,1.2-3.4
	c1-2.6,3-3.2,5.3-1.5c1.2,0.8,2.3,1.7,3.6,2.4c1.7,1,3.5,0.6,4.5-1.1c1.1-1.9,2-4,3-6c0.6-1.2,1.3-2.1,3-2.1c1.6,0.1,2,1,2.6,2
	c1,2,1.9,4,3,6c1,1.8,2.7,2.2,4.5,1.2c1.2-0.7,2.3-1.4,3.4-2.3c2.6-2,4.6-1.4,5.7,1.7c0.3,1,0.7,1.9,1.1,3c3.9-2.1,7.7-3.9,12.4-2.9
	c4.5-4.1,9.7-5.7,15.4-2.3c5.1,3,8.2,7.5,7.3,14.1c0.5-0.4,0.7-0.5,0.9-0.6c1.8-2.2,4.2-2.2,5.8,0.3c2.1,3.3,3.7,6.7,3.9,10.7
	c0,0.3,0.1,0.6,0.2,0.9c0,0.1,0.1,0.1,0.2,0.3c1.1-0.1,1.5-0.9,2-1.7c0.2-0.3,0.2-0.6,0.4-0.9c0.5-0.8,1.1-2.3,1.7-2.4
	c1.2-0.1,2.6,0.6,3.8,1.1c0.4,0.2,0.7,0.6,1,1c2.5,3.5,4.9,7.1,5.2,11.7c0,0.2,0.1,0.4,0.4,1c0.9-1.1,1.6-2,2.3-2.9
	c2-2.5,3.4-2.5,4.6,0.4c1.3,3,2.2,6.2,3.2,9.3c0.2,0.5,0.3,1,0.5,1.6c2.5,0,4.6-0.1,6-2.6c1.4-2.4,3.5-2.5,5.5-0.4
	c2.3,2.4,3.7,5.2,4.2,8.5c0.2,1.2,0.3,2.5,0.4,3.9c2.2-0.3,4-1.2,5.4-2.8l1.2-1.5c0.9-1.1,1.6-1.3,2.6-0.4c0.9,0.9,1.7,2,2.1,3.1
	c2,4.9,2.8,10,2,15.3c0,0.3-0.1,0.6-0.1,0.9c2.6,1.1,4.4,0.4,5.9-2.2c2.3,0,2.8,0.3,3.5,2.3c1.4,3.6,1,7.2,0.7,10.9
	c-0.2,1.7-0.2,3.5-0.4,5.3c2.8-0.3,5.3-2.1,6.4-4.5c0.7-1.5,2-1.7,2.9-0.5c0.5,0.6,0.8,1.4,0.9,2.2c0.3,1.1,0.4,2.3,0.5,3.6
	c2.3-0.6,4-1.8,5.7-3.1c0.8-0.6,1.6-1.4,2.4-2c1.8-1.5,3.8-0.8,4.3,1.5c0.2,0.7,0.2,1.4,0.4,2.5c0.9-0.7,1.6-1.2,2.2-1.8
	c1-0.9,1.9-2,3-2.8c1.4-1.1,2.6-0.7,3.2,1c0.3,1,0.4,2,0.5,3c0.1,0.8,0,1.6,0,2.6c2.6-0.4,4.3-1.9,5.6-3.8c1.4-2,2.5-2.1,4-0.2
	c0.4,0.5,0.8,1,1.1,1.6c0.7,2,2.4,2.9,4.1,3.7c1.8,0.9,3.5,1.8,4.9,3.3s3.2,2.5,4.8,3.7c0.5-1.6,0-4.9-1.2-7
	c-1.7-3.1-3.9-5.7-6.6-7.9c-1.7-1.3-2.5-3.1-3.2-5c-0.7-1.7,0.4-2.9,2.4-3c0.2,0,0.4-0.1,1.3-0.3c-4.5-1-6.4-4.2-8.8-7
	c-0.7-0.8-1.3-1.8-1.8-2.8c-1.3-2.4-1.2-3,0.1-5.7c0.8,0.1,1.6,0.2,2.4,0.2c-9.9-5.6-15.4-13.5-14.6-25.2c-5.7-0.3-10.8-1.8-16-3.5
	c-7.1-2.3-14-4.9-20.7-8.1c-4.5-2.2-8.8-5-12.9-7.8c-3.3-2.3-6.2-5-9.3-7.6c-4-3.4-7-7.6-9.7-12.1c-1.7-3-3.6-5.9-4.3-9.3
	c-0.1-0.6-0.8-1.1-1.3-1.5c-1.2-0.9-2.5-1.7-3.6-2.7c-4.6-4.4-8.9-9.2-11.9-14.9c-2.8-5.5-5.4-11.1-6.7-17.2c-0.5-2.5-0.6-5,0.5-8
	c1.3,1.8,2.5,3.2,3.4,4.7c3.2,5.7,8,9.7,13.4,13.1c0.7,0.4,1.5,0.6,2.2,0.9c0.7,0.2,1.6,0.2,2,0.6c1.6,1.5,3.4,1.1,5.3,0.9
	c1.7-0.2,3.6,0,5.2,0.5c0.9,0.3,1.7,1.3,2.4,2.2c0.8,1.2,1.4,2.5,2.1,3.7c1.2,1.9,2.3,2.3,4.5,1.7c2.6-0.7,5.1-1.8,7-3.9
	c1.3-1.4,2-1.2,3.4,0c1.6,1.4,3.3,2.7,5.1,3.9c2,1.3,4.3,0.9,5.7-1.1c1.3-1.7,2.3-3.7,3.2-5.6c0.9-1.7,2.3-2.6,4-1.8
	c3.7,1.8,7.4,1,11,0.2c1.6-0.3,2.7-1.2,4.4-3c-0.9-0.6-1.8-1.3-2.7-1.9c-2.9-1.8-5.1-4.3-6.9-7.2c-1.6-2.6-3.4-5.2-5.1-7.8
	c-0.8-1.2-1.8-1.9-3.2-1.8c-3,0.3-4.7-1.5-5.6-3.9s-2.4-3.6-4.9-3.7c-2.8-0.2-4.5-2.1-5.3-4.6c-0.6-1.8-1.6-2.5-3.5-2.5
	c-0.8,0-1.7-0.4-2.5-0.7c-0.5-0.2-1.1-0.7-1.5-0.5c-1.9,0.5-2.6-0.8-3.2-2.1c-0.8-1.6-1.4-3.2-2.2-4.9c-2.3,0.7-4.4,0.6-6.5-0.2
	c-0.6-0.2-1.3-0.2-1.9-0.2c-6.2,0.7-12.4,0.7-18.5,2.5c-2.8,0.8-5.8,1.2-8.7,1.8c-0.3,0.1-0.7-0.1-1.4-0.3c0.4-0.9,0.5-1.8,1-2.4
	c3.3-4.3,7.1-8.3,12-10.9c1-0.6,2.2-1,3.3-1.3c3.9-1.1,7.8-2.2,11.8-3.3c5.6-1.6,11.4-2.4,17.3-2.4c7.1-0.1,14.1,0.7,20.9,2.5
	c4.3,1.1,8.4,2.9,12.7,4.4l3.9,1.2c4.3,1.2,7.9,3.9,11.7,6c2.5,1.4,5,2.9,7.4,4.4c0.7,0.5,1.4,1.1,2,1.7c0.8,0.8,1.6,1.8,2.4,2.6
	c1.1,1.1,2.4,1.7,4,1.8c1.9,0.2,3.7,0.9,5.2,2.3c1,1,2.2,1.8,3.5,2.5c0.5,0.3,1.2,0.3,1.8,0.1c1.2-0.3,2.2,0,3.1,0.7
	c1.4,1.1,2.8,2.1,4.3,3.1c3.5,2.6,6.4,5.8,8.5,9.6c1.4,2.5,3.1,4.9,4.5,7.4c2.5,4.4,4.9,9,7.5,13.4c2.5,4.1,4.5,8.5,5.9,13.1
	c0.5,1.8,0.9,3.6,1.3,5.4c0.1,0.3,0,0.7,0.1,0.9c1.3,1.8,0.7,3.6,0,5.6c1.2,0.4,2.4,0.6,3.4,1.2c2.4,1.3,4.4,3.2,5.7,5.7
	c1.6,3.1,3.1,6.3,4.7,9.4c0,0,0.2,0,0.3-0.1c1.3-2.4,2.8-1.4,3.6,0.6c1.5,3.6,1.7,7.5,2,11.3c0.2,2.1,0.2,4.3,0.3,6.5
	c0.7-0.2,1.3-0.3,1.8-0.5c1.7-0.5,2.1-0.4,2.6,1.3c0.4,1.7,0.8,3.4,1,5.2c0.5,4.3,0.9,8.6,1.3,12.9c0.3,3.8-0.4,7.5-1.5,11.1
	c-0.3,1-0.5,2-0.8,3.1c1.9,0.4,2.3-1.3,3.3-2c2.1,0.9,2.1,1.1,1.9,3c-0.1,0.7-0.2,1.4-0.1,2.1c0.5,4.1-0.3,8-1.3,11.9
	c-0.7,2.7-1.4,5.5-2.4,8c-1.3,3.2-3,6.2-4.6,9.5c2.2,3.2,1.7,7.2,1,11.2c-1.4,7.9-4.1,15.3-9,21.7c-4.5,6-10.6,9.8-17.6,12.3
	c-2.4,0.8-4.9,1.4-7.4,1.9c-3.9,0.8-7.6,0.3-10.8-2.7c-0.4,0.7-0.7,1.2-0.9,1.8c-1.7,3.8-4.6,6.6-8,8.7c-6.5,4.1-13.1,8-19.7,11.8
	c-1.6,1-3.5,1.6-5.3,2.2c-5.3,1.6-10.6,3.1-16.2,3.3c-4.5,0.1-8.9,0-13.4,0h-1c-0.1,0-0.2,0.2-0.5,0.4c0.4,0.3,0.7,0.6,1,0.7
	l2.1,0.6c4.2,1.2,5.9,4.1,4.9,8.4l-0.6,2.1c2.6,1.1,5.2,0.9,7.9,0.9c10.7-0.2,21.1-2.1,31.2-5.9c4.2-1.6,8.2-3.5,12.3-5.3
	c3.9-1.6,7.8-3.4,11.8-4.7c3.1-1,6.2-1.2,9.1,1c0.6,0.5,1.8,0.4,2.7,0.2c3.8-0.6,6.8-2.7,9.4-5.4c1.5-1.5,2.9-3.2,4.3-4.9
	c1.9-2.2,3.7-4.4,6.8-4.8c0.1-0.4,0.2-0.6,0.2-0.9c-0.1-6,3.1-10.1,7.6-13.4c8.4-6,14-13.8,16.9-23.7c2.4-8.1,3.4-16.4,3.6-24.8
	c0-1.2-0.2-2.6,0.9-3.6c1.8,0.2,3,1.3,4,2.8c2.5,3.6,3.6,7.6,4,11.9c0.8,11.8-1.1,23.1-5.6,34c-1.8,4.4-3.5,8.7-5.9,12.8
	c-2.1,3.4-4.5,6.6-7.6,9.5c1.4,3.4-0.1,6.2-2.2,8.9c-3.6,4.6-8,8.1-13.1,11.1c-4.7,2.7-9.3,5.3-14.5,6.9c-2.4,0.7-4.8,1.2-7.2,1.7
	c-1.1,0.2-1.9,0.4-2.5,1.5c-1.7,2.9-4,5.2-7.7,5.3c-0.3,0-0.6,0.2-0.9,0.3c-6.1,2.3-12.1,4.6-18.2,6.8c-5.8,2.1-12,2.8-18.1,3.3
	c-6.4,0.5-12.8,0.9-19.2,1.2c-5.3,0.3-10.5-0.1-15.7-1.2c-0.7-0.1-1.4-0.4-2.2-0.6c-0.9,0.8-1.8,1.5-2.7,2.3c-2,1.7-4.3,2.5-6.9,2.3
	c-0.3,0-0.7-0.2-0.9-0.1c-2,1.4-3.8,0.3-5.8-0.5c-0.8,0.7-1.6,1.4-2.8,2.5c4.7-0.3,8.9-0.5,13-0.7c1.6-0.1,3.2,0.1,4.8,0.1
	c1.9,0,3.8-0.1,5.7-0.3c6.8-0.7,13.6-0.3,20.3,0.2c5.9,0.5,11.8,1.2,17.6,1.8c4.5,0.4,8.9,0.8,13.4,1.3c0.5,0,1,0.1,1.4,0.1
	c3.4,0.3,6,1.7,6.9,5.4c2-0.3,3.8-0.1,5.6,0.8c3.4,1.8,4.8,4.9,6.1,8.2c0.5,1.3,1,2.7,1.7,3.9c3.3,5.3,6.8,10.4,10.1,15.7
	c3.7,6.1,7.2,12.2,9.6,19c0.8,2.3,1.1,4.8,0.4,7.1c-0.8,2.7-0.7,5.2,0.2,7.7c0.9,2.6,0.8,5.2,1,7.8c0.3,7.9-1.1,15.4-3.6,22.9
	c-1.5,4.3-4,8-7.2,11.2c-0.6,0.6-1.3,1.2-2.1,1.5c-0.6,0.2-1.4,0.2-1.9-0.1c-0.3-0.1-0.3-1.1-0.1-1.7c1-3.3,2.3-6.5,2.9-9.8
	c1.3-7.2,1.2-14.5-1.3-21.5c-0.5-1.4-1.5-2.7-2.4-3.8c-2.2-2.7-3.5-5.5-2.1-9c0.4-1.1-0.1-1.9-1.5-2.6c-0.9-0.5-1.9-0.9-2.8-1.4
	c-1.7-1.1-2.8-2.6-2.6-4.8c0-0.4,0-0.8-0.2-1.1c-2.2-7-5.2-13.7-8.9-20.1c-1.9-3.3-4.1-6.5-6.9-9.2c-0.7-0.7-1.5-1.5-2-2.3
	s-0.8-1.7-1.2-2.6c-0.1,0-0.3-0.2-0.4-0.1c-3.3,2.1-6.7,1.1-9.9,0.1c-3.6-1.1-7.2-2.1-10.9-2.6c-2.3-0.3-4.5-1.1-6.8-1.4
	c-3.6-0.4-7.2-0.8-10.7-0.9c-6.4-0.3-12.8-0.5-19.2-0.5c-4.3,0-8.7,0.3-12.8,1.7c-2.8,1-5.5,2.3-8.2,3.9c3,0.5,6.1,1,9.1,1.5
	c1.7,0.3,3.5,0.5,5.2,0.8c4.8,1,9.7,2,14.5,3.3c3.9,1.1,7.7,2.7,11.5,4c0.7,0.3,1.5,0.6,2.3,0.7c3.4,0.4,4.7,1.4,5.4,4.7
	c0.1,0.4,0.2,0.8,0.2,1.1c4.3,0,7.6,1.7,9.9,5.3c3,4.7,6,9.4,8.9,14.2c2,3.4,3.9,6.8,5.8,10.2c2.1,3.7,3.1,7.7,3.5,11.9
	c0.3,3.1-0.7,5.9-2.3,8.4c-0.6,0.9-0.9,1.8-0.8,2.9c0.5,8.4-1.4,16.3-5.3,23.8c-2.5,4.6-6,8.3-9.6,11.9c-1.6,1.7-3.6,2.9-5.9,3.5
	c-0.6,0.2-1.3,0.4-1.9,0.2c-0.6-0.1-1.5-0.5-1.7-1s0.3-1.3,0.6-1.8s0.9-0.9,1.4-1.3c3.1-2.8,5.1-6.4,6.2-10.3
	c1-3.5,1.8-7.1,2.4-10.7c0.3-1.8,0.1-3.7,0-5.5c-0.1-1.5-0.3-3-0.4-4.5c-0.2-3.5-1.9-6.4-3.7-9.2c-1.2-1.8-1.8-3.7-1.9-5.8
	c-0.3-5.9-2.5-11.1-5.1-16.3c-1.9-3.7-4.5-6.7-7.3-9.7c-0.2-0.2-0.4-0.6-0.6-0.7c-4.6-1.8-8.4-5.2-13.1-6.9
	c-2.2-0.7-4.4-1.6-6.6-1.9c-9.6-1.2-19.3-1.2-28.9,0.3c-1.6,0.3-3.1,0.8-4.7,1.1c-3.6,0.8-7.1,1.8-10.7,2.4c-4.6,0.8-8.5-0.7-12-3.6
	c-1.3-1.1-3-1.3-4-0.3c-2.2,2-4.5,4.1-6.8,6.2c1,0.6,2.2,1.1,3.2,1.9s1.8,1.8,2.7,2.8c0.4-0.2,0.8-0.4,1.1-0.6
	c2.8-2.6,6.2-3.5,10-3.2c4.9,0.5,9.6,1.5,14.1,3.6c1.4,0.6,2.7,1.5,3.8,2.4c2.9,2.6,5.7,5.3,8.6,8c4.3,4,7.4,8.8,10,14
	c1.7,3.2,2.5,6.7,2.7,10.4v3.3c0.5,0.2,0.7,0.2,0.9,0.3c3.7,1,5.2,3,5.7,6.8c0.7,5.3-0.9,10.1-3.5,14.7c-2.1,3.7-5,6.4-8.9,8.1
	c-0.5,0.2-1,0.5-1.6,0.6c-2.2,0.3-3.1,1.5-3.1,3.7c-0.1,3.6-1.7,6.8-3.4,9.9c-2.2,4.2-5.1,7.9-8.8,10.9c-2.5,2-5.4,2.8-8.5,2.9
	c-1.7,0-3.5-0.2-5.5-0.3c-0.2,0.4-0.5,0.9-0.8,1.4c-1.8,3.2-4.5,5.1-8.2,5.6c-5,0.7-10,0.5-15-0.8c-7.6-2.1-13.4-6.8-18.4-12.5
	c-2.6-3-4.6-6.6-4.1-10.9c0.3-3.3,1.5-6.1,4.1-8.1c8-6.3,17.1-8.3,27.1-6.4c3,0.6,5.5,2.6,7.6,4.7c0.4,0.4,0.8,0.9,1.4,1.5
	c2.2-2.8,5.3-3.6,8.5-4.1c1.9-0.3,3.6-0.9,5.1-2.4c1.1-1,2.5-1.7,3.9-2.2c1-0.4,1.6-0.8,2.1-1.7c0.6-1,1.7-1.9,2.6-2.7
	c0.7-0.6,1.5-0.9,2.2-1.4c2.1-1.4,3.2-3.2,3-5.8c-0.1-1.4,0.4-2.8,0.7-4.4c-3.4-1.8-5.7-5-8.2-7.9c-1.4-1.6-3.1-2.9-5.2-3.8
	c-1.6-0.7-3-1.9-4.6-2.5c-2.5-1.1-5-2.2-7.6-2.7c-3.4-0.7-6.6-1.7-9.4-3.5c-2.6-1.6-4.6-4.1-7.1-6.5c-0.2,0.1-0.8,0.3-1.4,0.6
	c-4,1.5-8.3,0.3-11-3.1l-1.2-1.5c-1.6-2.1-3.6-3.1-6.4-3.1c-1.5,0-3-0.8-4.6-1.2c-1.1,0.6-2.4,1.5-3.7,2c-2.3,0.8-4.6,0.3-6.8-0.5
	s-4.4-0.9-6.6,0c-0.9,0.4-2,0.4-3,0.3c-1.4-0.2-2.8-0.7-4.3-1c-2.2,4.3-5.9,6.2-10.6,6.6c-5,0.4-8.4-1.8-11.1-5.8
	c-0.7,0.1-1.4,0.3-2.1,0.3c-0.9,0-1.8,0.1-2.6-0.2c-2.5-1.1-4.8-1-7.3-0.1c-3.7,1.4-7.2,1.1-10.2-2c-1.9,1.3-3.9,1.8-6.1,1.7
	c-1.5-0.1-2.6,0.5-3.6,1.6c-0.7,0.8-1.5,1.5-2.1,2.3c-1.5,2.5-4,3.4-6.6,4c-2.3,0.6-4.4-0.2-6.3-1.1c-1.9,2-3.5,4.2-5.7,5.6
	c-2.5,1.6-5.4,2.7-8.2,3.8c-2.5,0.9-5.3,1.2-7.8,2.3c-3.2,1.4-6.2,3.2-9.3,5c-1.2,0.7-2.2,1.9-3.1,2.9c-2.4,2.7-4.5,5.8-7.7,7.3
	c0.2,2.2,0.4,4,0.5,5.9c0.1,1.3,0.5,2.4,1.4,3.2c0.9,0.8,1.8,1.6,2.9,2.2c1.7,0.9,3.1,1.9,3.9,3.8c0.2,0.4,0.7,0.9,1.2,1
	c2.2,0.6,3.9,1.8,5.5,3.2c0.6,0.6,1.5,0.9,2.3,1.1c0.8,0.3,1.7,0.4,2.6,0.5c2.9,0.5,5.6,1.4,7.4,3.7c2.2-1.6,4.2-3.3,6.3-4.7
	c1-0.7,2.3-1.2,3.5-1.4c9.3-1.6,17.7,0.3,25.5,5.7c4.9,3.5,6.7,10.2,3.6,16c-2.2,4.1-5.4,7.3-9,10.1c-7.6,6.1-16.2,8.4-25.8,7.3
	c-4.5-0.5-7.8-2.6-9.8-6.7c-0.1-0.2-0.3-0.4-0.2-0.3c-2.6,0-5,0.2-7.4,0c-4.6-0.4-7.7-3.2-10.5-6.5c-3.2-3.8-6-7.9-7.4-12.8
	c-0.5-1.7-0.8-3.4-1-5.1c-0.2-1.3-0.6-2.1-2-2.6c-9.1-2.6-13-9.6-14.9-18c-0.5-2.2-0.1-4.6,0.2-6.9c0.5-3.3,2.8-5.1,6.3-5.7v-2.5
	c0.1-4.3,1-8.4,3.2-12.1c1.9-3.2,3.8-6.5,6.1-9.4c2.5-3,5.5-5.6,8.2-8.3c0.7-0.7,1.6-1.3,2.4-2c2.5-2.4,5.5-4.2,8.9-5
	s6.8-1.7,10.3-2.1c3.7-0.5,7.1,0.5,10,3.1c0.3,0.3,0.6,0.4,0.9,0.6l6-4.8c-2-1.7-4-3.7-6.2-5.3c-1-0.7-2.4-0.8-3.3-1
	c-1.9,1.2-3.5,2.3-5.3,3.2c-2.4,1.2-5,1.6-7.7,1.1c-3.1-0.6-6.3-1.2-9.3-2.1c-4.7-1.4-9.5-1.9-14.4-2.5c-7.1-0.8-14.1-0.1-21.1,0.6
	c-2.2,0.2-4.4,1-6.4,1.9c-3.6,1.6-7.2,3.2-10.2,5.7c-0.1,0.1-0.3,0.2-0.4,0.2c-4.1,1.5-6.3,4.9-8.6,8.2c-3.2,4.7-5.2,9.9-6.5,15.4
	c-0.3,1.3-0.4,2.7-0.5,4c-0.2,2.3-0.9,4.2-2.2,6.2c-1.7,2.5-3,5.2-3.3,8.4c-0.1,0.9-0.1,1.8-0.2,2.6c-1.3,7.2,0.7,13.9,2.9,20.6
	c1.2,3.6,3.4,6.5,6.2,8.9c0.8,0.7,1.8,1.2,1.3,2.5c-0.3,0.9-1.7,1.2-3.2,0.8c-2.5-0.6-4.6-1.9-6.4-3.7c-3.9-3.9-7.6-8-10.2-13
	c-1.9-3.7-3.1-7.5-3.9-11.5c-0.8-3.8-1.4-7.7-0.8-11.7c0.1-0.5,0-1.2-0.3-1.6c-4-5.4-3.2-11.2-1.1-16.9c1.1-3.1,2.6-6,4.2-8.9
	c3.5-6.1,7.3-12,11-18c0.8-1.2,1.6-2.4,2.6-3.4c2.3-2.5,5.2-3.6,8.6-3.5c0.2-0.8,0.3-1.5,0.5-2.2c0.6-2.1,2.3-3.5,4.5-3.7
	c1.1-0.1,2.2-0.3,3.2-0.7c6.9-2.9,14-4.9,21.3-6.2c5.6-0.9,11.2-1.9,16.8-2.9c0.7-0.1,1.3-0.3,2-0.5c-6.4-4.2-13.5-5.5-20.9-5.5
	c-5,0-9.9,0.1-14.9,0.4c-5.3,0.2-10.5,0.7-15.8,1h-0.5c-5.1,1.4-10.5,1.7-15.6,3.6c-2.2,0.8-4.6,1.1-7,1.5c-0.7,0.1-1.6-0.3-2.3-0.5
	c-0.7-0.2-1.3-0.6-1.6-0.7c-1.4,1.9-2.6,3.8-4.1,5.4c-4.1,4.2-6.8,9.2-9.5,14.3c-2.5,4.7-4.2,9.7-5.9,14.6c-0.1,0.3-0.2,0.6-0.2,0.9
	c0.3,2.6-1.1,4.2-3.2,5.4c-0.8,0.4-1.6,0.7-2.4,1.1c-1.2,0.7-1.5,1.5-1.1,2.8c1.1,3,0.4,5.7-1.6,7.9c-3.9,4.3-4.8,9.5-5.1,14.9
	c-0.2,4.7-0.3,9.5,1.2,14c0.7,2.2,1.5,4.4,2.2,6.6c0.1,0.4,0.3,0.7,0.4,1.1c0.2,1.2-0.6,2-1.6,1.5c-1.1-0.5-2.2-1.3-3.1-2.2
	c-4-4-6.4-8.9-7.9-14.3c-2.2-7.5-2.8-15.1-2.3-22.8c0.1-2,0.8-3.9,1.2-5.8c0.3-1.5,0.8-2.9,0.2-4.5c-1.3-3.8-0.9-7.6,0.8-11.2
	c2-4.1,3.9-8.3,6.2-12.2c2.6-4.5,5.6-8.7,8.4-13.1c1.8-2.8,3.5-5.6,5.1-8.4c0.4-0.6,0.5-1.3,0.7-2c0.7-2.6,1.9-5,3.7-6.9
	c2.1-2.3,4.8-3.4,8-2.7c0.2-0.3,0.3-0.6,0.4-0.9c0.9-2.6,2.8-4,5.5-4.3c3.7-0.4,7.5-0.8,11.2-1.2c5.1-0.6,10.2-1.2,15.3-1.6
	c3.1-0.3,6.2-0.4,9.3-0.7c7.2-0.5,14.4-0.7,21.5,0.3c0.4,0.1,0.8,0.1,1.2,0c4.2-0.7,8.4,0,12.7,0.2c1.9,0.1,3.7,0,6-0.4
	c-0.6-0.4-1.2-0.7-1.7-1.2c-1.9-1.8-1.9-1.8-4.1-0.5c-1.8,1.1-3.8,0.8-5.5-0.1c-1.4-0.6-2.6-1.6-3.8-2.5c-1-0.7-1.8-1.5-2.7-2.2
	c-5.6,2.1-11.2,2.7-16.9,2.4c-9.7-0.5-19.5-1.2-29.2-2.1c-4.7-0.4-9.2-1.9-13.7-3.6c-3.4-1.3-6.9-2.5-10.4-3.7
	c-1.3-0.5-2.5-1.1-3.7-1.6c-0.6-0.2-1.2-0.6-1.8-0.6c-3.4-0.2-5.6-2.3-7.2-4.9c-0.8-1.2-1.6-1.8-3-1.8c-3.7-0.2-7-1.6-10.3-2.9
	c-7.2-3-14-6.7-19.8-12c-2-1.9-3.8-4.1-5.4-6.4c-1.5-2.1-2.4-4.6-1-7.1c-5.2-4.7-8.7-10.5-11.4-16.8c-2-4.7-3.8-9.5-5.2-14.4
	c-2.5-9.1-4-18.4-2.2-28c0.6-3.3,1.8-6.3,3.6-9.1C6.9,179.4,8.1,178.3,10,178.1L10,178.1z M73.6,186.3c0.4,0.3,0.9,0.6,1.3,0.9
	c2.2,2.4,4.4,4.7,6.6,7.1c0.6-1.7,1.2-3.6,2-5.4c1.6-3.4,4.2-6,6.9-8.5c0.6-0.6,1.1-1.4,1.7-2.1c-1.3-0.7-2.3-1.2-3.2-1.8
	c-1.4-1.1-1.4-2.3,0.1-3.2c0.5-0.3,1.1-0.6,1.7-0.8c4.3-1.7,6.6-5.4,9.1-8.9c0.2-0.2,0.2-0.6,0.3-1c-1-0.3-2-0.4-2.8-0.8
	c-1.9-0.8-2.1-2.4-0.5-3.7c0.7-0.6,1.5-1.2,2.4-1.6c4.2-2.1,7.3-5.3,9.7-9.4c2.2-3.7,2.4-7.8,2.2-12.2c-5,1.5-9.5-0.3-14.1-1.4
	c-4.8-1.2-8.5-3.9-11.4-7.6h-0.7c-4.4,0.8-8.7,1.7-13.1,2.4c-1.2,0.2-1.6,0.9-1.9,1.8c-0.9,2.9-1.7,5.8-2.7,8.7
	c-2.2,6.1-3.7,12.4-4.5,18.8c-1.1,8.4-2.3,16.8-3.3,25.2c-0.2,1.5,0,3.1,0,4.9c1.9-0.5,3.5-1.1,4.8-2.4c2.3-2.3,3.6-2.4,6.4-0.7
	C71.3,185.2,72.4,185.8,73.6,186.3L73.6,186.3z M333.4,273.1c0.1,0.1,0.2,0.1,0.2,0.2c0.6-0.5,1.2-1,1.7-1.6
	c3.9-4.3,7.9-8.6,11.7-13c3.9-4.5,7.8-8.9,11.4-13.6c4-5.3,7.7-10.8,11.6-16.2c0.4-0.5,1.1-0.8,1.6-1.2c0.3,0.5,0.8,1,1,1.5
	c0.6,1.5,1.7,2.5,3.1,3.2c1.7,0.9,3.4,0.6,4.5-0.9c0.8-1.2,1.7-2.6,2-4c0.5-2.3,1-4.8,0.9-7.1c-0.2-5.6-1.7-10.7-6.5-14.3
	c-0.4-0.3-0.9-1.1-0.8-1.5c0.2-0.9,1.1-1.2,1.9-0.9c1.1,0.4,2.4,0.8,3.2,1.5c3.1,2.8,5.4,6.1,6.2,10.3c0.9,5,0.6,10,0.7,15
	c0,1.2-0.4,2.5-0.7,3.7c-0.2,1-0.5,2-0.7,2.9c0.2,0.1,0.3,0.2,0.5,0.2c0.5-0.8,1.2-1.6,1.5-2.5c0.8-2.3,1.8-4.6,1.9-6.9
	c0.3-4.7,0.5-9.5,0-14.1c-1-8.4-5.5-14.9-12.1-20c-2.8-2.2-4.9-5-6.5-8.2c-2.9-5.8-5.8-11.6-8.7-17.3c-1-1.8-2.1-3.7-3.5-5.1
	c-3.5-3.5-7.3-6.7-11-9.9c-2.2-1.8-5-2.4-7.7-1.9c-3.5,0.7-6.4-0.7-9.3-2c-1.9-0.8-3.4-2.2-4.6-4c-1-1.6-2.6-3-4.1-4.3
	c-1.7-1.5-3.4-1.4-4.9,0.2c-1.7,1.9-3.1,4-4.6,6.1c-1.3,1.7-2.5,3.5-3.9,5.1c-0.5,0.6-1.4,0.9-2.6,1.7c0.2-1.2,0.2-1.9,0.5-2.4
	c1.4-3.1,2.8-6.3,4.4-9.3c1.1-2.2,1.1-3.1-0.8-4.7c-1.8-1.5-3.6-2.9-5.5-4.2c-5.7-3.7-11.4-7.3-17.2-10.9c-5.1-3.1-9-7.4-11.8-12.7
	c-1.2-2.2-2.4-4.4-3.8-7c-1.5,2.7-2.7,5.1-4.1,7.5c-2.7,4.8-6.2,8.8-11,11.8c-7.6,4.7-15.3,9.2-22.5,14.7c-1.3,1-2.3,2.1-2.8,3.6
	c0.9,1.9,1.8,3.6,2.6,5.3s1.7,3.5,2.4,5.2c0.4,0.9,1,1.8,0.2,3.1c-0.6-0.4-1.2-0.7-1.6-1.1c-1.5-1.9-2.9-3.8-4.4-5.7
	c-1.5-2-2.9-4.2-4.6-6.1c-1.5-1.7-3.2-1.7-4.9-0.2c-1.6,1.4-3.2,2.9-4.4,4.7c-1.5,2.3-3.7,3.5-6,4.4c-2.2,0.9-4.1,0-5.2-2.1
	c-0.3-0.6-0.6-1.3-1-2.1c-3.5,2.1-6.8,4-10.2,6.1c-1.1,0.7-2.1,1.5-3,2.4c-3.8,4-7.4,8.2-10.1,13.1c-2.9,5.2-5.6,10.6-8.1,16
	c-2,4.4-4.6,8.2-8.5,11.1c-2.9,2.3-5.3,5.1-7.3,8.2c-3.4,5.7-4.7,11.9-4.3,18.4c0.4,4.9,2.3,9.1,6.2,12.1c-0.7-3-1.7-5.9-2-9
	s-0.5-6.3,0.9-9.6c1.1,1.6,1.9,2.9,2.8,4.2c1,1.3,2.1,2.7,3.2,3.9c1,1.1,1.4,2.8,3.1,3.2c-0.7-1.6-1.5-3.1-2.4-4.6
	c-1.5-2.7-3-5.5-4.6-8.1c-1.7-3-0.3-5.3,1.3-7.6c0.8,0.6,1.8,0.9,2.2,1.6c2.3,3.5,4.4,7,6.7,10.5c1.5,2.2,3.2,4.2,4.8,6.3
	c0.3,0.4,0.8,0.6,1.2,0.9c0.1-0.1,0.2-0.2,0.4-0.3c-0.6-1-1.3-1.9-2-2.9c-3-4-5.5-8.3-7.6-12.7c-1.1-2.2-1.3-4.6-1.1-7
	c0.2-2,1-2.6,3-2.4c2.6,0.2,4.4,1.7,5.8,3.8c3.7,5.7,7.4,11.4,11.2,17c2.4,3.6,5.4,6.8,7.7,10.4c3.8,6.1,8.8,11.4,13.2,17
	c7.3,9.3,14.8,18.5,22.3,27.6c1.2,1.5,2.5,2.9,3.8,4.4c0.2-0.1,0.3-0.2,0.5-0.3c-1.4-2.6-2.6-5.5-4.3-7.9c-5.2-7.1-10.6-14-16-20.9
	c-4.1-5.2-8.6-10.1-12.6-15.4c-4.5-5.9-8.7-12.1-12.9-18.1c-1.7-2.4-3.3-4.9-4.9-7.4c-2-3.2-4-6.5-6-9.8c-1.5-2.5-1.9-5.4-2.1-8.3
	c0-0.6-0.1-1.3,0.2-1.9c0.3-0.6,0.9-1.3,1.4-1.4c0.5-0.1,1.3,0.5,1.7,0.9c0.5,0.7,0.6,1.6,1,2.4c1.5,2.9,2.9,5.8,4.4,8.7
	c0.1,0.2,0.5,0.4,0.7,0.5c0.1-0.1,0.3-0.2,0.4-0.2c-0.2-0.5-0.3-1.1-0.6-1.6c-2.2-3.7-3.8-7.6-4.7-11.7c-0.3-1.2-0.3-2.6-0.1-3.8
	c0.2-1.6,1.2-2.5,2.3-2.4c1.5,0.2,1.6,1.4,1.8,2.5v0.2c0.5,4.2,2.1,8,4,11.8c0.7,1.4,1.7,2.6,2.5,3.9c0.2-0.1,0.3-0.1,0.5-0.2
	c0-0.4,0-0.9-0.1-1.3c-1.3-3.7-2.5-7.4-4.1-11c-1.7-3.8-2.4-7.6-2.1-11.7c0-0.8-0.2-1.6-0.3-2.5c0.3-0.6,0.8-1.3,1.2-2.1
	c1.6-3.3,3.9-4.1,7-2.3c0.8,0.5,1.6,0.9,2.7,1.5c-0.5,1-1,1.9-1.3,2.9c-0.3,0.9-0.6,1.8-0.6,2.8c0,1.5,0.4,3,0.4,4.5
	c0.1,3.4,1.1,6.6,2.7,9.6c3,5.5,5.9,11,9,16.4c3.9,6.7,7.9,13.3,11.8,20c3.1,5.3,6.2,10.6,9.2,16c2.9,5.2,5.1,10.8,8.4,15.6
	c2.7,4,4.7,8.3,7.2,12.4c0.4,0.7,0.9,1.3,1.3,2c0-1.9-0.5-3.6-1.4-5.2c-1.6-2.8-3.2-5.5-4.7-8.3c-2.9-5.3-5.8-10.7-8.6-16.1
	c-4.1-7.9-7.9-16.1-12.4-23.8c-5-8.4-9.5-17-14.4-25.5c-2.9-5-4.5-10.3-5.5-16c-0.2-1.4-0.4-2.9,0.5-4.2c0.7-1,0.6-1.9,0.3-2.9
	c-0.9-3.3-0.8-6.6-0.1-10c0.3-1.4,1-2.1,1.9-1.9c1.2,0.2,1.4,1.1,1.4,2.1c0.1,1.6,0.2,3.2,0.6,4.7c0.8,2.7,1.8,5.5,2.8,8.1
	c1.5,3.7,3.2,7.3,4.8,11c0.4,0.8,0.6,1.7,2,2.2c-0.2-1-0.3-1.7-0.6-2.3c-1.9-4.6-3.6-9.2-5.6-13.7c-1.6-3.6-3-7.3-2.6-11.3
	c0.2-1.5,0.6-3,1.4-4.3c0.9-1.5,2.4-1.5,3.6-0.1c0.4,0.5,0.8,1,1,1.6c2.5,5.1,5,10.2,7.3,15.3c1.6,3.5,2.8,7.2,4.6,10.5
	c3.2,6.2,6.2,12.4,8.9,18.8c1,2.4,1.8,4.9,2.8,7.4l6.3,15.3c3.1,7.8,6.1,15.6,9.3,23.4c2.4,5.8,5,11.6,7.6,17.4
	c0.2,0.4,0.5,0.8,0.7,1.2c-0.5-3.9-1.7-7.5-3.1-11c-0.6-1.5-1.6-3-2.1-4.5c-1.8-5-3.5-10-5.3-14.9l-6.9-18.6
	c-2.3-6.1-3.7-12.6-6.9-18.4c-1.3-2.4-2.2-4.9-3.3-7.4c-0.6-1.4-1.3-2.8-2-4.1c-2.9-5.2-5.4-10.5-7.5-16c-1.1-2.8-2.7-5.4-4.1-8.1
	c-0.3-0.5-0.6-1.2-0.5-1.7c0.4-2.8,1.9-5.1,4.1-7.1c2.5,3.1,2.9,7.1,5.4,9.8l0.6-0.3c-1.2-3.7-2.3-7.3-3.5-11c4-0.7,6.2,0.7,7.6,4.1
	c1.9,4.7,4,9.4,6,14.1c0.1,0.1,0.3,0.1,0.7,0.3c-0.3-4.3-2.3-8-3.2-12.1c2.1,0.4,4,0.8,5.9,1c1.3,0.1,2.1,0.6,2.7,1.6
	c0.4,0.8,1,1.5,1.2,2.3c0.8,2.4,1.6,4.9,2.1,7.4c1.7,7.8,3.1,15.7,4.8,23.5c1.3,5.8,3.1,11.6,4.5,17.4c1.5,6.4,3,12.8,4.2,19.2
	c1.8,9.4,4.3,18.7,6.9,27.9c0.1,0.5,0.3,0.9,0.5,1.4c0.2,0,0.3-0.1,0.5-0.1c-0.6-3.7-1.2-7.4-2-11c-0.8-3.7-1.9-7.4-2.6-11.2
	c-1.8-8.7-3.4-17.5-5.3-26.3c-1.4-6.8-2.9-13.5-4.6-20.3c-1.9-8-3.6-16-4.5-24.2c-0.3-2.4-0.9-4.6-2.5-6.6c-1-1.3-1.6-3-2-4.6
	c-0.7-2.6-1.2-5.3-1.5-8c-0.2-1.5,0.1-3,0.3-4.5c0.2-1.1,0.9-1.9,2.1-2c1.2-0.1,2.2,0.5,2.7,1.6c0.4,0.8,0.6,1.6,0.9,2.5
	c0.7,2.1,1.3,4.1,2,6.2c0.1,0.4,0.5,0.8,0.8,1.2c0.3-1,0.2-1.9,0-2.7c-0.5-1.9-1.2-3.8-1.6-5.8c-0.4-2.1-0.5-4.3-0.6-6.4
	c0-1.4,1.1-2.5,2.1-2.6c1.3-0.1,2.1,0.6,2.6,1.7c0.6,1.4,1.1,2.8,1.4,4.3c1,3.6,1.8,7.3,2.7,10.9c0.2,0.7,0.6,1.4,0.9,2.1
	c0.4-0.6,0.6-1.1,0.5-1.5c-0.9-4.2-1.8-8.4-2.8-12.6c-0.5-2.2-0.7-4.4-0.2-6.6c0.6-2.3,2.8-2.8,4.4-1.1c0.7,0.8,1.1,1.8,1.4,2.7
	c0.3,1,0.3,2,0.4,3.1c0.3,2.4,0.8,4.8,2.3,7.4c0.2-0.9,0.4-1.3,0.3-1.7c-0.3-1.8-0.7-3.6-1-5.4c-0.4-2.8-0.8-5.5-1.1-8.3
	c-0.1-1.4,0.4-2.5,1.5-3.4c2.2-1.7,3.9-3.7,5.4-6c0.9-1.4,2.6-1.1,3.1,0.5c0.3,1,0.2,2.1,0.1,3.1c-0.2,1.9-0.9,3.8-0.9,5.7
	c0,7.7,0,15.3-0.5,23c-0.4,5.6-0.3,11.2-0.2,16.8c0.3,14.5-0.3,29.1,1.3,43.6c0.8,7,0.5,14.1,0.6,21.1c0.1,5,0,10.1,0.4,15.1
	c0.4,4.8,1.4,9.5,2.1,14.2c0.1,0.4,0.4,0.7,0.6,1c0.8-1.8,0.5-3.5,0.4-5.2c-0.2-2.5-0.4-5-0.2-7.4c0.2-3.5,0.7-7,1-10.5
	c0.4-4.4,0.6-8.8,1-13.1c0.7-7.3,1.5-14.6,2.2-21.9c0.5-5.7,1-11.3,1.5-17c0.7-7.9,1.5-15.7,2.3-23.6c0.1-0.9,0-1.9,1-2.5
	c0.2,0.3,0.4,0.5,0.4,0.7c0.1,4.6,0.6,9.1,0.3,13.6c-0.5,6.5-1.3,12.9-1.2,19.4c0,1,0,1.9-0.1,2.9c-0.5,7.7-1,15.5-1.4,23.2
	l-1.2,18.9c-0.3,4.6-0.8,9.2,0.1,14.2c0.2-1.1,0.4-1.8,0.6-2.5c2.2-13.4,4.5-26.8,6.7-40.2c0.6-3.5,1.5-7,2-10.6
	c1.4-9.2,2.7-18.3,4-27.5c0.9-6,1.7-12,2.4-18.1c0.4-2.9,0.6-5.9,0.7-8.8c0.1-1.8-0.5-3.4-1.8-5.2c-0.4,2.9-0.6,5.2-1,7.5
	c-0.4,2.4-1.1,4.8-1.6,7.3c-0.9,4.1-1.5,5.4-2.7,6.4c-0.1-0.4-0.2-0.8-0.2-1.2c0.3-3.5,0.5-7,0.8-10.5c0.2-2.9,0.6-5.7,0.6-8.6
	c0.1-2.2-0.7-4.1-2.7-6c-0.5,7.2-1.9,13.8-4.8,20.1c-0.3-0.6-0.5-1.2-0.5-1.8l0.6-6c0.4-3.9,0.8-7.8,1.1-11.7
	c0.1-1.8-0.4-3.5-1.5-4.8c-0.8,4-1.5,7.9-2.3,11.8c-0.2,1.2-0.8,2.3-1.2,3.4c-0.2,0.4-0.7,0.7-1.4,1.3c0.3-4.2,0.5-7.8,1-11.5
	c0.5-3.8,0.1-7.3-1.3-10.8c-1.1-2.9-2.3-5.8-3.4-8.7c-0.7-1.7-0.7-3.5-0.5-5.8c1,0.8,1.8,1.2,2.3,1.8c1.2,1.6,2.3,3.2,3.4,4.9
	c1.7,2.6,3.2,5.3,5.1,7.8c1.5,2.1,3.5,3.6,6,4.6c1.8,0.7,3.7,1.5,5.3,2.7c1.7,1.2,3.5,2.6,4.7,4.3c2,3.1,3.2,6.6,3.1,10.4
	c-0.1,3.4-0.4,6.7-0.4,10.1c-0.1,7.4-1.3,14.6-3.2,21.8c-1.6,5.9-3.4,11.8-3.7,18c0,1-0.4,2-0.6,3.1c-1.8,8-3.7,15.9-5.3,23.9
	c-1.6,8.2-2.9,16.5-4.3,24.8c-0.3,1.8-0.4,3.6-0.6,5.4c0.6-0.4,0.7-0.8,0.9-1.3l9.6-27.9c2.3-6.6,5.1-13.1,6.7-20
	c0.3-1.1,0.7-2.2,1.9-3.3c0.1,0.8,0.2,1.2,0.1,1.7c-0.9,4.3-1.6,8.7-2.9,12.8c-3.3,10.8-7.2,21.5-9.5,32.7c-0.4,2.2-1,4.4-1.6,6.5
	c0.7-0.7,1.1-1.5,1.5-2.2c3.3-7.5,6.7-14.9,9.8-22.4c2.8-6.7,5.3-13.5,7.9-20.3c2-5.5,3.4-11.2,6.3-16.3c1.2-2.2,2-4.5,3.1-6.8
	c0.7-1.6,1.6-3.1,2.4-4.7c2.4-5.1,4.9-10.2,7.1-15.4c1.3-3.1,3-6,5-8.7c0.8-1,1.7-2.3,3.4-2.3s3.3,0.1,5,0c1.6-0.1,3,0.2,4.3,1.1
	c0.5,0.3,0.9,0.7,1.4,0.9c2.4,0.9,3.7,2.7,4.6,4.9c0.3,0.7,0.8,1.4,1.1,2.1c0.5,1.3,1,2.5,1.1,3.8c0.2,1.6,0.2,3.2,0,4.8
	c-0.7,5.8-2.1,11.3-5.4,16.2c-1.1,1.6-2,3.4-2.9,5.2c-1.4,3.1-2.6,6.4-4.2,9.4c-2.2,4.2-4.8,8.1-7.2,12.2c-2.2,3.8-4.5,7.6-6.5,11.5
	c-3.3,6.5-6.7,12.9-10.7,19c-0.6,1-1.2,2.1-1.6,3.2c-2.5,6.6-5.3,13-8.6,19.3c-0.5,1-0.9,2.1-1.4,3.1c1.5-1.4,2.5-3,3.5-4.5
	c2.5-3.9,5.1-7.7,7.6-11.6c0.3-0.5,0.6-1.2,1.6-0.7c0.1,1.6-0.8,3-1.6,4.4c-2.5,4.6-5,9.1-7.5,13.6c-0.5,0.9-0.3,1.5,0.7,2
	c4.6-6.2,9.3-12.4,13.9-18.5c3.9-5.1,7.7-10.3,11.7-15.2c6.1-7.4,12.2-14.8,17.8-22.6c4.2-5.9,8.1-12.1,12.1-18.1
	c1.2-1.8,2.2-3.5,1.3-5.8c-0.2-0.6,0-1.4-0.1-2.1c-0.1-1.2-0.4-2.4-0.6-3.6c-0.2,0-0.4-0.1-0.6-0.1c-0.4,0.8-0.8,1.7-1.1,2.5
	c-0.9,2.4-1.7,4.8-2.5,7.2c-1.6,4.9-4.1,9.4-6.9,13.6c-3.1,4.6-6.5,9.1-10,13.4c-1.1,1.3-2.8,2.1-4.3,3.2c0,0-0.1,0-0.3-0.1
	c-0.5-1.1,0.2-2,0.7-2.8c2.2-3.4,4.4-6.8,6.8-10.2c2.5-3.4,4.7-7,6.6-10.8c2.7-5.7,4.8-11.5,6.1-17.6c0.1-0.6,0.1-1.1,0.2-1.7
	c-0.6,0.5-0.9,1-1.2,1.6c-3.9,7.8-8.3,15.3-12.9,22.7c-2.8,4.4-5.7,8.7-8.3,13.2c-4.9,8.7-10.4,17.1-16.6,24.9
	c-0.4,0.5-1,0.9-1.4,1.3c-0.1-0.1-0.3-0.2-0.4-0.3c0.2-0.6,0.4-1.3,0.7-1.9c2.5-4.5,5.1-9,7.6-13.6c3.9-7,7.8-14.1,11.7-21.2
	c1-1.7,1.8-3.6,2.9-5.3c2.6-3.9,4.7-8,6.4-12.3c2.6-6.4,5.4-12.8,6-19.9c0.2-2.1,0.2-4.2,0.4-6.2c0.1-0.9,0.4-1.8,0.7-3
	c2.7,2,5.1,3.6,5.3,6.8c0.1,1.5,0.7,2.5,1.8,3.4c1.8,1.5,2.9,3.4,2.8,5.8c0,1.2,0.5,1.9,1.4,2.5c2.1,1.5,3.4,3.5,4,6.1
	c0.3,1.6,0.7,3.3,0.9,4.9c0.6,4.6-0.7,8.8-3.6,12.2s-5.9,6.7-8.4,10.4c-0.1,0.1-0.2,0.3-0.3,0.4c-6.1,7.9-12.3,15.8-18.3,23.7
	c-4.7,6.2-9.3,12.4-13.9,18.6l-11.1,14.7c-0.8,1-1.4,2.1-2.1,3.3c1.2,0.6,2.2,1,3.3,1.5c2.2-3,4.3-5.8,6.4-8.6
	c4.2-5.7,8.3-11.3,12.5-17l2.4-3.3c2.5-3.3,4.9-6.7,7.5-10c2.3-2.9,4.9-5.7,7.3-8.6c3.4-4.2,6.8-8.5,10.1-12.8
	c1.6-2,3.1-4.1,4.6-6.1c0.8-1.1,1.6-2.2,2.5-3.2c0.6-0.7,1.6-1.2,2.3-0.4c0.4,0.4,0.2,1.4,0.2,2.2c0,0.2-0.2,0.4-0.3,0.6
	c-1.6,2.3-3.1,4.7-4.8,6.9c-1,1.3-2.3,2.4-3.4,3.7c-5.2,6.5-10.3,13-15.4,19.6c-4.1,5.3-8.1,10.7-12.1,16.1
	C337.2,267.3,335.3,270.2,333.4,273.1L333.4,273.1z M161.9,69.4c-1.6,1-3.3,2.2-5.1,3.2c-4.2,2.3-8.4,1.2-10.9-2.9
	c-0.9-1.5-1.7-3.1-2.4-4.5c-1.7,0.4-3.3,1-4.9,1.1c-6.1,0.4-11.6-0.9-16-5.5c-0.6-0.6-1.1-1.2-1.7-1.7c-5.7-5.3-10.2-11.6-16.3-16.6
	c-4-3.3-8-6.4-12.7-8.6c-3.1-1.5-5.8,0-7.7,1.9c-3.8,3.8-7.3,7.9-9.5,12.8c-0.3,0.6-0.8,1.2-1.2,1.8c-2,3.2-4,6.4-5.9,9.6
	c-1.3,2.3-2.3,4.8-3.8,7c-2.3,3.5-3.7,7.4-5.3,11.2C55.7,84.8,58,90.6,61.2,96c2.3,4.1,6.7,5.3,11.2,5.3c3.9,0.1,7.8-0.4,11.2-2.3
	c1.3,0.6,1.5,1.7,1.4,2.9c-0.2,6.1,1.5,11.8,3.8,17.4c1.6,3.9,4.2,6.7,8.1,8.3c4,1.6,8.1,2.5,12.3,2.9c2.2,0.2,4.4,0.6,6.7-0.1
	c2.9-0.8,5.9-1.5,8.7-2.5c4.9-1.5,9.7-3.1,14.5-4.8c5.4-1.9,10.8-3.9,15.8-7c4.7-2.9,9.3-6,13.6-9.4c7-5.4,12-12.3,15.7-20.3
	c1.1-2.5,2.5-4.6,4.7-6.4c8.1-6.8,13.8-15.5,17.6-25.3c0.1-0.4,0.1-0.8,0.3-1.6c-3.6,4.1-7.4,7.3-11.6,9.9c-0.1,2.6-0.9,3.5-3.3,3.3
	c-1.6-0.1-3.1-0.5-4.7-0.7c-1.7-0.2-3.5-0.3-5.2-0.5c-1.3-0.2-1.8,0.6-2.4,1.5c-1.3,2-2.7,3.9-4.2,5.8c-0.4,0.5-1,0.9-1.6,0.9
	c-1.4,0.1-3,0.2-4.2-0.2C167,72.1,164.6,70.7,161.9,69.4L161.9,69.4z M461,99.2c1.9,0.6,3.4,1.2,5,1.6c3.4,0.8,6.8,1,10.2,0.2
	c3.5-0.9,6.6-2.7,8.2-6.1c1.1-2.2,1.7-4.6,2.7-6.9c1.3-3.1,0.6-6-0.4-9.1c-2-5.6-4.9-10.8-7.8-15.9C475,56.3,471,49.7,467,43
	c-0.7-1.2-1.8-2.3-2.7-3.3c-1.1-1.2-2.2-2.3-3.3-3.5c-2.5-2.6-5-3.9-8.2-2c-0.8,0.4-1.6,0.7-2.4,1.2c-6.8,3.9-12.5,9.1-17.8,14.8
	c-3.3,3.5-6.5,7-9.9,10.4c-3.2,3.2-7,5.3-11.6,5.7c-3.3,0.3-6.5,0.3-9.4-1.2c-1.2,2-2.2,3.9-3.3,5.7c-1.8,2.8-7.2,4-9.7,2.2
	c-1.9-1.3-3.9-2.5-6-3.7c-0.6,0.4-1.3,1-2.1,1.4c-1.9,1-3.8,2-5.8,2.7c-1.8,0.6-3.8,0.7-5.2-0.8c-1.6-1.7-2.9-3.6-4.1-5.6
	c-0.7-1.2-1.4-2.1-2.9-1.9c-1.6,0.2-3.2,0.3-4.7,0.5s-3,0.6-4.5,0.8c-2.7,0.2-3.6-0.6-3.8-3.3c-1.4-0.9-2.8-1.8-4.1-2.8
	c-1.3-1-2.6-2.2-3.8-3.3c-1.2-1.1-2.3-2.2-3.6-3.6c0.1,0.7,0.1,0.9,0.2,1.1c4,10.1,9.8,19,18.2,26.1c1.9,1.6,3,3.4,4,5.5
	c3.4,7.2,7.6,13.8,13.8,19.1c6.4,5.3,13,10.2,20.5,13.7c8.5,4,17.4,7.2,26.6,9.6c3.2,0.8,6.4,2.1,9.9,0.9c0.5-0.2,1.6,0.1,1.9,0.5
	c0.7,1,1.7,0.9,2.6,0.8c3.1-0.5,6.3-1,9.4-1.8c5.8-1.5,9.7-5.1,11.7-10.9c1.7-5.1,3.3-10.2,3-15.7C459.7,100.9,459.9,99.7,461,99.2
	L461,99.2z M207.4,275c0.1-0.1,0.1-0.2,0.2-0.4c-1.2-0.6-2.3-1.4-3.5-1.9c-3.5-1.4-7-2.7-10.5-3.9c-0.8-0.3-1.3-0.7-1.3-1.5
	c0.1-1,0.7-1.4,1.6-1.4h1.9c1-0.1,2-0.3,3-0.4c0-0.2,0.1-0.3,0.1-0.5c-1.8-0.9-3.6-1.9-5.4-2.8c-2.2-1.1-4.6-1.9-6.8-3.1
	c-1-0.5-2-1.4-2.7-2.3c-0.8-1.1-0.2-2.2,1.1-2.5c0.7-0.1,1.5-0.1,2.2-0.2c-0.7-0.9-1.5-1.4-2.4-1.8c-2.5-1.1-5-2.2-7.4-3.3
	c-0.7-0.3-1.6-0.8-1.8-1.4c-0.2-0.6,0.3-1.5,0.6-2.5c-2.5-1.1-5.2-1.6-7.9-2.2l-8.4-1.8c-0.5-0.1-1.1-0.4-1.6-0.2
	c-1.3,0.4-2.5,0-3.7-0.4c-6.3-2.2-11.5-6.2-16.1-10.9c-2.3-2.3-3.6-5.3-4.7-8.3c-0.4-1.1,0.1-1.7,1.3-1.6c0.4,0,0.8,0.2,1.2,0.3
	c2.4,0.8,4.7,0.8,6.8-0.8c1-0.8,1.9-0.5,2.6,0.6c0.3,0.4,0.4,0.9,0.7,1.3c1.1,1.7,1.9,3.7,3.8,5.4c-1.3-4.7-0.6-9-0.6-13.1
	c-4.2,1-8.1,2.1-12,2.9c-3.8,0.8-7.6,0.7-11.1-1.6c-0.5-0.3-1.1-0.6-1.9-1c0.2,0.9,0.3,1.5,0.4,2.1c1.1,3.7,2.6,7.2,4.7,10.4
	c2.7,4,5.6,7.9,9.4,10.9c5.1,4,10.8,7.1,17,9.2c0.7,0.2,1.5,0.5,2.1,0.2c1.7-0.7,3.1-0.1,4.6,0.6c6.6,3.3,12.4,7.6,16.6,13.8
	c4.2,6.1,9.5,11.2,15.2,15.9c3.8,3.1,7.4,6.6,11,10c4.4,4.1,8.7,8.2,13,12.4c3.9,3.8,7.9,7.5,11.7,11.3c2,2,4.1,1.6,6.7,1.1
	c-0.7-0.6-1.2-1-1.6-1.5c-2.7-2.9-5.6-5.7-8.1-8.8c-2.2-2.8-1.5-6.1,1.5-8.1c2.1-1.4,4.2-2.7,7-1.4c1.3-4.5,3.5-7.6,8.9-6.6
	c0.7-2.8,2.8-4.5,5.1-5.8c2.5-1.4,5.2-1.4,7.6,0.1c1.5-1.4,2.8-2.8,4.2-3.9c1.8-1.4,3.8-2.1,6-0.7c0.8,0.5,1.4,0.4,2.1-0.2
	c0.6-0.5,1.3-1.1,2-1.2c2.8-0.5,5.5-0.3,7.4,2.1c1,1.2,1.9,1.5,3.3,0.8c0.5-0.3,1.1-0.4,1.6-0.4c2.7-0.3,4,0.5,5,3
	c0.2,0.6,0.5,1.1,0.8,2c1.1-0.5,2.1-0.8,3.1-1.2c2.4-0.9,4-0.4,5.2,1.9c1.1,2,1.1,2.1,3.5,1.7c1.4-0.2,2.6-0.1,3.5,1
	c0.6,0.8,1.3,1.7,1.5,2.6c0.3,1.3,1,1.9,2.2,2.1c1,0.1,1.9,0.2,2.9,0.3c3.2,0.3,5.4,2.6,5.6,5.8c0,0.6,0.1,1.3,0.3,1.8
	c0.6,1.5,0.5,2.1-0.7,3.1c-1,0.8-2.1,1.4-3.3,2.1c0.7,1.6-0.1,2.8-1.1,3.9c-0.7,0.8-1.5,1.7-2.2,2.6c-0.8,1.1-1.6,2.2-1.5,3.8
	c0.5,0.2,1,0.3,1.3,0.4c1-1.3,1.7-2.5,2.6-3.5c0.7-0.8,1.5-1.4,2.2-2.2c1.9-2.1,4.1-4.1,4-7.3c0-0.4,0.2-0.8,0.5-1.1
	c1.7-1.4,2.1-3,1-5c-0.1-0.2-0.1-0.5-0.1-0.7c-0.8-3.9-2.9-6-7.7-6.5c-0.9-0.1-1.9,0-2.7,0c-2.5-6.3-2.9-6.6-9.1-6.1
	c-1.4-5.1-5.3-4.5-9.1-3.6c-2.8-4.1-4.7-4.6-10.5-3c-0.2-0.1-0.4-0.3-0.5-0.4c-3.1-3.6-7.1-4.5-11.5-1.5c-0.8,0.5-1.5,0.3-2.2,0.1
	c-1.8-0.6-3.5-0.1-5.1,0.7c-1.4,0.7-3,1.1-3.5,2.9c-0.2,0.6-0.9,1-1.4,1.5c-2.4-1.2-4.5-1.7-6.6,0.2c-0.2,0.1-0.4,0.2-0.7,0.2
	c-1.8,0-3.2,0.8-4.2,2.3c-0.7,1-1.6,1.9-2.3,2.8c-1.6,0.2-3.1,0.4-4.5,0.6c-0.5,0.1-1.1,0.3-1.4,0.7c-1.2,1.5-2.3,3.2-3.6,5
	c-3.7,0.7-7.2,2.4-9.5,5.9l-5.7-3.9c-0.6-0.4-1.5-0.9-1.7-1.5c-0.2-0.7,0.4-1.5,0.6-2.3c-2.8-3-5.8-5.6-9.8-6.9
	c-1.1-0.3-2-0.9-3-1.4c-0.9-0.5-1.6-1.2-1.3-2.3c0.3-1.2,1.2-1.4,2.2-1.4C206.1,275,206.7,275,207.4,275L207.4,275z M256.4,107.3
	c-0.6,1.5-1.2,3.1-1.9,4.6c-0.6,1.3-1.9,1.7-3.2,1.1c-0.6-0.3-1.1-0.7-1.6-1.1c-1.7-1.2-3.4-2.2-5.5-2.7c-0.1,0.3-0.2,0.4-0.2,0.6
	s0,0.5,0.1,0.7c1.4,3.3,0.6,6.4-1.1,9.4c-2.8,4.8-7.2,7.3-12.4,8.7c-0.9,0.2-1.9,0.2-2.9,0.1c-4.5-0.7-8.6-2.4-11.7-5.9
	c-0.8-0.9-1.6-1.9-2.7-3.2c-0.9,2.3-1.8,4.2-2.5,6.2c-0.5,1.6-0.7,3.3-1.1,4.9c-0.4,2.1-1.9,3.1-4,2.6c-1.7-0.4-3.1-1.2-4.1-2.7
	c-0.4-0.6-0.8-1.1-1.3-1.9c-0.6,0.8-1,1.4-1.5,2.1c-2.1,3.1-3.1,6.6-3.8,10.3c-0.4,2.3-2.4,3-4.3,1.6c-1.2-0.9-2.3-2-3.6-3.1
	c-0.3,0.9-0.7,1.7-0.9,2.5c-0.6,1.8-1.2,3.7-1.7,5.5c-0.7,2.3-3.3,4.2-5.7,3.9c-2.6-0.2-5-1-6.4-3.6c-0.2-0.3-0.5-0.5-0.7-0.8
	c-2.6,3.5-3.2,5.2-3.6,10.1c-0.2,3.2-1.5,4.1-4.6,3.3c-0.5-0.1-1.1-0.3-1.6-0.6c-1.7-0.9-3.3-1.8-5-2.7c-2,3.5-2.5,10.5-1.7,14.9
	c0.2,1.1,0,2-1,2.4c-2.5,1.1-5.1,1.3-7.6-0.1c-0.5-0.3-1-0.6-1.7-1c-1.4,4.6,0.1,8.9-0.6,13.5c0.6-0.2,1-0.3,1.4-0.4
	c0.7-0.3,1.4-0.7,1.9,0.1c0.6,0.8,0.4,1.6-0.3,2.4c-0.3,0.4-0.7,0.8-0.9,1.3c-1,2-2,2.6-4.2,2.4c-1.9-0.2-3.6-0.7-4.8-2.3
	c-0.6-0.8-1.2-1.6-2.5-1.7c-0.1,3.7,0.4,7.3,1.2,10.8c0.3,1.4,0.3,2.6,0,4c-0.8,3.2-1.4,6.4-3.4,9.7c1.8-0.3,3.1-0.6,4.5-0.8
	c2.3-0.3,3.4-1.7,4.1-3.8c0.9-2.7,1.6-5.3,1.3-8.2c-0.2-2.3,0.3-2.5,2.6-2c2.1,0.5,4.4,0.7,6.2-0.8c1.5-1.3,2.9-2.9,2.3-5.4
	c-0.4-1.5-0.2-3.2-0.2-4.8c0-0.7,0-1.5,0.2-2.1c0.4-1.8,1.4-2.2,2.8-1c0.9,0.7,1.7,0.8,2.7,0.6c1.7-0.4,3-2.1,3.2-4
	c0.3-2.9,0.6-5.9,0.9-8.8c0.1-0.7,0.3-1.4,0.6-2.1c0.7-1.5,2.4-2.2,3.1-0.2c0.1,0.3,0.3,0.6,0.5,0.8c1.3,1.6,3.2,1.4,3.9-0.5
	c0.4-1,0.5-2.2,0.6-3.3c0.2-2.2,0.2-4.5,0.6-6.7c0.5-2.7,2-3.1,4.1-1.3c0.4,0.4,1.1,0.8,1.6,0.7c2.9-0.5,5.8-1.3,6.9-4.6
	c0-0.1,0.1-0.1,0.1-0.2c1-2.2,2-4.4,2.8-6.6c0.4-1,0.9-2,2-1.7c1.8,0.7,2.9-0.5,4.2-1.1c1.9-0.8,3.4-2,4.2-4
	c0.6-1.6,1.6-2.9,3.3-3.7c1.5-0.7,1.8-0.7,2.7,0.6c1.6,2.4,4.2,2.5,5.8,0.1c0.9-1.4,1.5-3,2.4-4.4c0.5-0.9,1-1.9,1.7-2.5
	c2.1-1.8,3.6-1.4,4.6,1.2c0,0.1,0.1,0.1,0.4,0.4c1.6,0,3.4,0.2,5.2,0c3.9-0.5,7.7-1.4,11.2-3.4c1.5-0.9,3-1.8,4.6-2.6
	c3.2-1.6,5.1-4.2,6-7.7c0.7-2.7,1.8-3.1,4-1.5c1,0.7,1.8,0.7,2.5-0.1c0.8-0.9,1.7-1.8,2.2-2.8c1-1.9,2.5-2.4,4.6-2.3
	c2.6,0.2,2.6,0.1,3.7-2.4C261.1,109.1,258.8,108.3,256.4,107.3L256.4,107.3z M123.6,54.8c4.1-1.8,7.2-4.5,9.5-8.1
	c1.7-2.6,3.5-5.2,5.3-7.7c1.1-1.6,2.6-2.8,4.6-2.7c2.3,0.1,3.7-1.1,4.4-3c1.2-3,3.5-4.2,6.5-4.5c1.7-0.1,2.9-0.9,3.6-2.4
	c0.2-0.5,0.5-1,0.8-1.5c1-2,2.3-3.5,4.8-3c0.4,0.1,0.8,0,1.2-0.1c2-0.7,3.8-1.3,4.6-3.7c0.5-1.7,1.7-3.3,2.7-4.8
	c1.3-2,3.2-3,5.4-3.8c0.8-0.3,1.5-0.3,2,0.8c-1.1,1-2.1,1.9-3.2,2.8c0.1,0.2,0.2,0.3,0.2,0.5c4.7-1.9,9.3-0.5,14-0.2
	c4.7,0.2,9.2,1.6,13.7,2.7c-0.8-1.1-1.8-1.9-2.7-2.8c-2.5-2.3-5.3-4-8.7-4.8c-4.5-1.1-9-2.3-13.5-3.4c-2.1-0.5-4.2-0.9-6.4-1
	c-11.7-0.7-23.3,0.3-34.5,4.4c-3.3,1.2-6.6,2.3-9.9,3.7c-2.1,0.9-4.2,1.9-6.2,3c-3.8,2.2-7.5,4.5-11.3,6.7c-1,0.6-1.5,1.3-1.8,2.4
	c0.8,0.4,1.6,0.6,2.1,1.1c0.4,0.4,0.7,1.3,0.6,1.9c-0.2,0.5-1,0.9-1.6,1.2c-0.3,0.1-0.8,0-1.2-0.1c-2.9-0.6-5.9-0.3-8.8,0.1
	c-1.1,0.2-2.2,0.4-2.7,1.6c1.1,1.4,2.5,1.5,4.1,1.2c3.1-0.6,4.2-0.1,5.7,2.6c0.5,0.8,0.9,1.7,1.2,2.6c0.5,1.6,1.7,2.4,3.2,3.1
	c0.3-1.7,0.5-3.3-0.5-4.6c-1.1-1.3-1.3-2.8-1.6-4.6c3.2-2.3,6.5-4.6,9.8-6.8c0.5-0.3,1.4-0.3,2,0c3.6,1.4,7.1,2.9,10.6,4.3
	c1,0.4,2,0.9,3,1.4c-0.9,2.2-1.6,4.2-2.5,6c-1.4,2.7-3.2,5-6.7,4.9c-1.3,3.4-2,7.1-5.1,9.4C121.3,51.3,122.4,53,123.6,54.8
	L123.6,54.8z M436.7,40.6c-1-3.6,0.7-6.3,2.7-8.7c0.8-1,2.1-1.2,3.3-1c1.3,0.3,2.7,0.5,3.9,1.1c1.4,0.7,2.1,0.2,3.1-0.6
	c-2.1-2.8-4.8-3.5-7.9-3.4c-2,0.1-4,0.2-5.9,0.4c-1,0.1-2,0-2.3-1.2c-0.3-1.1,0.3-1.8,1.3-2.3c0.5-0.2,1-0.4,1.8-0.8
	c-0.7-0.8-1.2-1.7-1.9-2.1c-4.3-2.7-8.6-5.3-12.9-7.8c-1.2-0.7-2.4-1.2-3.7-1.7c-2.2-0.8-4.4-1.5-6.6-2.3c-4.8-1.6-9.5-3.4-14.3-4.6
	c-5-1.2-10.1-1.7-15.2-1.8c-5.2,0-10.4,0-15.5,1.1c-4.9,1.1-9.8,2.4-14.6,3.7c-4.3,1.2-7.5,4-10.3,7.3c4.6-1.2,9.2-2.6,14-2.8
	c4.4-0.2,8.7-1.6,13,0.1c0.2,0.1,0.5,0,1.1-0.1c-1.3-1.1-2.4-2.1-3.5-3c0.5-1.1,1.2-1.1,1.9-0.8c2.1,0.8,4.1,1.8,5.4,3.7
	c1,1.5,2.2,3.1,2.7,4.8c0.7,2.3,2.4,3.1,4.3,3.7c0.7,0.2,1.6,0.3,2.4,0.3c1.6-0.2,2.6,0.5,3.3,1.9c0.3,0.6,0.8,1.2,1.1,1.9
	c0.8,2.1,2.3,3,4.6,3.2c2.6,0.2,4.7,1.4,5.7,4.1c0.2,0.6,0.7,1.1,1,1.6c0.6,1.1,1.5,1.6,2.8,1.6c2.6-0.1,4.4,1.2,5.8,3.2l5.1,7.5
	c0,0,3.6,4.9,6.5,6.2c2.2-0.9,3.9-2.4,5-3.9c-1.5-3.3-2.9-6.3-4.2-9.3H419c-3-0.2-4.1-1.7-3.5-4.5c1.1-4.8,2.2-9.5,3.4-14.2
	c0.1-0.6,0.4-1.1,0.7-1.9c5.9,3.4,11.3,7.3,16.6,11.2c-0.4,1.3-0.5,2.5-1.1,3.3c-2.1,2.8-1.5,5.4-0.1,8.4
	C435.4,41.7,436,41.2,436.7,40.6L436.7,40.6z M489.1,92.5c-0.4,0.8-1.2,1.7-1.3,2.7c-0.2,1.8-1,3.3-2.1,4.8
	c-0.3,0.4-0.6,0.8-0.6,1.3c-0.8,4.5-1.9,8.9-2.4,13.4c-0.6,5-1.7,9.7-4.9,13.8c-0.1,0.1-0.1,0.3,0,0.1c1.3,3.6,2.5,6.7,3.5,10
	c1.4,4.5,3,9,3.9,13.6c1.3,6.3,2.2,12.6,2.9,18.9c0.7,5.7,2,11.3,1.9,17.1c0,0.2,0.2,0.4,0.3,0.7c1.7,0.2,3.2-0.3,4.8-1
	c1.6-0.8,3.2-1.4,4.9-1.9c2.8-0.8,5.5,0.1,8.1,1.1c5.2-6.2,10.2-21.4,8.9-27h-1.6c-3.6,0-4.2-0.9-3.5-4.4c0.1-0.2,0.1-0.5,0.2-0.7
	c2.1-5.9,2.3-11.9,1.8-18c-0.3-3.1-0.6-6.2-0.9-9.5c-1,0.7-1.6,1.2-2.4,1.6c-1.9,1.2-3,0.6-3.1-1.7c0-0.3,0-0.6,0.1-1
	c0.5-5.2,0.2-10.4-0.4-15.5c-0.1-0.6-0.3-1.3-0.5-2c-1.1,0.8-1.8,1.5-2.7,2c-1.2,0.7-1.9,0.4-2.4-1c-0.2-0.4-0.4-0.9-0.4-1.4
	c-0.6-4.1-2.6-7.7-4.6-11.3C494.8,94.6,492.7,92.6,489.1,92.5L489.1,92.5z M440.7,231.9c0.2,0.1,0.3,0.2,0.5,0.3
	c0.8-1.2,1.7-2.3,2.4-3.5c2.6-4.2,3.4-8.9,3.7-13.8c0.1-0.7,0.1-1.5,0.3-2.1c0.3-0.9,1.3-1.2,1.8-0.4c0.6,1,1.2,2.1,1.4,3.2
	c0.2,1.3-0.1,2.7,0,4.1c0,0.7,0.2,1.7,0.7,2.1c1.4,1.4,3,2.6,4.5,3.9c0.6,0.5,1.1,1.1,1.7,1.7c1,1,1.1,2.1,0.4,3.3
	c-0.8,1.3-1.7,2.6-2.7,3.6c-4.4,4.6-9.6,8.2-15.2,11.2c-2.2,1.2-4.4,2.3-6.8,2.9c-11.1,3.1-22.3,4.9-33.9,3.2c-1-0.1-1.7,0-2.4,0.7
	c-0.6,0.6-1.3,1.1-2.3,1.9c1.4,0.5,2.2,0.9,3.1,1.2c6.2,1.9,12.6,2,19,1.7c10.1-0.6,19.4-3.8,28-8.9c4.1-2.4,8-4.9,12-7.5
	c1.4-0.9,2.7-2,3.9-3.1c1.8-1.7,3.2-3.8,3.9-6.2c-1.3-2-2.3-4-3.8-5.7c-1.7-2-3.1-4.2-5.7-5.3c-1.4-0.6-1.7-2.6-0.7-3.9
	c0.7-0.9,1.4-1.8,1.9-2.7c1.1-2.1,2-4.3,3.1-6.5c0.6-1.2,0.7-2.3,0-3.4c-1.6-2.5-3.1-5-5.9-6.4c-1-0.5-1.9-1.3-2.4-2.2
	c-0.6-1-1.5-1.4-2.5-2c-2.2-1.2-5.6-1.3-5.5-5h-0.4c-0.3,0.2-0.6,0.5-0.9,0.8c-1.9,2-4.2,3.1-6.8,3.8c-2,0.5-2.8-0.1-2.9-2.2v-3.8
	c-1,0.9-1.4,1.5-1.9,1.9c-1.2,1-2.3,2-3.6,2.7c-2.1,1.2-3.6,0.2-3.6-2.2v-2.1c-2.6,1.8-4.9,3.4-7.3,5.1c0.2,1.3,0.5,2.5,0.7,3.7
	c4.1-1.1,8.1-1.2,12.1-0.9c4.6,0.4,8.9,1.9,13.3,3c0.7,0.2,1.3,0.6,1.8,1c0.3,0.3,0.4,0.9,0.6,1.4c-0.5,0.2-1,0.5-1.5,0.4
	c-1.3-0.1-2.5-0.6-3.7-0.7c-2.8-0.2-5.6-0.6-8.3,0.2c-2.1,0.6-4,1.6-5.3,3.6c4.5,6.3,4.8,13.5,4,21.3c1.3-1.5,1.8-2.9,2-4.4
	c0.3-1.6,0.7-3.1,1.1-4.7c0.1-0.4,0.7-1,1.1-1s0.9,0.5,1.3,0.9c0.2,0.3,0.2,0.7,0.4,1.1c1.2,3.4,0.9,6.8,0.1,10.2
	c-0.1,0.5-0.1,1-0.2,2c1.7-1.7,2.2-3.4,2.8-5c0.7-1.7,1.1-3.5,1.8-5.2c0.6-1.6,0.1-3.5,1.6-5.1c0.5,1,0.7,1.8,1.2,2.5
	c1.1,1.4,1.2,2.9,1,4.5s-0.5,3.2-0.9,4.7C441.9,228.1,441.3,230,440.7,231.9L440.7,231.9z M102,188.4h-0.6c0.4,1.8-0.3,2.8-1.6,3.5
	c-1.3,0.6-2.6,1.3-3.9,1.7c-0.9,0.3-1.4,0.8-1.9,1.6c-0.8,1.1-1.8,2.1-3,2.7c-2.2,1.1-3.3,3.2-4.8,4.9c-0.2,0.2-0.3,0.6-0.3,0.9
	c0.1,1.7,0,3.6,0.6,5.2c1.1,2.7,1.8,5.6,3.9,7.9c1.1,1.2,0.7,3.2-0.7,3.9c-3.2,1.7-5.5,4.4-7.1,7.5c-1.9,3.5-1.1,7.2,1.8,9.8
	c1.4,1.2,2.9,2.3,4.4,3.3c2.9,1.9,5.9,3.9,9,5.6c4.3,2.4,8.5,4.8,13,6.6c5.7,2.3,11.8,3.5,18,3.8s12.3,0.1,18.3-1.7
	c1-0.3,2.1-0.7,3.5-1.2c-1-0.9-1.6-1.5-2.3-2.1c-3.5,1.4-6.9,2.1-10.5,1.8c-3.7-0.4-7.5-0.8-11.2-1.4c-4.9-0.8-9.8-1.5-14.6-2.7
	c-9.8-2.5-17.5-8.3-24.3-15.6c-0.9-1-1.5-2.2-2.2-3.4c-0.7-1.4-0.4-2.9,0.9-3.6c2.4-1.3,4.4-3.1,6.5-4.9c1.1-1,1.5-1.9,1.3-3.3
	c-0.1-1.3-0.1-2.6,0-3.8c0.2-1.4,0.6-2.8,2.5-3.6c0.3,0.7,0.8,1.3,0.9,2c0.2,1.3,0.2,2.5,0.4,3.8c0.4,4.2,1.6,8.1,3.8,11.7
	c0.6,1,1.2,2.1,2.3,2.8c-0.8-3.3-1.5-6.5-2.4-9.7c-0.8-3,0.7-5.3,2.2-8.1c0.4,0.8,0.7,1.2,0.8,1.7c0.5,3.9,1.9,7.6,3.6,11.1
	c0.4,0.8,0.9,1.6,1.3,2.3c0.3-0.7,0.2-1.3,0.1-1.8c-0.3-1.9-0.7-3.8-0.7-5.7c0.1-1.8,0.6-3.6,1.1-5.4c0.1-0.5,0.9-1,1.3-1
	s0.8,0.8,1.1,1.3c0.2,0.4,0.2,0.9,0.2,1.4c0.2,1.5,0.3,3,0.6,4.5c0.5,2.8,1.7,5.3,3.6,7.4c-2.3-10.9-1-20.9,6.2-29.8
	c-0.5-1.4-1.6-2-2.9-2.1c-2-0.2-4-0.2-6-0.4c-0.8-0.1-1.6-0.3-2.6-0.4c0.7-1.5,1.9-1.7,2.9-2c3.6-1.2,7.2-1.2,10.9-0.2l2.4,0.6
	c-0.2-1.8-0.4-3.2-0.5-4.6c-1.7-1.3-3.5-2.6-5.4-4.1v2.3c0,2.5-1.6,3.5-3.8,2.2c-1.4-0.8-2.6-2.1-3.9-3.1c-0.4-0.3-0.8-0.6-1.5-1.2
	v3.5c-0.1,2.1-0.9,2.7-2.9,2.2c-2.6-0.6-5-1.7-6.8-3.7C102.7,189,102.3,188.7,102,188.4L102,188.4z M339,165.2
	c-0.5,1.2-1,2.4-1.4,3.5c-0.9,2.7-1.6,5.6-2.7,8.1c-3,6.7-6.4,13.3-9.5,19.9c-3.2,6.8-6.3,13.6-9.5,20.4c-1.5,3.3-2.9,6.6-4.3,9.9
	c-2.7,6.4-5.3,12.8-8,19.3c-0.9,2.2-1.9,4.4-2.7,6.7c-0.5,1.2-0.9,2.5-0.7,4.5c0.5-0.9,0.8-1.3,1-1.7c4.1-7.2,8.2-14.5,12.2-21.7
	c1.4-2.5,2.8-5,4.1-7.6c2.1-4.2,4.1-8.5,6.2-12.7c0.4-0.7,0.9-1.4,1.5-2.2c1.1,1.5,0.4,2.6-0.1,3.8c-2.7,6.6-5.4,13.2-8.2,19.7
	c-3.2,7.5-6.6,14.9-10,22.3c-1.7,3.8-2.9,7.8-3.7,11.8c3.2-5,6.3-9.9,9.1-15.1c5.2-9.6,10.1-19.2,15.2-28.9c1.5-2.8,3-5.5,4.5-8.2
	c2.5-4.4,5.1-8.7,7.6-13.1c3.5-6.3,6.9-12.6,8.8-19.7c0.8-2.9,1.5-5.9,2.1-8.9c0.4-2-0.4-2.8-2.4-3c-1.5-0.1-2.7,0.3-3.3,1.8
	c-0.3,0.7-0.7,1.4-1,2.2c-3.2,6.7-6.3,13.5-9.4,20.2c-0.6,1.4-1.5,2.5-2.8,3.5c-0.1-0.9-0.2-1.8,0.1-2.5c2-5.6,4.1-11.1,6.2-16.6
	c1.4-3.7,3-7.2,4.5-10.9C343.3,167.4,342.3,165.7,339,165.2L339,165.2z M391.6,179.3c2.6,1.8,3.1,4.2,2.7,6.8
	c-0.3,2.2-1,4.4-1.4,6.6c-0.2,1.2-0.2,2.4,0,3.5c0.3,1.7,1.1,2.3,2.9,2.2c1.6-0.1,3.2-0.4,4.2-1.9c0.8-1.2,2.1-1.3,3.2-1
	c1.3,0.3,1.2,1.6,1.2,2.6c0.1,0.9,0,1.8,0.1,2.6c0.2,2.1,0.3,4.2,0.8,6.2c0.7,2.9,1.9,3.4,4.9,2.5c-0.6-2.2-1.2-4.5-1.6-6.7
	c-0.2-1.1-0.1-2.2,0-3.3l1.2-9.3c0.1-0.6-0.1-1.2-0.2-2.2c-0.9,0.8-1.7,1.1-2.1,1.8c-1.2,1.8-3.1,2.4-5,3c-1.8,0.5-3.4,0.1-4.8-0.9
	c-1.6-1.1-2.3-2.9-2.2-4.8c0-0.7,0.6-1.4,1.1-1.9c0.2-0.2,1,0.4,1.6,0.6c0.6,0.3,1.2,0.7,2.2,1.2c-0.7-4.8,0.9-9.2-0.7-13.8
	c-2.8,2.3-5.6,2.6-8.6,1.6c-1.6-0.6-2-1.2-1.5-2.9c0.1-0.5,0.3-0.9,0.3-1.4c-0.1-2.4,0-4.8-0.3-7.2c-0.2-2.2-0.8-4.3-1.8-6.5
	c-0.7,0.5-1.1,1-1.6,1.2c-1.9,0.9-3.9,1.9-5.9,2.5c-2.1,0.6-3.3-0.5-3.6-2.7c-0.1-0.6-0.1-1.3-0.1-1.9c-0.3-3.3-1.3-6.4-3.6-9
	c-0.3,0.4-0.5,0.7-0.7,1.1c-1.4,2.5-3.9,3.2-6.5,3.4c-2.3,0.1-4.8-1.8-5.5-3.9c-0.6-1.8-1.1-3.7-1.7-5.5c-0.3-0.8-0.6-1.6-0.9-2.5
	c-1.4,1.2-2.5,2.3-3.8,3.2c-1.7,1.2-3.5,0.5-4.1-1.5c-0.2-0.7-0.3-1.4-0.4-2.1c-0.5-3.4-2-6.4-3.8-9.2c-0.3-0.4-0.5-0.9-0.9-1.6
	c-1.4,2.8-3,4.4-5.5,4.9c-2.1,0.4-3.6-0.5-4-2.6c-0.3-1.3-0.5-2.5-0.7-3.8c-0.5-2.6-1.5-4.9-3.2-7.2c-2.2,3.2-4.8,5.7-8.2,7.2
	c-3,1.3-6,2.4-9.3,1.6c-4.1-1.1-7.8-3.1-10.5-6.4c-2.8-3.4-4.4-7.3-2.5-11.8c0.1-0.3,0-0.7-0.1-1.2c-2.5,0.9-4.5,2.1-6.5,3.5
	c-1.8,1.3-3.1,0.9-4-1.1c-0.7-1.4-1.3-2.9-1.8-4.2c-2.4,1-4.7,1.9-7.2,2.9c0.8,1,1.4,1.7,1.8,2.2c0.4,0,0.5,0.1,0.6,0.1
	c3.1-1,3.1-0.9,4.4,1.9c0.8,1.7,2,3,4.1,3.4c1-1.3,1.8-2.5,2.8-3.7c0.7-0.8,1.6-1,2.6-0.6c0.9,0.4,1.2,1.2,1.1,2.2
	c-0.1,0.6-0.2,1.1-0.2,1.7c-0.1,1.5,0.3,2.8,1.5,3.8c1.3,1.2,2.4,2.6,3.5,3.9c2.4,2.8,5.3,5.1,8.9,6.2c4,1.1,7.9,0.7,11.7-0.4
	c0.6-0.2,1.1-0.6,1.6-1c0.9-0.8,1.6-1.7,2.5-2.5c1.3-1.1,2.7-0.9,3.1,0.5c0.5,2.1,0.7,4.2,1.2,6.3c0.3,1.2,0.6,2.5,1.4,3.4
	c0.4,0.5,1.8,0.2,2.7,0.2c0.2,0,0.5-0.1,0.7,0c2.1,0.3,3.6-0.3,4.8-2.2c1-1.6,3-1.1,3.7,0.7c0.3,0.9,0.6,1.8,0.7,2.8
	c0.5,3.7,3,6,5.8,8c0.9-0.5,1.6-1,2.4-1.3c1.4-0.6,2.3-0.2,2.7,1.3c0.1,0.5,0.1,0.9,0.2,1.4c0.1,1.7,0.8,3,2.2,4.1
	c1.5,1.2,2.8,2.6,4.1,4.1c1.2,1.3,3.3,1.6,4.6,0.3c0.8-0.8,1.5-1.5,2.7-0.9c1.1,0.5,1.4,1.5,1.3,2.6c-0.1,1.7-0.3,3.5-0.5,5.2
	c-0.1,0.8-0.3,1.5,0.5,2.2c2,1.6,4.3,2.3,6.7,1.1c1-0.5,1.7-1.5,2.7-2.4c0.9,0.1,1.7,0.5,2.1,1.5c1.4,3.6,2.3,7-0.9,10.2
	c-0.5,0.5-0.9,1.3-0.8,1.9c0.4,1.8,1.6,2.8,3.3,3.4c1.5,0.6,2.8,0.5,4-0.7C390.2,180.4,390.9,179.9,391.6,179.3L391.6,179.3z
	 M54.5,92.5c-0.9,0.4-2,0.6-2.6,1.1c-1.3,1.2-2.6,2.4-3.5,3.9c-2.3,3.7-3.8,7.7-4.8,11.9c-0.4,1.9-1.2,2.1-2.9,1.1
	c-0.8-0.5-1.5-1.1-2.3-1.7c-0.2,0.7-0.4,1.1-0.4,1.6c-0.6,5.2-0.9,10.3-0.5,15.5c0,0.6,0.1,1.3,0,1.9c-0.2,1.7-1.1,2.2-2.7,1.3
	c-0.9-0.5-1.7-1.1-2.7-1.8c-0.3,2.8-0.6,5.3-0.7,7.9c-0.2,3.9-0.4,7.8-0.1,11.7c0.2,2.5,1.1,5,1.6,7.5c0.2,1.1,0.4,2.2,0.3,3.3
	c0,1.6-0.4,2-1.9,2.1c-1.1,0.1-2.2,0-3.3,0c-1.1,6.3,3.9,21.4,9,27.1c4.5-2.2,8.9-1.7,13.2,0.8c0.9,0.5,1.9,0.8,2.9,0.9
	c1.5,0.2,1.8-0.2,2-1.7c0.3-3.2,0.6-6.5,1.1-9.7c1-7.6,2.1-15.2,3.2-22.8c1.3-8.6,4-16.8,7.5-24.7c0.4-0.8,0.5-1.4-0.1-2.2
	c-3.1-3.8-4-8.4-4.5-13.2c-0.4-3.6-1.2-7.2-1.9-10.8c-0.1-0.6-0.6-1.1-0.9-1.6c-1-1.6-2.1-3.2-3-4.9C55.6,95.8,55.2,94.3,54.5,92.5
	L54.5,92.5z M485.7,188.1c0.1-0.7,0.2-1.3,0.1-1.9c-0.3-3.3-0.7-6.5-1.1-9.7c-1-7.8-1.8-15.7-3.1-23.5c-1.3-7.9-4-15.4-6.6-23
	c-0.4-1.2-1.1-1.6-2.3-1.6c-0.8,0-1.6,0-2.4-0.2c-3.6-0.8-7.2-1.6-10.7-2.4c-1.1-0.2-2.2-0.3-3.1,0.7c-3.3,3.7-7.6,5.5-12.3,6.5
	c-3.3,0.7-6.7,1.1-10.4,1.7c-0.2,3.1-0.2,6.4,1,9.5c1.9,5.2,5.5,9.1,10.3,11.9c1,0.6,1.9,1.2,2.8,1.8c0.7,0.5,1.7,1.1,1.2,2.1
	c-0.4,0.8-1.2,1.4-2,1.9c-0.7,0.4-1.6,0.5-2.7,0.8c2.8,3.8,4.9,7.7,9.2,9.5c0.7,0.3,1.3,0.6,1.9,0.9c1.8,1,1.9,2.3,0.2,3.5
	c-0.9,0.6-1.9,1.1-3,1.7c0.5,0.7,0.9,1.3,1.4,1.8c1.1,1.2,2.3,2.2,3.4,3.4c2.6,2.9,4.8,6.1,5.5,10.2c0.1,0.5,0.2,1,0.4,1.7
	c3.8-4.2,7.5-7.8,12.2-10.4c0.3-0.1,0.5-0.4,0.7-0.7c0.8-0.9,1.7-1,2.6-0.4s1.8,1.3,2.5,2.1C482.7,187.1,483.8,188.2,485.7,188.1z
	 M404.8,290.1c0.3,0.2,0.4,0.3,0.6,0.4c5.3,1.2,10.6,1.6,16,1.3c6.5-0.4,13.1-0.9,19.6-1.3c5.8-0.4,11.6-1.5,17.2-3.3
	c4.4-1.4,8.8-2.8,13.2-4.4c3.3-1.2,6.4-2.8,9-5.4c1.5-1.5,2-3.9,0.8-4.9c-1.3-1.2-1.2-2.3-0.6-3.6c0.3-0.7,0.4-1.4,0.6-2.1
	c0.5-2.4-0.4-4.2-2.2-5.5c-1.8,0.5-3.5,0.9-5.2,1.6c-7,2.9-14,5.9-21,8.8c-6.8,2.9-14,4.7-21.2,5.8c-4.9,0.7-9.9,0.5-14.8,0.6
	c-3.3,0.1-6.5,0.2-9.8,0.4c-0.8,0.1-1.6,0.7-2.6,1.2C405.8,283.3,406,286.7,404.8,290.1z M367.5,321.1c1.3,0.1,1.9,0.2,2.6,0.1
	c3.5-0.3,6.7-1.1,9.9-2.7c1.8-0.9,3.6-1.6,5.5-2.2c4.5-1.4,9.3-1.9,14-1.8c7.7,0.1,15.5,0.5,23.2,0.8c8.8,0.4,17.3,1.9,25.3,5.5
	c3.3,1.5,9.7-1,10.5-4.7c0.3-1.3,1-2.3,2.1-3.1c1.5-1.2,2.3-2.8,1.8-5c-3.1-0.5-6.2-0.9-9.3-1.3c-3.2-0.4-6.5-0.7-9.8-1.1
	c-4.7-0.6-9.3-1.3-14-1.8c-3.3-0.3-6.5-0.4-9.8-0.6c-5.8-0.4-11.6-0.4-17.5,0.4c-1.1,0.1-2.2,0.3-3.3,0.3c-7.3,0.5-14.7,0.6-21.9,2
	c-1.7,0.3-3.4,0.6-4.4,1.5c-0.1,2.8,0,5.2-0.3,7.5C371.8,317.5,369.8,319.1,367.5,321.1L367.5,321.1z M141.2,289.9
	c-0.1-0.8-0.3-1.3-0.3-1.8c0-1.8-0.2-3.7,0.1-5.5c0.3-2.3-0.7-4-2.9-4.1c-3.3-0.2-6.7-0.3-10-0.4c-5.1-0.2-10.3,0-15.3-0.8
	c-10.1-1.6-19.8-5-29.1-9.3c-4.1-1.9-8.3-3.4-12.3-5.3c-2.5-1.2-4.3,0-6.1,1.3c-1.3,0.9-1.7,2.3-1.1,3.8c0.2,0.5,0.4,1.1,0.6,1.6
	c0.4,1.1,0.4,2.1-0.6,2.8c-1,0.7-1.1,1.6-0.7,2.6c0.4,1,0.8,2.1,1.6,2.8c2.8,2.8,6.4,4.5,10.1,5.7c3.3,1.1,6.7,2.1,10,3.3
	c4.6,1.6,9.4,2.8,14.2,3.3c6.8,0.7,13.5,1.1,20.3,1.6c6.4,0.5,12.8,0.6,19.1-0.9C139.5,290.4,140.3,290.1,141.2,289.9z M198.3,345.2
	c-1.3-1.9-2.5-3.6-3.7-5.4c-1.7-2.5-2-5.2-1.3-8c0.2-0.7,0.4-1.4,0.6-2.4c-1.5-0.4-2.8-0.8-4.2-1c-9.7-1.3-19.3-0.3-28.9,1.2
	c-4.6,0.7-9.2,1.3-13.7,2.2c-4.7,0.9-9.3,2.1-14,3.2c-2.2,0.5-4.4,1.3-6.7,1.9c-3.5,0.8-4.4,1.9-4.3,5.4c0.1,2.4,0.5,4.8-1.2,6.7
	c0.8,1.6,2.1,2.3,3.5,2.7c1,0.3,1.9,0.2,2.7-0.5c3.1-2.5,6.7-4.1,10.3-5.6c2.2-0.9,4.5-1.8,6.8-2.1c6.4-0.9,12.9-1.6,19.4-1.1
	c6.3,0.4,12.6,0.9,18.6,2.8c2.6,0.9,5.4,1.3,8.2,1.8C193.4,347.5,196.1,346.9,198.3,345.2L198.3,345.2z M82.3,308.2
	c0.1,2.9,0.5,3.6,2.2,5.2c0.7,0.7,1.4,1.6,1.6,2.5c0.9,4,7.7,6.8,11,4.9c1.6-1,3.5-1.7,5.3-2.1c6.7-1.5,13.3-3.3,20.3-3.3
	c7.7-0.1,15.5-0.7,23.2-0.7c6.9,0,13.7,1,19.9,4.4c2.8,1.5,6,2.1,9.2,2.3c0.5,0,1-0.2,1.8-0.3c-4.7-3.7-5.4-8.3-4.3-13.6
	c-1.2-0.4-2.2-1-3.3-1.2c-3.9-0.6-7.7-1.2-11.6-1.6c-5.2-0.5-10.5-0.7-15.8-1.1c-2.9-0.2-5.9-0.5-8.9-0.5c-4.6,0.1-9.3,0.3-13.9,0.6
	c-2.3,0.1-4.6,0.2-6.9,0.5c-7.1,0.9-14.3,1.8-21.4,2.8C88.1,307.2,85.2,307.7,82.3,308.2L82.3,308.2z M423.9,349.4
	c-1.5-2.8-1.5-3-1.4-5.9c0-0.9,0.1-1.8,0.1-2.6c-0.1-2.1-1.3-3.3-3.3-3.8c-2.2-0.5-4.4-0.9-6.5-1.7c-4.6-1.7-9.4-2.7-14.2-3.4
	c-9-1.5-18-2.7-27-3.8c-6.1-0.7-12.3-0.5-18.4,0.6c-1,0.2-2,0.8-3,1.2c0.2,1.1,0.4,1.9,0.5,2.7c0.8,4.1,0.2,8-2.9,11.1
	c-0.4,0.4-1,0.7-1.6,1.2c2.6,1.9,5.1,2.5,7.8,2c2.2-0.4,4.5-0.6,6.6-1.3c5.5-1.8,11.2-2.6,16.9-3.2c8-0.7,16-0.2,23.9,1.1
	c5.8,1,10.9,4,15.7,7.3c1.4,1,2.6,1.1,4,0.4C422.1,350.9,422.9,350.1,423.9,349.4L423.9,349.4z M278.1,361
	c5.8-15.6,11.6-31.5,18.6-46.9c-4.5-5.5-10.1-9-16.8-10.7c-2.5-0.6-5-1.3-7.5-1.9c-1.7,0.5-3.5,1.1-5.4,1.4
	c-5.6,1.1-10.6,3.5-15,7.2c-1.5,1.2-2.7,2.7-3.9,3.9c3.7,8,6,16.2,9.7,23.8c3.7,7.6,6.9,15.4,10.3,23.2H278.1L278.1,361z
	 M343.6,370.6c-1.6-0.1-2.7-0.3-3.7-0.3c-2.8-0.1-3.6,0.5-4.5,3.1c-0.3,0.9-0.2,1.6,0.4,2.2c2.3,2.1,4.4,4.7,7.8,5.3
	c1.4,0.3,2.8,0.6,4.2,1c2.3,0.6,4.7,1.1,6.9,1.9c2,0.8,3.7,2.2,5.7,3c3.8,1.5,6.9,4,9.4,7.2c1.8,2.2,3.7,4.4,6.4,5.7
	c1.4,0.7,2.6,0.8,3.7-0.3c0.3-0.3,0.6-0.6,0.9-0.8c2.4-0.9,2.6-2.9,2.5-5.1c-0.1-6-2.9-10.9-6-15.7c-1-1.5-2-2.9-3.2-4.2
	c-2.7-2.7-5.6-5.2-8.3-8c-2.8-2.9-6-4.8-9.8-5.7c-2.9-0.7-5.7-1.4-8.7-1.7c-2.5-0.2-5.2-0.5-6.5,2.7c-0.1,0.3-0.5,0.4-0.7,0.6
	c-1.6,1-1.9,2.6-1.9,4.4c2.5,1.1,5.8,0.9,6.7,4.3c2.4,0,4.3-1.2,6.3-1.9c1.6-0.6,3.1-0.7,4.7-0.1c2.5,1,5,2.1,7.1,4
	c5.6,5.1,10.3,10.9,14,17.5c0.7,1.3,1,2.8,1.5,4.3c0.3,1,0.3,2-0.8,2.5s-1.9-0.1-2.4-1c-1.9-2.9-4.5-4.9-7.2-6.9
	c-5.8-4.5-12.2-7.4-19.6-8.4c-1.9-0.2-3.8-1.1-5.6-2c-1-0.5-1.8-1.5-2.4-2.5c-0.8-1.4-0.4-2.2,1-3.1
	C342,372.1,342.6,371.5,343.6,370.6z M327.3,296.7c0.1,0.1,0.3,0.2,0.4,0.4c4.9-4.4,9.8-8.9,14.8-13.3c3.4-3.1,7-6.1,10.4-9.2
	c3.6-3.3,7.2-6.6,10.7-9.9c1.6-1.5,3-3.3,4.7-4.8c4.3-3.8,8.7-7.5,13.2-11.2c1.3-1.1,2.9-2,4.5-2.6c3-1.1,6.1-1.9,9.1-3
	c1.8-0.6,3.6-1.3,5.3-2.2c4.2-2.2,7.6-5.5,10.7-9.1c4-4.7,7-9.9,8.8-15.8c0.2-0.6,0.2-1.2,0.4-2.1c-1.2,0.6-2.1,1.1-3,1.6
	c-2.2,1.4-4.7,1.4-7.2,1.2c-1.3-0.1-2.6-0.6-4-0.7c-2.8-0.2-5.4-1-7.8-2.3c-1.2-0.7-2.3-0.8-3.3-0.1v11.7c2.1-2.2,2.2-4.8,3.3-7.1
	c0.5,0,1-0.1,1.5-0.1c3.7,0.1,7.2,1.4,10.9,0.8c1.3-0.2,2.1,1.4,1.6,2.6c-0.8,1.8-1.7,3.6-2.8,5.2c-1.3,1.9-2.8,3.7-4.2,5.5
	c-2.1,2.7-4.5,5-7.7,6.4c-3.7,1.6-7.5,3.2-11.4,4.4c-4.8,1.5-9.4,3.4-13.9,5.5c-0.8,0.4-1.5,0.9-2.3,1.3c-0.8,0.4-1.7,0.6-2.8,1.1
	c1,0.7,1.7,1.3,2.4,1.8c-2.2,4.4-6.2,5-10.7,5.6c1.3,0.9,2.3,1.5,3.3,2.1c-1.4,2-3,3-4.9,3.9c-2.6,1.2-5,2.7-8.1,3.6
	c1.1,0.8,1.9,1.4,2.9,2.1c-1.2,2.2-2.6,3.9-5.1,4.6c-1.8,0.4-3.5,1.2-5.6,2c1.2,0.5,2.1,1,3.2,1.5c-2.9,3.4-6.3,5.2-10.5,5.4
	c0.5,0.4,0.9,0.7,1.4,0.9c1.5,0.6,1.6,0.9,0.7,2.2c-0.9,1.3-2,2.5-3,3.7C331.1,292.3,329.2,294.5,327.3,296.7z M206.5,365.9
	c0.5-3.4-2.7-4.6-3.9-7c-0.1-0.1-0.3-0.2-0.4-0.2c-1.5-0.2-3-0.6-4.5-0.5c-4.4,0.4-8.6,1.5-12.7,3.1c-2.6,1-4.4,3.1-6.5,4.8
	c-4,3.4-7.8,7.1-10.8,11.4c-3.2,4.6-5.9,9.5-6.2,15.3c-0.1,2.6,0.1,4.8,2.9,5.8c0.2,0.1,0.4,0.2,0.6,0.4c1.2,1.3,2.4,1,3.9,0.3
	c2.9-1.5,4.8-3.9,6.8-6.3c2.2-2.6,4.7-4.8,7.9-6c0.8-0.3,1.7-0.7,2.4-1.2c3.2-2.3,6.8-3.5,10.6-4c4.4-0.7,8.5-2,11.6-5.5
	c1.7-1.9,1.9-2.1,0.7-4.3c-0.7-1.3-1.5-2.2-3.2-1.9c-1.1,0.2-2.2,0.2-3.3,0.2c-0.7,0-1.4-0.1-2.3-0.1
	C201,366.6,204.4,367.1,206.5,365.9L206.5,365.9z M281.6,363.6c1.8,0.8,3.2,1.5,4.6,2.1c0.9,0.4,1.9,0.2,2.7-0.5
	c1.9-1.7,4.1-3.1,5.8-5c4.6-4.9,9-9.9,13.5-14.9c3.1-3.5,6.1-7,9.2-10.4c0.5-0.6,1.2-1,1.8-1.6c1.7-1.7,3.3-3.4,5-5.1
	c-2.7-4.5-6.5-7.4-10.6-9.6c-4.2-2.2-9.2-2.1-14.1-2.3C292.9,331.8,288.2,347.9,281.6,363.6z M80.5,315.7c-2.1-3.9-5.3-4.2-7.7-0.8
	c-1.1,1.6-2,3.2-3,4.9c-2.4,4.3-4.6,8.8-7.2,12.9c-4.1,6.5-8.3,12.9-11.5,19.9c-0.8,1.9-1.6,3.8-2.2,5.8c-0.9,3.2,0.4,7.2,2.7,8.6
	c1.8,1.1,2.5,1.1,4-0.4c1.4-1.5,3-2.5,5-3.2c1-0.4,2-0.9,2.9-1.6c0.7-0.5,1.3-1.3,1.6-2c0.6-1.6,1.1-3.2,1.4-4.8
	c1.7-7.5,5.1-14.2,8.9-20.8c1.8-3.1,4.2-5.8,6.7-8.4c1.7-1.8,1.8-3.6,0.5-6.1c-4.3,3.7-8.7,7.2-10.8,12.8c-0.2,0.6-0.5,1.1-0.9,1.8
	c-0.6-0.8-1.1-1.5-1.6-2c-0.9-0.9-0.9-1.8-0.2-2.8c0.8-1.1,1.7-2.1,2.4-3.3C73.9,322.1,76.9,318.7,80.5,315.7z M496.3,360.4
	c-0.2-2.8-1.3-5.3-2.5-7.7c-3.2-7-7.4-13.4-11.5-19.9c-2.7-4.2-4.8-8.6-7.3-12.9c-1.1-1.9-2.1-3.8-3.4-5.5c-0.9-1.3-2.3-2-4-1.7
	s-2.7,1.5-3.3,3.1c-0.5,1.3-1.1,2.6-2,3.7c-0.7,0.9-1,1.8-0.9,2.8c0.1,1.4,0.6,2.6,1.6,3.6c3.7,3.6,6.5,7.9,8.8,12.4
	c3.3,6.3,5.9,13,7.5,19.9c0.6,2.6,2.1,4.1,4.4,4.9c2.2,0.8,4.2,1.9,5.8,3.7c1.1,1.1,1.8,1.1,3.2,0.4
	C495.7,365.8,495.9,363,496.3,360.4L496.3,360.4z M467.8,229.8c1.3,0.7,2.5,1.1,3.6,1.8c1.9,1.3,3.8,1.4,6,1.1
	c4.2-0.6,8.1-1.8,11.9-3.7c5.4-2.7,10.1-6.3,13.3-11.4c3.1-5,5.2-10.5,6.4-16.2c0.5-2.6,0.6-5.2,0.8-7.9c0-0.6-0.2-1.2-0.3-1.7
	c-1.2-0.3-2.3-0.4-3.2-0.7c-1.9-0.6-3.6-0.4-5.3,0.5c-1.3,0.6-2.6,1.3-3.9,1.7s-2,1.1-2.4,2.4c-1,3.3-2.7,6.3-5.2,8.8
	c-2,2-4.1,3.8-6.1,5.7c-2.4,2.3-5.2,3.9-8.6,4.5c-0.9,0.1-1.4,0.6-1.8,1.4C470.7,220.3,469.1,224.8,467.8,229.8L467.8,229.8z
	 M245.2,316.6c-0.9,0.1-1.5,0.2-2.3,0.2c-2.2,0.1-4.4,0.1-6.7,0.3c-2.2,0.2-4.2,1.3-6.2,2.2c-3.9,1.6-6,4.6-7.5,8.2
	c-0.6,1.4-0.4,2.5,0.8,3.6c2.1,1.8,4.1,3.8,6,5.9c4,4.5,8,9.2,12,13.7c4.3,5,8.7,10,14.1,14c0.8,0.6,1.6,1.4,2.8,1.1
	c2.3-0.5,4.2-1.6,6.1-3.4c-2.7-0.4-4.7,1.8-7.3,0.9c0.2-0.8,0.3-1.4,0.5-2.1c-0.3-0.1-0.6-0.1-0.8-0.2c-0.4-0.3-0.9-0.6-1.3-0.9
	c0.3-0.4,0.6-0.8,1-1.1c0.4-0.3,0.9-0.5,1.6-0.9c-2.4-1-5.1,0.6-6.9-1.4c0.9-2.1,3-1.9,4.6-3c-2.6-2.1-5.6,0.1-8.2-1
	c0.6-2.8,3.4-2.6,5.1-3.9c-0.3-0.6-0.6-1.1-0.9-1.6c-3.1,0.1-5.4,3.1-8.7,2c0.3-1.5,1.3-2.3,2.4-3c1-0.7,1.9-1.4,3.3-2.4
	c-3.3-0.1-5.9,1.4-8.9,0.5c1.5-3.4,5-3.2,7.6-4.9c-2.4-0.5-4.4-0.9-6.6,0.2c-0.8,0.4-1.9,0.4-2.8,0.5c-0.7,0.1-1.6,0.3-1.9-0.6
	c-0.3-1,0.6-1.4,1.2-1.8c0.2-0.2,0.6-0.3,0.9-0.4c2.1-0.9,4.2-2,6.6-2c0.1,0,0.1-0.2,0.2-0.5c-4.2-1.4-8.4,0.8-12.8,0.3
	c0.2-0.6,0.2-0.9,0.4-1.1c2.6-2.3,6.1-2.6,9.1-4.1c-0.4-1-1.2-0.8-1.9-0.8c-2.7,0-5.4,0.4-8,1.4c-0.8,0.3-1.6,0.6-2.5,0
	c0.3-0.4,0.4-0.6,0.6-0.8c2.4-2.2,5.3-3.7,8.4-4.7c-0.3-1.2-1-1-1.6-0.8c-2.5,0.6-4.9,1.3-7.4,1.9c-0.8,0.2-1.6,0.3-2.5,0.4
	c-0.1-0.2-0.1-0.4-0.2-0.6c2.5-2.5,5.9-3.3,9-4.8c3.3-1.6,6.8-2.1,10.6-1.8C245.8,318.2,245.5,317.4,245.2,316.6L245.2,316.6z
	 M35.3,191.9c0,1.7-0.1,3.4,0,5c0.5,5,2.1,9.6,3.9,14.3c3,7.7,8.1,13.5,15.4,17.3c4.3,2.2,8.8,3.8,13.6,4.3c1.4,0.1,2.8-0.2,4.2-0.6
	c1.2-0.4,2.3-1.1,3.4-1.7c0.4-0.3,0.8-0.7,1.3-1.1c-1.4-3.8-2.8-7.4-4.1-11.1c-0.5-1.3-1.2-2-2.7-2.3c-4.9-0.9-9.4-2.7-12.8-6.6
	c-3.6-4.2-7.3-8.3-7.7-14.3c-0.1-0.9-0.6-1.2-1.3-1.5c-1.7-0.7-3.4-1.5-5.1-2.2c-1.4-0.6-2.9-0.8-4.4-0.4
	C38,191.3,36.8,191.5,35.3,191.9L35.3,191.9z M197.4,450.9c1.3,3.7,3.9,5.3,7.4,5.3c1.2,0,2.4,0.3,3.6,0.3c4.7,0,9.2-1,13.3-3.4
	c2.5-1.4,4.8-3.2,7-5c2.6-2.1,4.7-4.7,6.1-7.9c1.3-3.1,0.8-6.5-1.6-8.6c-2.8-2.4-6-4.1-9.4-5.1c-3.6-1-7.4-1.5-11.2-1.1
	c-1.4,0.1-2.9,0.3-4.2,0.9c-3.6,1.7-6.4,4.2-8.1,7.8c-0.1,0.1,0,0.3,0,0.6c0.3,0.5,0.7,1,1.1,1.6c5-5.4,5-5.4,6.7-5.4
	c-1.1,2.2-2.2,4.3-3.2,6.3c1.1,0.9,1.4,0.3,1.8-0.4c1-1.6,1.9-3.3,3-4.8c0.5-0.6,1.3-1,2.4-1.8c0,3.3-2.1,5.5-2.2,8.6
	c0.6-0.5,1.1-0.7,1.2-1.1c0.5-1,0.7-2.2,1.2-3.1c0.8-1.5,1.7-3.1,2.7-4.5c0.3-0.5,1.3-0.9,1.8-0.8c0.9,0.3,0.7,1.3,0.4,2.1
	c-0.2,0.5-0.5,1-0.7,1.5c-0.6,1.6-1.3,3.2-1.6,4.9c1,0.2,1.3,0,1.6-0.8c0.5-1.4,1.2-2.8,1.9-4.1c0.5-0.9,1.4-1.5,2.3-2.4
	c1.5,2.5-0.7,4.3-0.4,6.4c1.3-1.9,1.3-4.7,4-5.8c0.5,1.5,0.1,2.8-0.1,4.1c-0.2,1.8-1.2,3-2.8,3.6c-3.2,1.2-6.4,2.4-9.7,3.4
	c-1.1,0.3-2.4,0.1-3.6,0.1H205c0.6,0.4,1.2,0.7,1.8,0.7c3.7,0,7.4-0.2,10.9-1.3s7-2.2,10.7-2.6c1.1-0.1,1.9,0.1,2.4,1
	c0.6,0.9,0.3,1.7-0.3,2.4c-1.1,1.2-2.2,2.4-3.3,3.5c-4.4,4.2-9.4,7.2-15.5,8c-4.9,0.7-9.6,0.2-13-4.2c-0.1-0.1-0.3-0.1-0.5-0.2
	C198.2,450,197.8,450.5,197.4,450.9L197.4,450.9z M118.6,346.3c-0.7-1.5-1.4-1.7-2.7-1.2c-1.5,0.6-2.7,1.4-3.6,2.7
	c-1.2,1.7-2.4,3.4-3.5,5.1c-2.8,4.6-5.6,9.1-8.1,13.8c-2.6,4.8-5.4,9.6-5.8,15.3c-0.1,2,0.3,3.8,1.2,5.5c0.6,1.2,1.3,1.4,2.3,0.6
	c1.9-1.4,3.9-1.7,6.1-1.4c1.5,0.2,3-0.2,3.7-1.6c0.7-1.5,1.4-3.1,1.6-4.7c0.9-6.9,3-13.4,6.7-19.3c1.4-2.2,3.1-4.2,4.7-6.3
	c-0.4-0.3-0.7-0.6-1.1-0.9s-0.9-0.6-1.4-0.9c-4.5,4.4-7.9,9.4-10.7,14.8c-0.3,0.6-0.4,1.5-1.4,1.7c-0.1-0.3-0.2-0.6-0.1-0.8
	c0.1-0.6,0.1-1.3,0.3-1.9c1.7-5.9,3.9-11.5,8.3-16C116.4,349.3,117.5,347.7,118.6,346.3L118.6,346.3z M317.1,442.4
	c8.5,4.3,17,6.8,26.8,3.5c-1-0.8-1.6-1.4-2.3-2c-1.9,1.5-4.1,1.8-6.2,1.6c-2.5-0.3-5.2-0.5-7.5-1.4c-4-1.6-7.8-3.6-11.6-5.5
	c-1.1-0.5-1.3-1.4-0.7-2.4c0.6-0.9,1.3-1.6,2-2.3c2.5-2.4,5.7-3.5,8.8-4.8c2.1-0.9,4.2-1.2,6.3-0.8c4.3,0.7,8.3,2,10.5,6.2
	c0.2,0.3,0.3,0.7,0.5,1.1c0.2-0.1,0.4-0.2,0.7-0.3c0-0.5,0.2-1,0.1-1.4c-1-2.5-3-4.3-5.1-5.9c-2.4-1.8-5.1-2.7-8.1-2.5
	c-2.7,0.1-5.4,0.4-8.1,0.8c-4.3,0.6-8,2.7-11.3,5.4c-2.5,2-3.1,4.7-2.1,7.6c0.6,1.9,1.6,3.9,3,5.4c4.9,5.4,10.5,9.8,17.9,11.3
	c4.1,0.9,8.1,0.8,12.1-0.1c2.2-0.5,2.8-1.2,3.6-3.2c-2.5,1.2-4.6,3.1-8.2,2.4c0.7-0.9,1.1-1.4,1.6-1.9s1.1-1,1.6-1.5
	c-0.6-0.2-0.9,0-1.3,0.1c-1.9,0.7-3.7,1.5-5.6,2.2c-0.8,0.3-1.6,0.4-2.1-0.7c0.5-0.6,1.1-1.2,1.6-1.8c0-0.2-0.1-0.4-0.1-0.5
	c-2.6,0.7-5.2,2.2-8.5,1.5c1-0.9,1.7-1.5,2.4-2.1c-1.2-1-2.3-0.9-3.5-0.6s-2.5,0.7-3.5-0.6c-0.1-0.2-0.1-0.4-0.1-0.8
	c0.6-0.2,1.1-0.4,1.6-0.6v-0.5c-1.4-0.2-2.8-0.4-4.4-0.6c0.4-0.8,0.6-1.3,0.9-1.8C318.1,444.1,317.6,443.2,317.1,442.4L317.1,442.4z
	 M512,246.5c-0.1-3,1.5-4.4,3.9-5.4c2.2-0.9,4.5-1.7,6-3.8c2.6-3.6,5.1-7.2,6.9-11.2c1.1-2.6,2.3-5.1,3.5-7.6c0.2-0.4,0.7-0.6,1-1
	c0.2,5.8-2.2,10.7-4.5,15.5c-2.4,5-5.5,9.5-9.5,14.1c1.1-0.1,1.7,0,2-0.2c0.8-0.6,1.5-1.2,2.1-2c3.6-4.3,6.4-9.2,8.5-14.4
	c2.8-6.7,5.2-13.6,6.4-20.8c1-5.6,1.4-11.1,0.8-16.7c-0.2-2-0.4-4.1-1.4-5.9c-0.2,0.1-0.3,0.1-0.3,0.2c-0.1,0.7-0.2,1.4-0.2,2.1
	c-0.3,7-1.7,13.8-3.7,20.5c-1.1,3.7-2.8,7.1-4.7,10.5c-3.1,5.5-7.7,9.6-12.6,13.4c-4,3.2-6.5,7-5.7,12.5
	C510.8,246.2,511.3,246.3,512,246.5L512,246.5z M34.5,246.1c0.8-5.4-1.6-9.2-5.5-12.4c-0.2-0.1-0.4-0.3-0.6-0.4
	c-5.5-4.2-10.2-9-13.4-15.2c-4-7.7-5.9-16-6.8-24.6l-0.6-6.6c-0.2,0-0.3,0-0.5-0.1l-0.9,3.3c-1.7,8.5-0.5,16.9,1.6,25.2
	c2.2,8.5,5.3,16.6,9.9,24.1c1.6,2.5,3.6,4.7,5.5,6.9c0.6,0.7,1.3,0.9,1.7,0.3c-2.6-3.8-5.3-7.4-7.5-11.3c-3-5.2-5.5-10.7-6.3-16.7
	c-0.1-0.4,0.1-0.8,0.2-1.6c0.6,0.6,0.9,0.9,1.1,1.2c0.6,1.2,1.2,2.4,1.8,3.7c1.9,4.5,4.1,8.8,6.9,12.9c2,2.9,4.4,5,7.7,6.1
	c2.5,0.9,4.1,2.5,3.9,5.4C33.6,246.3,34.1,246.2,34.5,246.1L34.5,246.1z M520.5,251.6c-2.3-1.6-3.3-1.8-6.3-1.2
	c-2,0.4-3.7,0.3-5.4-0.9c-2.2-1.5-3.6-1.2-5.4,1c-1,1.1-1.9,2.4-2.9,3.6c-3.8,4.5-8,8.6-14.1,9.7c-1.4,0.3-1.3,1.1-0.9,2.1h0.6
	c8.2-2.1,16.1-4.8,22.1-11.3c0.6-0.7,1.2-1.5,2.6-1.2c-0.2,0.7-0.2,1.3-0.6,1.8c-6.3,8.6-15.2,13.1-25.1,15.8
	c0.3,1.3,0.6,2.5,0.9,3.7c0.5-0.1,0.9-0.1,1.4-0.2c5.9-1.6,11.5-3.9,16.7-7.1c1.1-0.7,2.2-1.4,3.3-2c4.7-2.7,8.5-6.3,11.6-10.6
	C519.7,253.7,520,252.7,520.5,251.6L520.5,251.6z M423.5,355.1c2.8,2.5,4.7,5.7,6.6,9c2.6,4.7,3.8,9.8,4.9,14.9
	c0.3,1.6,0.7,3.3,1.3,4.8c0.8,2.3,1.9,3.1,4.3,2.9c2.3-0.2,4.3,0.1,6.1,1.5c0.8,0.6,1.8,0.5,2.2-0.5c0.6-1.6,1.3-3.4,1.2-5
	c-0.1-3.4-0.9-6.6-2.6-9.6c-1.6-3-3.2-6-4.9-9c-1.4-2.6-2.9-5.2-4.4-7.7c-1.8-2.9-3.6-5.6-5.5-8.4c-1-1.5-2.5-2.5-4.2-3
	c-1.2-0.4-2,0.3-1.9,1.6C427,351.7,427,351.7,423.5,355.1L423.5,355.1z M24.4,251.7c0.5,1,0.8,2.1,1.5,2.9c1.5,1.9,3,3.7,4.7,5.4
	c2.8,2.8,6.2,4.7,9.5,6.8c5,3.2,10.5,5.4,16.1,7.2c0.8,0.3,1.7,0.4,2.5,0.6c0.3-1.4,0.6-2.6,0.9-3.9l-7.8-2.1
	c-0.5-1.7-1-3.4-1.5-5.3c3.2,1,6,1.8,8.9,2.7c0.4-1.9,0.4-2.1-0.9-2.3c-5.1-1-9-4-12.3-7.8c-1.6-1.8-3-3.7-4.6-5.5
	c-1.8-2.1-3.1-2.5-5.2-1c-1.9,1.3-3.8,1.3-5.9,0.9C28.4,250,26.3,249.7,24.4,251.7L24.4,251.7z M178.7,298.5c2.5-0.6,4.6-1.1,7-2.5
	c-1.1-0.2-1.6-0.4-2.2-0.5c-2.2-0.1-4.3-0.2-6.5-0.2c-1,0-1.7-0.1-2-1.5c0.8-0.3,1.5-0.7,2.3-0.9c1.8-0.5,3.7-1,5.6-1.4
	c0.9-0.2,1.6-0.6,1.4-2c-3.9,0.4-7.9,0.1-11.6,1.5c-2.2,0.8-4,0.4-5.7-0.7c-0.5-5-0.9-9.8-6.1-13.1c0.2,1,0,1.7,0.3,2
	c2.3,2.7,2.3,6,2.7,9.3c0.3,2.2-0.6,4.1-1.9,5.7c-0.4,0.5-0.8,0.9-1.3,1.5c4.5,3.5,8.8,6.7,14.4,8c1.7-0.9,3.6-2,5.6-3.1
	C179.8,299.9,179.3,299.3,178.7,298.5L178.7,298.5z M386.8,253.4c-1.9,0-3.1,0.1-4.3,1.2c-3.4,3.3-6.9,6.4-10.3,9.7
	c-3.7,3.7-7.3,7.6-11,11.4c-3.2,3.2-6.5,6.4-9.7,9.7c-3.2,3.3-6.3,6.8-9.7,10c-4.8,4.6-9.8,9-14,14.1c-0.8,1-1.8,1.8-2.7,2.7
	l-2.1,2.1c1.2,1.2,1.9,0.6,2.6-0.2c2-2.1,4-4.1,6.1-6.1c3.7-3.6,7.4-7,11.1-10.6c5.8-5.7,11.5-11.6,17.5-17.1
	c5.2-4.8,9.8-10.3,14.9-15.3c3.4-3.3,6.6-6.7,9.9-10.1C385.7,254.5,386.1,254.1,386.8,253.4z M160.7,402.1l-1.2-0.9
	c-2.1-1.6-4.3-0.8-4.5,1.7c-0.2,2.2-0.4,4.6,0.3,6.6c0.8,2.7,2.2,5.3,3.7,7.7c2.3,3.7,9,7.3,15.1,5.1c1-0.4,2-0.8,2.1-2
	c0.1-1.1-0.8-1.5-1.5-1.9c-0.3-0.2-0.6-0.3-0.8-0.5c-3.8-2.4-6.4-5.4-6-10.4c0.2-2.3-0.7-2.9-3.4-2.7c-1.6,3.6-1.1,6.9,1.1,10.1
	c0.5,0.7,0.9,1.4,1.4,2.2c-1.6,0.8-2.6,0.1-3.2-0.7c-1.1-1.5-2.1-3.2-2.9-4.9C159.5,408.5,160,405.3,160.7,402.1L160.7,402.1z
	 M170.5,427.6c0.1,0.6,0,1.1,0.2,1.6c0.8,2.3,1.5,4.6,2.4,6.8c1.9,4.9,5.1,8.9,9.2,12c3.2,2.4,6.7,2.4,10.6,1.1
	c-0.5-1.3-1.1-2.4-1.4-3.5c-0.9-3-2.6-5.3-5.7-6.2c-0.1,0-0.3-0.2-0.4-0.2c-4.8-2.3-8.3-5.9-10.6-10.6c-0.2-0.5-0.5-1-0.8-1.5
	C172.7,427.2,171.6,427.4,170.5,427.6L170.5,427.6z M307.2,114.4c-0.3,3.9,3.1,7.1,8.6,7.2c4.8,0.1,6.9-3.3,7.3-8.3
	c0.2-3.3-4-7-7.5-7.1C311.7,106.1,306.9,109.9,307.2,114.4z M380.3,404.7c-2.8,0.1-3.2,0.6-3.2,3.3v0.2c0.1,3.2-1,5.8-3.5,7.8
	c-1.2,1-2.6,1.8-3.9,2.7c-1.3,0.9-1.3,2.2,0,3.1c0.5,0.3,1,0.4,1.5,0.6c3.2,1,6.2,0.4,9.3-0.8c5.7-2.3,10.9-11.6,9.4-18.9
	c-0.5-2.4-2.5-3.1-4.5-1.7c-0.4,0.3-0.9,0.7-1.3,1c0.6,1.1,1.2,2,1.5,3.1c0.4,1.1,0.8,2.4,0.6,3.5c-0.4,1.9-1,3.9-1.9,5.6
	c-1.1,2.2-3,3.8-5.5,4.2c-0.5,0.1-1.1-0.2-1.8-0.3c0.2-0.5,0.3-0.9,0.4-1c2.3-1.5,3.1-4,3.9-6.4C382.2,408.6,382,406.6,380.3,404.7
	L380.3,404.7z M369.1,282.9c-0.2,0-0.5,0.1-0.7,0.1c-0.1,0.7-0.2,1.4-0.1,2c0.2,2.5,0.3,5.1,0.7,7.6c0.4,1.9,0,3.4-1.5,4.7
	c-1,0.9-1.9,2-3,3.2c1.8,1.3,3.5,2.5,4.9,3.6c2.1-0.8,4-1.3,5.8-2.2c1.8-0.9,3.3-2.1,5-3.2l1.8-1.2c0.5-0.4,0.9-0.8,1.5-1.3
	c-0.4-0.5-0.7-0.9-1-1.2c-2.1-2.5-3.1-5.4-2.9-8.6c0.1-1.8,0.3-3.5,0.4-5.2v-2c-1.3-0.4-1.8,0.4-2.1,1.1c-0.5,1.2-0.9,2.4-1,3.7
	c-0.2,2.3,0,4.6,0,6.9c-1.7,0.9-3.4,1.8-5.3,2.8C370.7,289.9,369.9,286.4,369.1,282.9L369.1,282.9z M229.2,122c3,0.1,6.5-2.1,8-5.3
	c1.4-2.8-0.2-4.9-1.8-7c-0.2-0.3-0.5-0.6-0.8-0.9c-3.2-3.4-6-3.5-9.6-0.6c-1.3,1.1-2.6,2.1-3.1,3.8
	C220.7,116.4,224.7,121.8,229.2,122L229.2,122z M160,254.9c18.9,20.8,39,39.9,59.2,59.1c0.7-0.5,1.3-0.9,2.2-1.5
	c-2-1.8-3.8-3.4-5.5-5l-13.8-12.9c-0.9-0.8-1.6-1.8-2.4-2.6c-4.6-4.3-9.3-8.5-13.8-13c-3.3-3.2-6.5-6.6-9.6-10
	c-3-3.2-5.9-6.5-8.8-9.8C165.5,257,162.9,256,160,254.9L160,254.9z M476.3,187.7c-4.5,3.6-8.6,7.4-11.6,12.2c-0.6,1-1.1,2.2-1.3,3.3
	c-0.4,2-0.3,3.9,1.9,5.1c1.5,0.8,2.8,1.8,4.1,2.9c1.3,1,2.7,1,4.3,0.6c3.3-0.8,5.9-2.7,8.4-4.9c3-2.7,5.9-5.3,7.8-8.9
	c0.5-0.9,0.8-1.8,1.2-2.8C484.4,195.1,479.4,193,476.3,187.7L476.3,187.7z M399.9,286.3c0-3.5-2.3-5.6-4.5-6.9
	c-2.1-1.2-4.8-0.7-6.7,0.9c-1.7,1.5-2.8,3.3-3.5,5.3c-0.9,2.6-0.1,5.2,1.9,6.6c2.3,1.6,6.2,1.7,8.1,0.3c0.7-0.5,1.5-1.1,2.3-1.2
	c1.2-0.1,1.7-0.8,1.9-1.8C399.6,288.5,399.7,287.4,399.9,286.3L399.9,286.3z M154.5,257.8c-1.7,2.7-3.7,4.8-6.3,6
	c-2.5,1.1-5.1,2.2-7.8,3.1c-1.9,0.7-2.4,1.5-2,3.4c0.2,0.7,0.4,1.4,0.8,2c1.4,1.7,2.9,3.4,4.4,5.2c2.5-2.8,5.7-2.7,9-3.1
	c-1.8-2-1.9-4.2-1.9-6.5c2.7-1.8,6.1-2.5,8.1-5.9C157.5,260.8,156.1,259.4,154.5,257.8z M54.1,195.2c0.2,2.1,1.4,3.7,2.5,5.3
	c2.7,3.6,6.1,6.5,9.7,9.2c1.9,1.5,4.3,2,6.7,2.2c0.7,0.1,1.6-0.2,2.2-0.6c1.8-1.1,3.4-2.4,5.1-3.5c1-0.7,1.3-1.6,1.1-2.7
	c-0.2-0.9-0.3-1.8-0.7-2.5c-2.9-5.8-6.5-11-12.8-13.8C64.7,193.6,59.7,195,54.1,195.2L54.1,195.2z M393.3,273.8c3,0.4,6,0.8,8.6,2.7
	c1.9-1.5,3.4-3.2,4.3-5.2s0.8-3.6-2.1-4.5c-3.2-1-6.3-2.6-9.3-4.2c-1.5-0.9-2.7-2.4-3.7-3.4c-1.4,1.3-2.9,2.6-4.4,3.9
	c1.9,2.7,5.1,3.3,7.6,5.1C393.9,270,393.6,271.7,393.3,273.8z M334.1,362.5c-0.3-1.7-1-3.2-2.6-4c-2.9-1.4-6.1-2.3-9.3-2
	c-2.8,0.2-5.5,1-8.2,1.8c-1.9,0.5-3.4,1.7-4,3.8c-0.6,2.1-0.2,2.7,2,2.9c0.4,0,0.8,0.1,1.2,0.1c2.6-0.1,4.6,1.1,6.2,3
	c0.9,1.1,1.9,2.2,2.7,3.3c1.1,1.5,2.7,2,4.4,2.2c2.3,0.2,5.2-2.2,4.9-4.2c-0.2-1.4,0.4-2.2,1-3.3
	C333.2,364.9,333.6,363.6,334.1,362.5L334.1,362.5z M213.4,368.1c-0.1,3.5,3,6,5.8,5.2c1.5-0.4,3-1.1,3.9-2.6
	c0.7-1.1,1.7-2.1,2.6-3.1c1.5-1.6,3.3-2.7,5.7-2.6c0.6,0,1.3,0,1.9-0.1c1.7-0.2,2-0.7,1.7-2.4c-0.4-1.9-1.6-3.3-3.3-3.8
	c-3.3-1-6.6-2-10-2.2c-2.4-0.1-5.1,0.7-7.4,1.6c-3.8,1.5-3.8,4.6-2.5,7.2c0.2,0.4,0.6,0.7,0.8,1.2
	C213,367.2,213.3,367.9,213.4,368.1L213.4,368.1z M207.2,342.1c0.1,0,0.8-0.1,1.3-0.3c2.5-1.3,4-4.9,3.1-7.6c-0.4-1.2-1-2.4-1.8-3.3
	c-1.8-2.4-5.6-3.1-8.3-1.8c-2,1-3.1,4.1-2.4,7C199.9,339.5,202.9,341.9,207.2,342.1L207.2,342.1z M151.9,292.6
	c3.8,0.1,5.7-1.3,6.4-4.7c0.6-3-1.2-6.7-4.1-7.9c-2-0.9-3.9-0.5-5.4,1.1c-0.5,0.5-1.1,0.9-1.6,1.5c-0.4,0.4-0.9,0.8-1,1.2
	C145.1,288,146,292.3,151.9,292.6L151.9,292.6z M366.7,425.6c-2.1-2.6-2.9-2.7-5.3-0.6c-0.2,0.2-0.4,0.3-0.5,0.5
	c-1.3,1.3-2.9,2-4.6,2.3s-3.5,0.6-5.2,1s-2.9,1.4-3.5,3.1c2.4,2.2,4.5,4.4,7.8,5.5c2.2-1.6,4.6-3,6.7-4.8
	C364.2,430.7,366.4,428.7,366.7,425.6z M50.3,381.6c-0.2,0-0.4-0.1-0.5-0.1c-1.2-3.4-0.5-6.9,0.4-10.5c-0.6-0.3-1.2-0.6-2.1-1.1
	c-1.5,11.6-0.6,22.4,3.9,32.9c0-3.3-0.2-6.7-0.1-10c0.1-6.5,1.2-12.7,5-18.2c0.8-1.2,1.4-2.5,0.9-4c-3.2,0-4.8,1.8-5.3,4.7
	c-0.1,0.5-0.2,0.9-0.4,1.4C51.5,378.4,50.9,380,50.3,381.6L50.3,381.6z M340.6,328.1c-4,0.3-7.8,4.1-7.7,7.9c0,0.3,0.2,0.8,0.4,1
	c1.2,1.1,2.3,2.3,3.6,3.1c4.5,2.7,8,0.8,8.9-3.2c0.6-2.8-0.4-5.2-2.5-7.1C342.5,329,341.5,328.6,340.6,328.1L340.6,328.1z
	 M335.1,346c-5.2-3.3-8.2-7.6-8.1-13.8c-2.1,2.1-2.1,3.5-0.4,10.7c-3.3,3.5-6.7,7.1-10,10.5c0.2,0,1,0,1.7-0.3
	c2.4-0.9,4.9-1.3,7.5-0.8c0.4,0.1,1-0.1,1.3-0.4C329.7,350,332.3,348.1,335.1,346L335.1,346z M106.8,421.7c-3.1-10-4.9-20-1.9-30.3
	c-1-0.4-1.6-0.2-2.2,0.8c-0.9,1.5-1.3,3-1.4,4.8c0,1.3,0,2.7-1.1,4.1c-0.3-0.7-0.7-1.2-0.7-1.6l-0.6-5.7c0-0.2-0.2-0.4-0.3-0.7
	c-0.6,0.1-1.3,0.2-2.1,0.3C97,403.9,99.5,413.7,106.8,421.7L106.8,421.7z M496.6,370.3c-1.9,0.7-2,0.8-1.5,2.2
	c1.3,3.7,0.8,7.4,0.6,11.1c0,0.5-0.4,0.9-0.6,1.4h-0.5c-0.2-0.7-0.5-1.4-0.7-2.1c-0.7-3.1-1-6.3-2.4-9.2c-0.9-1.9-2-3.1-4.3-3.1
	c-0.4,1.6,0.2,2.9,1,4.1c3.7,5.4,4.9,11.6,5,17.9c0.1,3.4-0.1,6.8-0.2,10C496.8,396.4,498.9,378.4,496.6,370.3z M189.6,312.1
	c0-2.5-1.9-5.5-4.3-6.3c-0.8-0.3-2-0.4-2.8-0.1c-1.3,0.5-2.5,1.3-3.7,2.2c-1.8,1.3-2.2,3.1-1.5,5.1c0.6,1.9,1.6,3.5,3.9,3.6
	c0.5,0,1.1,0.3,1.6,0.4C185.7,317.9,189.6,315,189.6,312.1L189.6,312.1z M228.8,353.5c-0.2,0-0.3,0-0.5,0.1
	c-3.6-3.9-7.1-7.9-10.8-11.9c1.5-4.5,0.4-8.6-2.3-12.5c2.9,6.9,1.3,12.7-4.3,17.7c2.3,1.7,4.3,3.1,6.3,4.7c0.8,0.6,1.5,0.8,2.4,0.7
	c2.1-0.3,4.1-0.1,6.1,0.7C226.7,353.2,227.8,353.3,228.8,353.5L228.8,353.5z M361,305.4c-2.6,0-5.9,3.5-5.7,6.2c0,0.2,0,0.5,0.2,0.7
	c1.7,1.5,3.3,2.9,5,4.4c1.1,0.9,2.1,0,3.2-0.1c2-0.2,3.8-2.2,3.9-4.1C367.8,309.2,364.1,305.3,361,305.4z M438.1,421.8
	c6.4-6.7,8.9-15.1,10.1-24c0.2-1.5,0-3,0-4.6h-2.1c-0.3,7.3-0.9,9.9-3.1,11.2c-0.1-0.5-0.3-0.9-0.3-1.3c-0.1-1.5,0-3-0.1-4.6
	c-0.2-2.1-0.5-4.1-0.8-6.2c-0.2-1.1-0.8-1.3-1.7-0.9C443,401.8,441.2,411.8,438.1,421.8z M191.9,305.5c3.3,6,2.3,11.1-2,15.8
	c2.7,1.7,5.2,3.3,7.7,4.9c1.1-0.8,2.2-1.6,3.4-2.4c-1.2-1.3-2.3-2.5-3.6-3.8c1.6-0.5,3-1,4.4-1.4c1.3-0.4,2.9-0.1,4.3-1.6
	c-1.9-0.1-3.5-0.2-5.1-0.2h-4.9C196.6,311.3,195,306.2,191.9,305.5L191.9,305.5z M351.8,449.1c4.2,1.2,7.8,1.2,10.9-1.2
	c5.9-4.7,9.4-10.9,11.3-18.1c0.2-0.7,0.2-1.4,0.3-2.2c-1.3-0.1-2.3-0.3-3.5-0.4c-0.4,0.9-0.6,1.6-0.9,2.4c1,0.9,2.1,1.7,1.4,3.1
	c-1,2-1.9,4.2-3.4,5.7s-2.5,3.1-3.3,5.1c-1,2.4-2.9,4-5.5,4.4c-1,0.2-2.1,0.1-2.4-1c-0.5-1.7-1-3.4,0.5-5c0.4-0.5,1.1-1,0.5-2
	c-0.8,0.6-1.9,1-2.3,1.7C354.2,443.8,353.2,446.3,351.8,449.1z M344.6,324.1c0.7,0.5,1.7,1.2,2.7,1.9c2.7-1.7,5.3-3.3,8-5
	c-4-3.3-5.9-7.6-6.8-12.4c-1,3.3-0.8,6.5,0.3,9.5c-1,1-1.8,1.9-2.8,3c-0.9-1.5-1.7-2.9-2.5-4.3c-0.7-1.3-0.6-3-1.9-4.1
	c-0.1,0.9-0.3,1.8,0,2.6c0.6,1.9,1.4,3.7,2.1,5.6C344.2,321.9,344.3,322.8,344.6,324.1L344.6,324.1z M264.3,367.9c2.2,3,5,3.8,8.3,3
	c2.5-0.6,4.6-1.7,5.3-4.4C274.2,363.8,268.8,364.4,264.3,367.9L264.3,367.9z M197.3,431.8c-1.2-2.2-1.7-2.6-3.5-3.1
	c-0.8-0.2-1.7-0.4-2.6-0.5c-3-0.4-5.8-1.1-7.9-3.5c-0.5-0.6-1.3-0.9-2.1-1.2c-1.5-0.5-3,1.2-2.8,2.9c1.1-0.7,2.2-1,3.3,0.1
	c2.1,2,4.7,2.6,7.5,2.4c0.5,0,1,0,1.4,0.1c1.8,0.5,2.4,2.6,1.1,4c-0.3,0.3-0.7,0.6-1.2,0.8c-1.3,0.7-1.8,1.8-2.1,3.2
	C190.7,437.4,190.7,437.4,197.3,431.8L197.3,431.8z M239.8,363.2c1.6,3.7,5.1,4.3,8.9,1.3c-0.8-0.7-1.5-1.4-1.9-1.8
	C244.2,362.9,242,363,239.8,363.2z M305.1,363.3c-2.1-0.2-4-0.5-5.9-0.7c-0.4,0-0.9,0.1-1.3,0.4c-0.7,0.4-1.3,0.9-2,1.4
	C300.3,367.4,303.5,366.9,305.1,363.3L305.1,363.3z M415.2,243.8c0-1.4-0.7-2.2-1.9-2.2c-1.1,0-1.9,0.8-1.9,2c0,1.3,1.1,2.5,2.1,2.4
	C414.6,245.9,415.2,245.1,415.2,243.8L415.2,243.8z M253,288.8c1,0,1.9-1,1.8-2.1c-0.1-1.1-1.1-2.1-2.2-2.1c-1,0.1-1.6,0.8-1.6,2
	C251,287.9,251.9,288.8,253,288.8z M235.8,299.1c0-1.2-0.7-2.1-1.7-2.2s-1.8,0.9-1.8,2s0.8,2,1.9,2
	C235.2,301,235.8,300.3,235.8,299.1z M312.9,295.7c0-1-0.9-1.9-1.8-1.9c-1,0-1.8,0.8-1.7,1.9c0,1.2,0.9,2.1,1.9,2
	C312.1,297.6,312.9,296.7,312.9,295.7z M265.4,284.3c1,0,1.6-0.7,1.6-1.7c0-1.1-0.9-1.9-2.1-1.9c-1,0-1.6,0.6-1.5,1.7
	C263.4,283.5,264.3,284.3,265.4,284.3z M132.3,246.7c0.9,0,1.7-0.8,1.8-1.9c0.1-1.1-0.6-1.8-1.7-1.9c-1,0-1.8,0.8-1.8,1.8
	S131.4,246.7,132.3,246.7L132.3,246.7z M276.2,280.5c0-1-0.8-1.9-1.7-1.9c-0.9,0-1.7,0.8-1.7,1.6c-0.1,1,1,2.1,1.9,2
	C275.5,282.2,276.2,281.4,276.2,280.5L276.2,280.5z M292.9,283.5c-0.3,0.4-0.9,0.9-1,1.5c-0.2,1.1,1,2.2,2,2.1s1.3-0.8,1.3-1.7
	C295.3,284.4,294.4,283.5,292.9,283.5z M243.6,294.6c0.9,0,1.6-0.7,1.7-1.7c0-1.1-0.8-2.1-1.8-2.1s-1.6,0.6-1.6,1.7
	C241.8,293.7,242.6,294.6,243.6,294.6L243.6,294.6z M420.9,237.4c0.1-1-0.8-1.9-1.7-1.9c-0.9,0-1.6,0.7-1.7,1.7s0.6,1.8,1.4,1.9
	C419.9,239.2,420.9,238.4,420.9,237.4L420.9,237.4z M422.9,245c0-1-0.8-2-1.7-2c-0.8,0-1.6,0.8-1.6,1.8c0,1.1,0.8,1.9,1.7,1.9
	C422.2,246.8,422.9,246,422.9,245z M301,292c1.2,0,1.9-0.5,2-1.5s-0.5-1.9-1.3-2c-0.9-0.1-2,1-1.9,2C299.7,291.5,300.2,292,301,292
	L301,292z M284.4,283.8c0.9,0,1.6-0.8,1.6-1.8c-0.1-0.9-0.8-1.6-1.7-1.6c-1,0.1-1.7,0.8-1.6,1.7
	C282.8,283.1,283.6,283.8,284.4,283.8L284.4,283.8z M124.8,243.6c-0.3,0.4-0.9,0.9-1.1,1.5c-0.2,0.8,0.4,1.5,1.3,1.6
	s1.5-0.4,1.7-1.3C126.9,244.6,126.1,243.7,124.8,243.6z"/>
<path class="st0" d="M74.8,187.3c-0.4-0.3-0.9-0.6-1.3-0.9c-1.1-0.9-2.2-1.9-3.3-2.8c-1.6-1.4-3.4-1.9-5.6-1.5
	c-2.1,0.4-3-0.7-2.5-2.8c0.4-1.6,1-3.2,1.4-4.8c0.2-1.1,0.7-1.9,1.6-2.5c2.3-1.7,4.5-3.6,6.8-5.3c1.6-1.2,3.2-2.3,4.8-3.6
	c0.3-0.3,0.5-0.8,0.7-1.2l-0.4-0.4c-3.5,1.6-7,3.3-10.5,4.9c-0.8-2.8-0.7-3.8,0.7-4.9c3.3-2.4,6.7-4.7,10-7c1.6-1.1,3.1-2.3,4.7-3.4
	c-4.9,0.8-9.2,3-13.6,5.4c-0.3-0.7-0.5-1-0.5-1.4c-0.1-1.5,0.8-2.5,2-3.3c4.6-3.1,9.2-6.3,13.8-9.5c0.6-0.4,1.5-0.6,1.4-2
	c-5.5,1.7-10.5,4.2-15.7,6.8c-0.1-1.9,0.2-3.2,1.7-4.1c3.3-2.1,6.6-4.2,9.9-6.2c0.9-0.6,2-1,2.6-2.5c-4.4,1.5-8.4,2.8-12.6,4.3
	c0.4-2.8,1.7-4.7,4-6c1-0.6,2.3-0.9,3.2-1.6c1.9-1.8,4.2-2.1,6.6-2.6c4,5.3,9.1,8.4,15.6,9c0.4,2.6,0.3,4.1-0.9,6.3
	c-2.6,4.6-5.3,9.1-9.1,12.9c-0.4,0.4-1,0.5-1.5,0.8c1.5,0.8,2.5,1.3,2.4,2.6c-0.2,1.3-0.3,2.8-1,3.9c-2,3.5-4.4,6.7-7.9,8.9
	c-0.5,0.3-0.9,0.8-1.6,1.4c1.3,0.4,2.3,0.7,3.3,1c1.7,0.6,2.1,1.4,1.4,3.1c-0.7,1.6-1.7,3-3.2,4.1c-1,0.7-2.1,1.5-2.6,2.5
	C78.7,186.9,76.9,187.3,74.8,187.3L74.8,187.3z M317.2,185c-0.6-1.5-0.1-2.9,0.4-4.2c1.8-5.6,3.7-11.2,5.5-16.9
	c0.5-1.4,0.6-3,0.8-4.5c0.1-0.7-0.1-1.4-0.2-2c-2.9-0.2-3.5,0.2-4.1,2.4c-2.8,9.9-5.8,19.8-9.4,29.5c-0.9,2.4-1.6,4.9-2.4,7.3
	l-0.9,2.1c-1.1-0.4-0.8-1.1-0.6-1.7c1.4-6.1,2.7-12.2,4.2-18.2c1.4-5.8,3.1-11.6,4.6-17.4c0-0.1-0.1-0.3-0.1-0.6
	c-2.5,0.3-3.8,2.3-6.1,3.9c0.5-1.9,0.8-3.3,1.3-4.6c1.1-3.5,3.3-6.2,6-8.5c1.7-1.4,3.9-1.7,5.9-1.6c3.1,0.2,6.2,0.9,8.5,3.4
	c2.4,2.6,2.7,4.3,1.1,7.6c-0.2,0.5-0.6,0.9-0.8,1.4c-0.9-0.7-1.8-1.3-2.8-2.1C325.7,169.4,321.6,177.2,317.2,185L317.2,185z
	 M107.1,69.8c0.8-2.2,0.6-4.5,0.1-6.8c-0.2-1.1-0.7-2.1-0.9-3.2c-0.3-1.3,0.1-2.4,1.1-2.9c1.1-0.5,2-0.1,2.8,0.7
	c1.8,1.8,3.7,3.5,5.5,5.3c2.5,2.3,4.7,5,6.6,7.9c1.5,2.3,3.7,4.2,5.9,5.8c1.9,1.3,4.3,1.1,6.4,0.1c0.5-0.2,1-0.6,1.5-0.8
	c2.5-1.4,3.1-1.3,4.8,0.9c2.8,3.5,6.9,4.8,11.1,3.3c1-0.4,1.9-1.1,2.8-1.9c1.8-1.6,3.7-1.8,5.9-0.8c3.8,1.8,7.7,2,11.4-0.6
	c0.5-0.4,1.1-0.8,1.7-0.8c2.4-0.2,4.1-1.7,5.8-3.1c1.5-1.2,3.3-1.6,5-2.1c0.8-0.2,1.7,0,2,0.9c0.3,1-0.4,1.5-1.1,1.8
	c-1.6,0.8-3.3,1.4-4.9,2.4c-5.1,3.1-9.3,7.2-14,10.8c-4.8,3.7-9.3,7.9-14.8,10.6c-3.1,1.5-6.2,2.9-9.3,4.3c-2,0.9-2,0.9-2.8,2.5
	c0.6-0.1,1.2,0,1.7-0.2c9.8-2.3,18.3-7.4,26.2-13.4c3.9-3,7.8-5.9,11.9-9c-0.2,0.7-0.3,1.2-0.5,1.6c-2.3,5.1-6.3,8.8-10.2,12.5
	s-8,7.1-11.4,11.2c-1.8,2.1-4.4,3.4-6.6,5.1c-2.9,2.2-6.2,3.4-9.8,4.2c-2.9,0.6-5.6,1.9-8.4,2.8c-6.3,1.9-12.4,4.3-19,4.9
	c-5.8,0.6-11.2-0.7-15.9-4.1c-2.7-2-4.5-4.5-4.2-8.1c0.1-0.8-0.5-1.8-0.9-2.6c-0.2-0.5-0.7-0.9-1.1-1.2c-3.7-3.3-4-7.3-2.4-11.6
	c1.1-2.9,1.3-5.8,1.3-8.9c0-2.9,0.9-5.7,3-7.8c1.3-1.3,2.8-2.4,4.2-3.6c2.3-2,3.9-4.4,4.6-7.4c0.1-0.2,0-0.5,0.2-0.7
	c0.4-0.5,0.8-1.2,1.4-1.4c0.9-0.3,1.5,0.4,1.9,1.2c0.4,0.7,0.7,1.4,1.1,2.1C106.8,69.8,107,69.8,107.1,69.8L107.1,69.8z M128.4,89.1
	c0-1.2-1.2-2.4-2.2-2.4c-1.2,0-2.4,1.4-2.3,2.6s1.2,2.1,2.5,2C127.6,91.2,128.5,90.3,128.4,89.1z M118.2,92c0.1-1.3-0.9-2.4-2.1-2.4
	c-1.1-0.1-2,0.8-2.1,1.8c-0.1,1.3,0.9,2.7,2.1,2.7C117.2,94.2,118.1,93.2,118.2,92z M133,92c-1.2,0-2.1,1-2,2.2
	c0.1,1.1,1,1.9,2.1,1.8c1.2,0,2.1-0.9,2.1-1.9S134.1,92,133,92L133,92z M112.2,99.9c-1.2,0-2.2,0.8-2.2,2c0,1.1,1,2.1,2.1,2.1
	s2.1-1,2.1-2.1S113.2,99.9,112.2,99.9z M116.8,110.7c-1-0.1-2,0.8-2.1,1.9c-0.1,1.2,0.8,2.2,1.9,2.3c1.1,0,1.9-0.8,1.9-2
	C118.6,111.7,117.9,110.8,116.8,110.7z M122.7,99.1c0-1.2-1-2.1-2.2-2c-1.1,0.1-1.8,1-1.8,2.1s0.9,1.9,2,1.9
	C121.8,101,122.7,100.1,122.7,99.1z M82.2,55.7c1.7,2.7,1.9,5.3,0.1,6.7c-2.1,1.8-4.2,0.7-6.1-0.9c-2.3,4.3-4,8.5-3.8,13.3
	c0.1,1.4,0.5,2.8,0.9,4.2c0.3,1.2,1.2,2.1,2.5,2.4c1.9,0.4,3.9,0.9,5.8,1.2c1.2,0.2,2.4,0.2,3.5,0.2c0.2,7.1-4.5,12.1-9.1,13.4
	c-4.7,1.3-12.9-1-14-8c-0.2-1.3-0.6-2.7-0.8-4c-0.4-2.9,0-5.7,1.4-8.3c1.4-2.5,2.3-5.3,3.6-7.8c1.5-3.1,3-6.2,4.9-9
	c3.9-5.9,8-11.8,12.7-17.1c3.1-3.5,7.6-4.4,11.7-2.2c0.7,0.4,1.4,0.8,2,1.3c0.7,0.5,1.4,1.1,2,1.8c0.7,0.8,1.7,1.9,0.9,2.9
	c-0.8,1.1-2,0.5-3.1,0c-0.5-0.2-1-0.6-1.5-0.7c-0.8-0.3-1.6-0.4-2.5-0.6c0,2.9,0,2.8-2.6,4.1c-1.3,0.6-2.6,1.3-3.8,1.9
	c0.6,3.1,0.3,3.5-2.6,4.4c-0.5,0.2-1.1,0.3-1.6,0.5C82.6,55.3,82.5,55.5,82.2,55.7z"/>
<path class="st0" d="M85,64.4c0-2,1.1-2.9,3.5-2.9c1.5,0,2.7,1.3,2.7,2.7c0,1.5-1.7,3-3.4,3.1C86.2,67.4,85,66.2,85,64.4z M83,69.5
	c0.1,1.7-0.8,2.4-3,2.5c-1.5,0.1-2.4-0.7-2.5-2.2c-0.1-1.6,1.2-3,2.7-3S83,68,83,69.5z M88.4,74.8c-1.2,0-2.3-1.2-2.4-2.5
	c0-1.3,1.1-2.5,2.3-2.6c1.1,0,2.6,1.4,2.7,2.6C91.1,73.6,89.8,74.8,88.4,74.8z M351.1,69.3c0.8,0.3,1.5,0.5,2,0.8
	c2.4,1.4,5,2.1,7.8,2c1.8-0.1,3.1,0.5,4.1,1.9c0.8,1.1,1.8,1.5,3.1,1.5c1.7,0,3.4,0.3,4.8,1.3c3.5,2.5,7.3,2.3,10.9,0.6
	c2.6-1.2,4.5-0.8,6.5,1c3.6,3.1,9.5,2.7,12.7-0.8c0.3-0.3,0.5-0.6,0.8-0.9c1.7-2.2,2.4-2.4,4.8-0.9c1.6,1,3.3,1.6,5.2,1.5
	c1.7-0.1,3.2-0.6,4.3-1.8c0.9-1,1.9-1.2,3-0.8c2.5,0.6,4.9,1.3,7.4,2c1.4,0.5,2.3,1.6,2.7,3c-0.3,0.2-0.4,0.3-0.5,0.3
	c-4-1.5-7.1,0.6-10.2,2.6c-1.2,0.8-2.2,1.7-3.6,2.8c1.7-0.2,2.9,0.4,4.1,1.1c2.4,1.5,5.2,1.9,8,2c2.2,0.1,4.3,0.1,6.5,0.3
	c1,0.1,1.9,0.5,2.9,0.8c0,0.2,0,0.4,0.1,0.5c-1.6,0.8-3.1,1.8-4.7,2.5s-3.2,1.2-4.8,2c6,1.9,12.2,1.4,18.4,1.3
	c0,1.7-0.9,2.5-2.3,2.8c-4.1,1-8,3.1-12.4,3.3c5.9,1.6,11.7,0.9,17.6-0.9c0.3,1.9-0.6,2.7-1.9,3.4c-5,3-10.5,4.1-16.2,4.5
	c-0.6,0-1.3,0-1.9,0.2c3.7,1.8,7.6,1.7,11.5,1.6c4-0.1,7.5-1.9,10.9-4.3c1.2,2.7,0.4,5.1-0.7,7.4c-2.9,6.4-8.6,8.6-14.9,9.8
	c-5.2,1-10.2-0.4-15.1-1.7c-4.4-1.2-8.7-2.6-13-4.1c-2.7-0.9-5.4-1.8-8.2-2.5c-1.9-0.5-3.7-1.5-5.4-2.5c-1.9-1.1-3.8-2.4-5.6-3.8
	c-1-0.8-1.9-1.7-2.8-2.6c-0.7-0.7-1.2-1.5-1.8-2.2c-1.7-2.1-1.7-2.1-2.5-4.8c-0.6-2.1-1.7-2.9-3.9-2.3c-0.9,0.2-1.5,0.1-2.2-0.3
	c-2.5-1.5-4.7-3.3-6.5-5.6c-1.3-1.7-2.7-3.4-3.9-5.2c-1.6-2.5-3.2-5-4.6-7.6c-0.7-1.3-1.3-2.2-2.9-2.4c-2.8-0.3-4.7-2.2-6.7-3.9
	C351.3,71.7,350.8,70.8,351.1,69.3L351.1,69.3z M413.2,101.1c0-1.6-0.9-2.6-2.2-2.6c-1.5,0-2.7,1.5-2.7,3.1c0,1.5,1,2.7,2.2,2.6
	C411.9,104.1,413.2,102.6,413.2,101.1z M404,87.4c-1.3,0-2.3,1.2-2.3,2.8c0,1.5,0.9,2.5,2.3,2.5c1.3,0,2.6-1.4,2.5-2.9
	C406.5,88.6,405.3,87.4,404,87.4z M400,99.9c0-1.3-1.1-2.4-2.4-2.4s-2.2,1.1-2.1,2.6c0.1,1.4,1.2,2.6,2.4,2.5
	C399,102.5,400,101.3,400,99.9z M390.8,89.9c0,1.3,0.9,2.3,2,2.3c1.2,0,2.3-1.2,2.2-2.4c-0.1-1.1-1.1-2.1-2.2-2.1
	C391.6,87.7,390.7,88.6,390.8,89.9z M453.4,75.8c-3.1-2.3-6.1-4-9.8-4.2c-1.2-0.1-2.1-0.5-2.3-1.7c-0.2-1.2,0.5-1.9,1.6-2.3
	c0.2-0.1,0.4-0.2,1.1-0.7c-2.8-0.5-5-1.7-7.6-1.7c-0.8,0-1.7,0.3-2.5,0.6c-0.7,0.2-1.4,0.5-2,0.7c-0.9,0.2-1.6,0.1-2.1-0.8
	s0.3-1.3,0.8-1.7c2.4-1.7,3.9-4.2,5.1-6.8c1.2-2.7,2.5-5.3,3.9-8c1.1-2.2,2.6-4.1,4.9-5.4c2.2-1.2,4-3.1,6-4.7
	c0.7-0.5,1.4-1.1,2.2-1.4c1.9-0.7,3.6-0.7,5.5,0.9c6.4,5.4,10.2,12.6,14.3,19.6c1.9,3.2,3.5,6.5,5.1,9.8c1,2.1,1.9,4.2,2.7,6.4
	c0.9,2.5,1.3,5.1,0.9,7.8c-0.2,1.3,0,2.7,0,4c0.1,2.1-0.2,4-1.9,5.4c-0.6,0.5-0.9,1.3-1.3,2c-0.9,1.8-2.1,2.6-4,2.1
	c-3.4-1-6.8-1.1-10.2-0.3c-1.7,0.4-3.1-0.4-4.6-0.9c-1.4-0.5-2.9-0.9-4.3-1.2c-1-0.2-2.1-0.2-2.6-1.5c1-1.6,3-1.2,4.4-2
	c1.4-0.7,3-0.8,4.7-1.2c-1.8-3.9-3.9-7.3-8.4-8.1c-0.1,0-0.2,0-0.2-0.1c-1.8-0.5-2.5-1.2-2.4-2.2c0.1-1.4,1.1-1.8,2.3-2.1
	C452.8,76.2,453,76.1,453.4,75.8L453.4,75.8z M454.3,60.6c1.2,0,2.2-0.8,2.2-2s-0.9-2.2-2-2.2s-2,1-2,2.2S453.2,60.6,454.3,60.6z
	 M456.5,50.2c0-1.1-0.8-1.8-1.8-1.8c-1.2,0-2.3,1.2-2.2,2.4c0.1,1,0.9,1.7,1.9,1.7C455.6,52.4,456.5,51.4,456.5,50.2z M465.8,59
	c0-1.2-0.8-2.1-1.9-2.1c-1,0-1.9,0.9-1.9,2.1c0,1.2,0.7,2.1,1.8,2C464.9,61,465.8,60.1,465.8,59z M150.7,20
	c-5.1-1.6-10-3.1-14.9-4.6V15c1.2-0.5,2.3-1.1,3.5-1.4c3.7-1,7.4-1.9,11.1-2.8c2.6-0.7,5.2-0.9,7.8-0.4c0.6,0.1,1.3-0.1,1.9,0
	c0.9,0.1,1.8,0.1,2.5,0.5c0.5,0.3,0.9,1.1,0.9,1.7c0,0.4-0.8,0.9-1.3,1.1c-0.9,0.3-1.8,0.5-2.7,0.7c-3,0.6-5.4,2.3-7.5,4.5
	C151.7,19.2,151.2,19.5,150.7,20z M148.1,23.4c-1.1,2.1-2.9,3-5,3c-3.2,0.1-6.5,0.3-9.6-1.2c-3.3-1.6-6.8-2.7-10.5-4.1
	c2.5-2.1,5.2-2.9,7.8-4.1c0.4-0.2,1.1,0.1,1.6,0.3c4.5,1.7,8.9,3.4,13.4,5.1C146.5,22.8,147.2,23,148.1,23.4z M409.1,15.1
	c-0.8,3.9-1.5,7.5-2.3,11.4c-1.7,0-3.6,0.1-5.4,0c-1.7-0.1-3.2-1-4.3-2.3c-1.7-2-3.3-4.1-5.1-6c-2.4-2.6-5.5-3.7-8.9-4.3
	c-0.9-0.2-1.8-0.1-2-1.3c-0.1-1,0.6-1.8,2-1.9c3.2-0.2,6.4-0.6,9.5-0.1c4.5,0.7,9,2.1,13.4,3.3C407.2,14.1,408.1,14.6,409.1,15.1
	L409.1,15.1z M411.9,16c1.6,0.7,2.9,1.3,4.4,1.9c-1.2,5.3-2.4,10.4-3.7,15.8c-1.1-2-2.1-3.7-3.1-5.5c-0.1-0.2-0.1-0.5-0.1-0.7
	C409.9,23.8,410.5,20,411.9,16L411.9,16z M497.1,151.2c-2,1.4-3.9,2.9-7.1,2.6c1.4-1.8,2.6-3.1,3.5-4.6c0.8-1.5,1.3-3.2,1.8-5
	c-2,1.9-3.2,5.1-7.3,3.8c2.2-2.6,3.7-5.2,4.5-8.4c-3.8,3.1-3.8,3.1-6,2.9c0.8-1.2,1.5-2.3,2.1-3.4c0.6-1.2,1-2.4,1.2-3.9
	c-0.7,0.6-1.5,1.3-2.2,1.9c-0.7,0.5-1.5,1.2-2.3,0.4s0-1.5,0.4-2.1l2.7-4.2c0.1-0.2,0.2-0.6,0.3-1.1c-2.2,0.9-4.1,2.7-6.6,1.3
	c0.2-2,0.7-3.6,1.8-5.2c1.7-2.3,2-5.2,2.5-7.9c0.7-3.9,1.2-7.9,1.9-11.8c0.3-1.7,1-3.4,1.9-4.8c1.5-2.3,2.8-2.1,4.4,0.1
	c3.1,4.4,4.6,9.5,5.6,14.7c0.4,2,0.5,4.1,0.5,6.2c0,2.5,0.6,4.9,1.9,7.1c2.3,3.9,4.1,8.1,4.6,12.7c0.3,2.9,0.1,5.8-0.7,8.5
	c-0.5,1.8-0.3,3.4,0.3,5.1c1.1,3.4,2.1,6.9,2.9,10.4c0.8,3.6,0.6,7.2-0.2,10.7c-0.8,3.7-3.5,5.8-7,6.8c-2.1,0.6-4.2,0.3-6.4-0.1
	c-0.1-1.2,0.8-1.6,1.4-2.1c0.7-0.5,1.6-0.8,2.3-1.2c1.6-1,2.7-2.2,2.7-4.1c-2,1.1-4,2.3-6,3.3c-0.6,0.3-1.4,0.3-2.1,0.2
	c-0.4-0.1-0.8-0.6-0.9-1c-0.1-0.3,0.3-0.8,0.6-1.1c1.1-0.9,2.4-1.7,3.4-2.7c0.8-0.8,1.4-1.8,2.3-3.2c-3.1,0.8-5.5,3.3-8.5,0.5
	c1.7-1,3.1-1.6,4.3-2.6c1.2-1,2.2-2.3,2.9-4.3c-1.1,0.7-1.7,1.3-2.3,1.5c-1.1,0.4-2.3,0.7-3.4,0.8c-0.4,0-1.1-0.6-1.4-1
	c-0.1-0.2,0.4-1,0.8-1.2c2.6-1.3,3.8-3.8,5.4-6c0.1-0.1,0.1-0.3,0.1-0.7c-0.7,0.4-1.3,0.8-1.9,1c-1.2,0.3-2.5,0.6-3.7,0.7
	c-0.5,0-1-0.6-1.5-1c0.3-0.4,0.5-1.1,0.9-1.2C494.6,156.9,495.8,154.1,497.1,151.2L497.1,151.2z M438.4,210.7c0,1.8-1,3-2.4,3
	s-2.6-1.5-2.5-2.9c0.1-1.3,1.4-2.5,2.7-2.6C437.5,208.1,438.4,209.2,438.4,210.7L438.4,210.7z M434,204.9c0,1.7-1,2.9-2.3,2.8
	c-1.3-0.1-2.5-1.5-2.5-2.7c0-1.5,1.1-2.6,2.6-2.5C433.1,202.5,434,203.4,434,204.9L434,204.9z M441.8,205.7c0,1.5-0.8,2.4-2.1,2.4
	s-2.4-1.2-2.4-2.8c0-1.3,1-2.3,2.3-2.2C441.1,203.1,441.8,204,441.8,205.7z M95.4,200.5c0.9-1.3,1.9-2,2.9-2.4c2-0.8,4-1.4,6.1-2
	c0.4-0.1,0.9-0.1,1.2,0c0.4,0.2,0.9,0.6,1.1,1.1c0.1,0.3-0.3,0.9-0.6,1.2c-0.2,0.3-0.7,0.5-1,0.5c-2.8,0.6-5.6,1.2-8.4,1.7
	C96.4,200.7,96.1,200.6,95.4,200.5z M112.5,209c0,1.4-1.1,2.6-2.3,2.5c-1.4-0.1-2.7-1.6-2.7-2.9c0.1-1.3,1.4-2.5,2.7-2.5
	C111.5,206.2,112.6,207.5,112.5,209z M116.7,202.6c0,1.4-0.9,2.5-2.2,2.5c-1.4,0-2.7-1.2-2.7-2.5c0-1.2,1.2-2.3,2.5-2.4
	C115.7,200.2,116.7,201.1,116.7,202.6z M106,205.1c0,1.4-0.9,2.4-2.2,2.3c-1.3,0-2.6-1.2-2.6-2.4s1.3-2.4,2.6-2.3
	S106,203.8,106,205.1z M52.2,183.3c-1.2-0.3-2.2-0.4-3-0.7c-2.3-1-4.7-1.4-7.3-1.1c-0.8,0.1-1.4,0-2.1-0.7
	c-3.4-3.4-4.3-7.6-4.1-12.1c0.1-2.3,0.9-4.6,1.8-6.7c1.2-2.8,1.2-5.5,0.3-8.4c-1.4-4.5-1.7-9.3-1.2-14c0.3-2.4,1.1-4.8,3.3-6.4
	c0.4-0.3,0.8-1,0.9-1.6c0.2-1.3,0.3-2.5,0.3-3.8c0.1-2.6,0.5-5.1,1.7-7.4c0.4-0.7,0.8-1.5,1.4-1.9c1.5-0.9,1.8-2.3,2.1-3.8
	c0.5-2.3,0.9-4.7,1.7-7c0.9-2.6,2.2-5.1,3.3-7.5c2-0.4,3.1,0.5,3.7,1.9c0.6,1.4,1.2,2.8,1.5,4.3c0.7,3.8,1.2,7.7,1.9,11.6
	c0.4,2.2,0.9,4.4,1.6,6.5c0.4,1.3,1,2.4,2.6,2.8c1.4,0.3,1.6,1.4,1.1,2.9c-0.7,2.1-1.5,4.2-2.3,6.3c-2.5,6.5-4,13.3-5.2,20.2
	c-1.4,7.5-2.4,15-3.6,22.5C52.5,180.4,52.4,181.8,52.2,183.3z M44.7,143.1c0-1.1-0.8-2.1-1.8-2.2c-0.9-0.1-1.7,0.6-1.8,1.6
	c-0.1,1.2,0.8,2.2,1.9,2.3C44,144.8,44.7,144.2,44.7,143.1L44.7,143.1z M53.7,141.3c0.1-1.1-0.7-2.2-1.6-2.3
	c-0.9-0.1-1.7,0.7-1.7,1.6c-0.1,1.1,0.5,1.9,1.5,2.1C52.9,142.8,53.6,142.3,53.7,141.3L53.7,141.3z M48.7,133.4
	c0.8,0,1.5-0.9,1.5-1.8c-0.1-0.9-0.9-1.7-1.7-1.6c-0.9,0.1-1.4,0.6-1.5,1.6C47,132.5,47.8,133.4,48.7,133.4z M464,174
	c-0.7-0.6-1.1-1-1.6-1.3c-3.5-2.2-5.8-5.4-7.8-8.9c-0.5-0.8-0.6-1.8-0.8-2.7c-0.3-2.2-0.2-2.2,1.9-3.3c-3.6-3.1-6-7.1-8.5-10.9
	c-1.3-2-2.6-4-2.8-6.5c0-0.4-0.1-0.8-0.1-1.2c0-3.6,0.6-4.2,4.2-3.8c1,0.1,1.8-0.1,2.7-0.6c2-1.3,4-2.5,5.4-4.6
	c0.9-1.4,2.6-2,4.3-1.5c2,0.6,3.9,1.4,5.8,2.1c1.3,0.5,2.5,1,3.8,1.3c1.7,0.4,2.5,1.3,2.8,3.1c1.5,8.2,3.2,16.5,4.9,24.7
	c1.1,5.2,2.2,10.5,3.4,15.7c0.3,1.3,0.8,2.6,1.1,3.9c0.6,2.1-0.4,3.3-2.4,2.9c-2.4-0.5-4.2,0.2-5.9,1.7c-1.1,0.9-2.2,1.9-3.4,2.7
	c-1.9,1.4-4,0.8-5.4-1.1c-0.8-1.1-1.8-2.3-2.9-3.1c-1.5-1.1-2.6-2.6-3.3-4.3c-0.7-1.5-0.3-2.4,1.3-2.9c0.5-0.2,1.1-0.3,1.6-0.4
	C462.7,174.5,463.2,174.3,464,174L464,174z M465.8,150c0-0.7-0.2-1.5-1.4-1.7c-1-0.1-2,0.9-2,1.9c0,0.9,0.9,1.8,1.9,1.7
	C465.4,151.9,465.8,151.2,465.8,150z M467.3,140c-1.1,0-1.8,0.7-1.8,1.8c0,1,0.9,1.8,1.9,1.8s1.8-0.8,1.8-1.8S468.3,140,467.3,140z
	 M460.3,142.9c0-1-0.8-1.9-1.7-1.9c-0.9,0-1.5,0.5-1.5,1.4c-0.1,1,0.7,2,1.6,2C459.6,144.6,460.3,143.9,460.3,142.9z M446.7,279.1
	c8.4-1.3,15.4-4.8,22.5-8.4c2-1,4-1.6,6.2-1c1.7,0.5,2.5,1.3,2.3,3.1c-0.1,1-0.3,2.2-0.9,2.9c-1.9,2.1-4.1,4.1-7,4.1
	c-5.8-0.1-11.3,1.4-16.9,3c-1.6,0.5-2.7,0.3-3.7-1C448.5,281,447.8,280.3,446.7,279.1z M406.8,288.3c-0.3-1.2-0.5-1.9-0.6-2.7
	c-0.4-2.7,1.5-4.7,4.1-4c3.5,0.9,6.9,0.8,10.4,0.5c2.4-0.2,4.2,0.3,5.2,2.7c0.2,0.5,0.6,0.9,1,1.5c-3.9,0.9-7.7,1.2-11.5,1.3
	c-2.1,0.1-4.1,0.5-6.1,0.7C408.4,288.4,407.6,288.3,406.8,288.3z M446.6,283.9c-2.3,0.2-4.1,0.4-6,0.4c-0.5,0-1-0.4-1.4-0.7
	c-0.8-0.9-1.5-1.9-2.4-3.1c2.1-0.3,3.9-0.7,5.6-0.9c0.4,0,0.9,0.3,1.2,0.6C444.6,281.3,445.4,282.4,446.6,283.9L446.6,283.9z
	 M426.9,281.4c2.4-0.3,4.3-0.5,6.4-0.7c0.8,1.3,1.6,2.5,2.6,3.9c-0.7,0.2-1.2,0.4-1.7,0.5c-3.8,0.8-3.8,0.8-6.3-2.3
	C427.6,282.4,427.4,282.1,426.9,281.4z M421.8,307.6c8.9,0.5,17.7,1.4,26.4,3.1c1.9,0.4,3.7,1.5,5.4,2.5c1.1,0.7,1.9,1.8,1.5,3.3
	c-0.4,1.4-1.3,2.2-2.8,2.6c-2.7,0.6-5.2-0.2-7.2-1.7c-3.6-2.8-7.8-3.5-12-4.3c-5.2-1-10.4-1.8-15.5-2.8c-0.2,0-0.4,0-0.5-0.1
	c-0.4-0.3-0.7-0.7-1.1-1.1c0.4-0.3,0.7-0.9,1.2-0.9C418.6,307.8,420.2,307.8,421.8,307.6z M374.1,315.5c0.4-1.7,0.8-3.1,1.1-4.6
	c11-2.2,22-2.4,33.1-2.8c0.2,0,0.5,0.3,1.2,0.8c-1.3,0.3-2.2,0.7-3.1,0.8c-5.3,0.6-10.6,1-15.9,2.1l-14.7,3.3
	C375.4,315.2,374.9,315.3,374.1,315.5L374.1,315.5z M95.6,285.6c-2.8-0.5-5.4-1-7.9-1.4c-5.4-0.9-10.5-2.7-15.4-5.2
	c-1.3-0.7-2.5-1.5-3.5-2.5c-0.7-0.6-1.2-1.5-1.5-2.4c-0.7-2.5,0.3-3.9,2.8-4.5c1.9-0.4,3.6,0.1,5.3,1c1.6,0.8,3.2,1.8,4.9,2.5
	c2.5,1,5.1,1.9,7.6,2.7c1.1,0.3,1.7,0.9,2.3,1.8c1.4,2.2,2.9,4.4,4.4,6.5C95,284.6,95.2,285,95.6,285.6z M114.9,282.3
	c1.7,0.2,3.4,0.1,4.9,0.5c3.6,1,7.3,0.5,11,0.5c2.2,0,4.3-0.1,6.5,0c2.1,0,2.9,1.1,2.5,3.1c-0.2,1-0.7,1.5-1.8,1.6
	c-5.4,0.1-10.8,0.3-16.3,0.5c-1.2,0-2.1-0.4-2.9-1.3c-1.3-1.5-2.7-2.9-4.1-4.3C114.8,282.7,114.8,282.5,114.9,282.3L114.9,282.3z
	 M93.5,277.7c2.4,0.7,4.6,1.3,6.6,2.1c0.8,0.3,1.2,1.4,1.8,2.2c1.2,1.6,2.4,3.2,3.8,5.1c-2.1,0.1-3.9-0.4-5.6-0.6
	c-0.3,0-0.7-0.4-0.9-0.7c-1.7-2.3-3.5-4.6-5.2-6.9C93.8,278.7,93.7,278.4,93.5,277.7z M103.8,280.7c0.6-0.1,0.6-0.1,0.7-0.1
	c2.2,0.5,4.7,0.4,6.5,1.5c2,1.3,3.2,3.6,5.1,5.9c-2.2,0.1-4.1,0-5.9-0.3c-0.3-0.1-0.7-0.4-0.9-0.7
	C107.5,285,105.8,282.9,103.8,280.7z M168.1,333.5c7.6-0.4,15.2-0.1,22.6,1c0.5,1.8,0.8,3.4,1.5,4.8c0.6,1.4,1.6,2.7,2.4,4.2
	c-1.9,0.7-3.5,0.1-5.2-0.4c-3.7-1.1-7.5-2.3-11.2-3.3c-1.6-0.4-3.3-0.7-4.9-0.8c-1.1-0.1-2-0.5-2.6-1.4c-0.8-1.1-1.8-2.2-2.6-3.4
	C168,334,168,333.8,168.1,333.5L168.1,333.5z M145.9,336.1c1,1.4,1.8,2.6,2.8,3.9c-3.1,0.7-6.1,1.4-9.1,2.1
	c-1.1,0.2-2.2,0.4-3.3,0.7c-0.8,0.3-1.6,0.7-2.3,1.2c-1.5,1.1-3,2.4-4.5,3.5c-1,0.7-2.4,0.7-3.1,0c-0.8-0.7-0.9-2.3,0-3.3
	c1.7-1.9,3.6-3.6,6.2-4.3c3.5-1,7-2.1,10.5-3.2C144,336.5,145,336.3,145.9,336.1L145.9,336.1z M157.6,334c2.1-0.1,3.8-0.2,5.5-0.2
	c0.5,0,1,0.5,1.3,0.8c0.9,1.1,1.8,2.2,2.7,3.4C163,339.2,160.9,338.3,157.6,334L157.6,334z M148.8,335.6c1.6-0.4,3-0.8,4.4-1
	c0.4-0.1,1.1,0.2,1.4,0.5c1,1.1,1.9,2.3,2.8,3.5C153,340.3,152.4,340,148.8,335.6L148.8,335.6z M128.5,307.3
	c3.4-0.8,6.4-0.7,9.4-0.5c4.9,0.4,9.9,0.8,14.8,1.4c5.2,0.7,10.4,1.6,15.6,2.4c0.3,0,0.6,0.2,0.5,0.1c0.8,2.3,1.6,4.2,2.4,6.4
	c-0.3,0.3-0.7,0.8-1.2,1.3c-0.6-0.3-1.2-0.6-1.7-0.9c-3.5-2.2-7.5-2.6-11.4-3.5c-6.9-1.5-13.9-2.1-21-2c-1.8,0-3.2-0.5-4.4-1.8
	C130.7,309.3,129.7,308.5,128.5,307.3L128.5,307.3z M111.3,313.7c-2.4,0.4-4.7,0.9-7,1.2c-3.4,0.4-6.6,1.6-9.7,3.1
	c-1.6,0.7-3.9-0.3-4.8-2.1c-0.4-0.8-0.7-1.6-0.9-2.5c-0.5-1.8,0-2.8,1.9-3.1c3-0.4,6-0.7,9-1.1c1.7-0.2,3.3-0.2,5-0.5
	c1.2-0.2,2.1,0.1,2.9,1.1C108.8,311.2,110,312.3,111.3,313.7z M110.1,308.7c1-0.2,1.5-0.3,2.1-0.3c4.1-0.5,4.7-0.2,7,3.9
	c-1.2,0.2-2.3,0.5-3.4,0.6c-0.3,0-0.8-0.2-1.1-0.4C113.2,311.4,111.8,310.2,110.1,308.7L110.1,308.7z M119.2,308.4
	c1-0.1,1.3-0.2,1.6-0.2c5.4-0.6,3.8-1,7.5,3.6c-1.2,0.1-2.5,0.1-3.7,0.3c-0.9,0.1-1.7,0-2.4-0.7
	C121.3,310.4,120.4,309.6,119.2,308.4L119.2,308.4z M354.4,334.7c4.7-1.2,18-1.6,23.8-0.8c0.5,1.4,1.1,2.9,1.6,4.3
	c-0.2,0.1-0.3,0.2-0.4,0.2c-7.1,0.5-13.6,3.4-20.2,5.4c-1.7,0.5-3.3,1.7-5.2,1.4c-0.8-0.1-1.5-0.2-2.5-0.4
	C353,341.5,354.5,338.3,354.4,334.7L354.4,334.7z M401.1,336.5c2.7,0.6,4.9,1.1,7.1,1.6c1.9,0.5,3.8,1.1,5.8,1.5
	c2.6,0.6,4.3,2.3,5.5,4.6c0.8,1.4,0.6,2.3-0.3,3.2c-1,0.9-2.1,0.8-3.1,0.2c-1.6-1-3.2-1.9-4.5-3.1c-1.7-1.6-3.8-2.5-5.9-3
	c-1.8-0.4-2.7-1.4-3.5-2.8C402,338.2,401.7,337.5,401.1,336.5L401.1,336.5z M391.3,334.7c2.1,0.5,3.7,0.8,5.3,1.3
	c0.4,0.1,0.8,0.5,1,0.9c0.5,1.1,0.9,2.2,1.6,3.7c-2-0.3-3.7-0.5-5.4-0.7C393.1,338.2,392.4,336.8,391.3,334.7L391.3,334.7z
	 M389.4,338.6h-5.3c-0.7-1.4-1.4-2.7-2.3-4.3h5.7C388.2,335.6,388.8,337,389.4,338.6L389.4,338.6z M274.4,306.3
	c2.3-0.1,5.1,0.1,7.8,0.9c3.3,0.9,5.1,3.4,7,5.8c0.7,0.9,0.4,1.7-0.9,2.6c-1.8,1.2-2.9,2.9-3.8,4.8c-0.8,1.6-0.9,3.2,0,4.8
	c1.1,2.1,0.7,3.8-0.9,5.4c-1.7,1.6-2.7,3.6-2.3,6c0.2,1.7-0.5,2.9-1.8,3.9c-0.5,0.4-1,0.7-1.5,1.2c-2.5,2.2-2.8,4-1.4,7
	c1.2,2.4,1.4,4.9-0.2,7.3c-1.7,2.5-3.5,2.7-6.3,1.4c-1.4-0.7-2.3-1.6-2.8-2.9c-0.6-1.6-1.4-3.2-2.1-4.8c-1.9-4.9-3.7-9.9-5.6-14.8
	c-1.1-2.9-2.5-5.7-3.8-8.6c-1.1-2.6-2.1-5.2-3.2-7.8c-1-2.5,0.2-5.8,2.6-7.2c4.4-2.5,9.2-4.1,14.2-4.8
	C270.9,306.1,272.4,306.3,274.4,306.3L274.4,306.3z M271.4,323.1c0-1.3-0.8-2.3-1.9-2.3c-1.2,0-2.1,1-2,2.4c0,1.3,0.9,2.2,2,2.2
	C270.6,325.3,271.4,324.4,271.4,323.1L271.4,323.1z M263.5,318c0-1.3-1-2.4-2.1-2.5c-1,0-1.9,0.9-2,2c-0.1,1.3,0.7,2.3,1.8,2.4
	C262.5,320,263.5,319.2,263.5,318L263.5,318z M275,314.5c0-1.2-1-2-2.2-2c-1.1,0-2,0.8-2,1.9s1,2,2.2,2S275.1,315.6,275,314.5z
	 M268.7,332.7c0-1.1-0.8-2.1-1.8-2.1c-1.1-0.1-1.9,0.7-2,1.9c-0.1,1.3,0.7,2.2,1.9,2.2C267.8,334.7,268.6,333.8,268.7,332.7z
	 M278.4,335.4c0-1-0.8-1.8-1.8-1.8s-1.9,0.8-1.9,1.7c0,1,1,2,2,2C277.6,337.3,278.4,336.3,278.4,335.4L278.4,335.4z M166.5,392.7
	c0.1-0.3,0.2-0.9,0.5-1.5c2.6-5.7,5.9-10.9,9.9-15.8c4.2-5.3,9.4-9.1,15.4-11.9c0.6-0.3,1.3-0.6,2-0.8c1.1-0.3,2.4,0.3,2.8,1.3
	c0.5,1,0.1,1.9-0.7,2.6c-0.2,0.2-0.4,0.3-0.5,0.5c-1.3,1.3-1.2,1.8,0.3,2.7c0.6,0.3,1.1,0.6,1.7,0.9c4.1,2.2,4.3,6.8,0.4,9.3
	c-1.2,0.8-2.6,1.3-4,1.5c-7.2,0.7-13.2,3.9-18.5,8.7c-1.1,1-2,2-3.1,3c-0.9,0.8-1.8,1.6-2.8,2.2
	C168.3,395.9,166.6,394.8,166.5,392.7L166.5,392.7z M289.7,356.8c-0.7-0.5-1.5-0.9-2.2-1.4c1.2-1.8,1.2-1.8,4-0.7
	c0.3-0.4,0.6-0.8,1-1.3c-0.9-1.1-1.7-2.1-2.5-3.2c1.4-1.6,1.5-1.6,4.6,0.4c0.5-0.6,0.9-1.1,1.4-1.7c-1-1.6-3.3-1.7-3.8-3.9
	c2.2-1.3,3.8,0.2,5.9,0.8c0.5-0.5,1-1.1,1.8-1.9c-2-1.5-3.9-2.8-5.7-4.2c1.7-1.6,2.1-1.6,7.9,1.3c0.2-0.2,0.5-0.4,0.8-0.7
	c0.3-0.3,0.5-0.6,0.7-1c-1.6-2.4-4.8-2.5-6.6-4.5c1.7-2,4.4-1.6,9.1,1.3c1-0.6,1-1.4,0-2c-1.6-0.9-3.2-1.6-4.9-2.4
	c-0.8-0.4-1.6-0.7-2.4-1.3c3.6-2,6.8-0.8,10,1.1c-0.4-1.9-0.4-2-3.1-3.4c-1.4-0.7-2.8-1.4-4.6-2.4c3.3-1.7,5.8-0.3,8.4,0.3
	c-0.3-2.3-0.3-2.4-2.3-3c-1.1-0.3-2.2-0.4-3.3-0.6c-1-0.1-2.1-0.1-3-1.3c0.6-0.3,1.1-0.7,1.6-0.8c4.6-0.7,8.7,0.4,12.6,2.8
	c0.8,0.5,1.5,1.2,2,2c1.7,2.3,1.7,3.9-0.2,6c-3.5,4.1-7.2,8.1-10.7,12.3c-2.5,3-4.9,6.1-7.4,9.1c-1.8,2.1-3.7,3.9-5.6,5.9
	c-1.1,1.1-2.2,2.1-3.2,3.2c-0.7,0.8-1.4,0.9-2.3,0.3c-0.5-0.4-1.1-0.6-1.6-1c-0.3-0.3-0.8-0.8-0.8-1.1c0.2-0.4,0.7-1,1.1-1
	C287.8,358.8,288.8,358.6,289.7,356.8L289.7,356.8z M63.4,342.8c2.1,2.5,2.9,5,2.1,7.9c-0.2,0.8-0.1,1.6-0.3,2.4
	c-0.4,2.1-0.8,4.3-2.9,5.5c-1.2,0.7-2.2,1.7-3,3c-1.1,1.7-3.1,2-4.6,1.1s-2.3-3-1.3-4.6c2.3-4,4.1-8.5,7.7-11.8
	C62,345.5,62.5,344.2,63.4,342.8z M67,334.3c2.5,3,2.5,3.5,0.1,7.9C64.5,339.5,64.8,338.3,67,334.3z M467.1,318.2
	c1.1,1.2,2.3,2.2,3.2,3.4c2.7,3.7,5.3,7.4,8,11.1c3.5,5,7,10.1,10.6,15.1c2,2.8,3.3,5.8,4.1,9.1c0.2,0.9,0.3,1.9,0.1,2.8
	c-0.5,2.1-2.6,2.8-4.3,1.5c-0.4-0.3-0.8-0.8-1.1-1.2c-1.2-1.5-2.4-2.9-4.6-3.2c-1.3-0.2-2-1.2-2.1-2.6c-0.5-5.4-2-10.5-4.1-15.4
	c-0.2-0.4-0.4-0.7-0.5-1.1c-1.5-5.9-5.7-9.9-9.5-14.2c-2-2.2-2.1-2.3-0.4-4.8C466.6,318.6,466.7,318.5,467.1,318.2L467.1,318.2z
	 M506.4,195c-0.5,8.2-3.3,15.1-7.4,21.5c-0.5,0.9-1.3,1.6-2.2,2.2c-2.3,1.7-4.7,3.3-7,5c-4,2.8-8.6,4-13.4,4.7
	c-1.1,0.2-2.2,0.3-3.4,0.5c-0.1-0.3-0.4-0.7-0.4-1c0.1-2.3,0.2-4.6,0.4-6.9c0.1-0.9,0.9-1.4,1.8-1.6c3.5-0.6,6.5-2.3,9.4-4.3
	c5.7-3.9,9.3-9.3,11.9-15.5c0.4-0.9,1-1.5,2-1.8c1.9-0.7,3.8-1.7,5.7-2.4C504.6,195.1,505.3,195.1,506.4,195z M67.6,229
	c-3.6-0.5-7.7-1.8-11.2-4.2c-4.4-3.2-8.6-6.8-11.9-11.4c-3.1-4.3-5.3-8.9-6.3-14.1c-0.2-1-0.3-2.1-0.2-3.1c0.1-1.6,1-2.3,2.6-2.1
	c1.7,0.2,3.5,0.5,5.2,0.8c0.7,0.1,1.2,0.5,1.4,1.4c0.9,6.3,4.6,11.1,8.8,15.6c3.5,3.8,8,6.1,12.9,7.5c3.1,0.9,4.9,4.3,3.8,7.3
	C72,228.2,70.2,229.1,67.6,229z M106.9,381c0,1.2-0.6,1.9-1.6,2.4c-0.8,0.4-1.7,0.9-2.5,1.3c-0.9,0.5-1.8,0.8-2.7,0.3
	c-1-0.5-1.3-1.5-1.1-2.5c0.4-2.7,1-5.4,2.7-7.6c0.4-0.5,0.9-0.9,1.4-1.2c0.9-0.4,1.7-0.1,2,0.8C105.8,376.7,106.3,378.8,106.9,381
	L106.9,381z M428.3,354.8c0.6-1,1.2-2.1,2-3.5c0.9,1.1,1.8,2,2.5,3.1c3.8,5.5,7.7,11,11.3,16.6c1.6,2.5,2.6,5.3,3.9,7.9
	c0.6,1.3,0.3,2.5-0.3,3.7c-0.7,1.4-2.2,1.7-3.7,1c-1-0.5-2-0.9-3.1-1.2c-1.7-0.4-2-0.6-2.3-2.3c-1-6.8-3.4-13.1-6.8-19
	C430.7,359.1,429.5,357,428.3,354.8L428.3,354.8z M40.2,264.3c-1.5-1.1-3-2.3-4.6-3.4c-1.7-1.2-3.5-2.2-5.2-3.3
	c-0.3-0.2-0.7-0.3-1-0.6c-1.3-1-1.9-2.8-1.3-4c0.5-1.1,1.8-1.5,3.6-1c2.6,0.7,5,1.9,6.7,4.1c0.2,0.3,0.5,0.6,0.6,1l1.8,6.9
	C40.5,264.1,40.4,264.2,40.2,264.3z M43.6,260.2c1.2,0.5,2.1,0.9,3,1.4c0.4,0.2,0.8,0.6,0.9,1c0.4,1.7,0.7,3.4,1.2,5.5
	c-1.7-0.4-3-0.8-4.3-1.1C44.1,264.7,43.9,262.6,43.6,260.2z M466.5,203c0-0.3,0-0.8,0.2-1.2c1.4-3.6,3.1-7,6.1-9.6
	c1.5-1.3,2.6-1.5,4.3-0.2c2.1,1.6,4.3,2.7,6.8,3.3c2,0.5,2.5,2.1,1.3,3.9c-2.5,3.4-5.6,6.1-9.1,8.5c-1.4,0.9-2.7,1.2-4.1-0.1
	c-0.7-0.6-1.8-0.7-2.7-0.9C467.4,206.1,466.5,205.1,466.5,203L466.5,203z M69.7,190.9c0.7,0.4,1.4,0.6,1.9,1
	c3.2,2.6,5.1,6.1,6.4,9.9c0.9,2.6-0.3,4.2-2.9,4.9c-1,0.2-2,0.6-2.8,1.2c-1,0.7-2,0.7-2.9,0.1c-4-2.4-7.5-5.5-10.2-9.3
	c-0.8-1.2-0.3-2.6,1-3.2c0.4-0.2,0.8-0.2,1.1-0.3c2.1-0.5,4.1-1.4,5.8-2.8C67.9,191.7,68.8,191.4,69.7,190.9L69.7,190.9z
	 M325.7,370.9c-1.9,0-3.5-1.4-4.2-3.4c-0.9-2.6-2.9-3.2-5.2-3.4c-0.6-0.1-1.2,0.1-1.6-0.2c-0.5-0.3-1.1-0.9-1.3-1.5
	c-0.1-0.4,0.4-1.3,0.9-1.5c3.2-1,6.4-1.9,9.8-0.7c2.8,1,4.4,3.1,5.4,5.7C330.7,368.8,329.2,371,325.7,370.9L325.7,370.9z
	 M226.4,358.8c1,0.3,2.6,0.6,4,1.2c1,0.4,1.7,1.3,1.5,2.5s-1.1,1.7-2.2,1.9c-0.7,0.2-1.4,0.3-2.1,0.5c-1.7,0.4-3,1.4-3.9,2.9
	c-0.6,0.9-1.2,1.9-2,2.6c-1.2,1.2-2.6,1.1-3.9,0c-1.9-1.6-2.4-4.6-1.2-6.7C218.8,360.2,222.1,359.2,226.4,358.8L226.4,358.8z"/>
</svg>
